<?xml version="1.0" encoding="UTF-8" standalone="no"?>
<!-- Created with Inkscape (http://www.inkscape.org/) -->

<svg
   xmlns:dc="http://purl.org/dc/elements/1.1/"
   xmlns:cc="http://creativecommons.org/ns#"
   xmlns:rdf="http://www.w3.org/1999/02/22-rdf-syntax-ns#"
   xmlns:svg="http://www.w3.org/2000/svg"
   xmlns="http://www.w3.org/2000/svg"
   xmlns:xlink="http://www.w3.org/1999/xlink"
   xmlns:sodipodi="http://sodipodi.sourceforge.net/DTD/sodipodi-0.dtd"
   xmlns:inkscape="http://www.inkscape.org/namespaces/inkscape"
   width="744.09448819"
   height="1052.3622047"
   id="svg2"
   version="1.1"
   inkscape:version="0.48.4 r9943 custom"
   sodipodi:docname="drop.svg">
  <defs
     id="defs4">
    <linearGradient
       inkscape:collect="always"
       id="linearGradient3833">
      <stop
         style="stop-color:#ffdd55;stop-opacity:1;"
         offset="0"
         id="stop3835" />
      <stop
         style="stop-color:#ffdd55;stop-opacity:0;"
         offset="1"
         id="stop3837" />
    </linearGradient>
    <linearGradient
       inkscape:collect="always"
       id="linearGradient3825">
      <stop
         style="stop-color:#000000;stop-opacity:1;"
         offset="0"
         id="stop3827" />
      <stop
         style="stop-color:#000000;stop-opacity:0;"
         offset="1"
         id="stop3829" />
    </linearGradient>
    <linearGradient
       id="linearGradient3817">
      <stop
         style="stop-color:#000000;stop-opacity:1;"
         offset="0"
         id="stop3819" />
      <stop
         style="stop-color:#000000;stop-opacity:0;"
         offset="1"
         id="stop3821" />
    </linearGradient>
    <linearGradient
       id="linearGradient3780">
      <stop
         style="stop-color:#ff0000;stop-opacity:1;"
         offset="0"
         id="stop3782" />
      <stop
         style="stop-color:#000000;stop-opacity:1;"
         offset="1"
         id="stop3784" />
    </linearGradient>
    <linearGradient
       inkscape:collect="always"
       xlink:href="#linearGradient3825"
       id="linearGradient3831"
       x1="312.6088"
       y1="318.94754"
       x2="314.89383"
       y2="363.94754"
       gradientUnits="userSpaceOnUse"
       gradientTransform="matrix(0.1629536,0,0,0.1629536,-13.857436,19.26875)" />
    <linearGradient
       inkscape:collect="always"
       xlink:href="#linearGradient3833"
       id="linearGradient3839"
       x1="316.43774"
       y1="460.50812"
       x2="315.8382"
       y2="449.07956"
       gradientUnits="userSpaceOnUse"
       gradientTransform="matrix(0.1629536,0,0,0.1629536,-13.566448,19.908926)" />
  </defs>
  <sodipodi:namedview
     id="base"
     pagecolor="#ffffff"
     bordercolor="#666666"
     borderopacity="1.0"
     inkscape:pageopacity="0.0"
     inkscape:pageshadow="2"
     inkscape:zoom="1.4142136"
     inkscape:cx="412.06825"
     inkscape:cy="941.73235"
     inkscape:document-units="px"
     inkscape:current-layer="layer1"
     showgrid="false"
     inkscape:window-width="1860"
     inkscape:window-height="1036"
     inkscape:window-x="60"
     inkscape:window-y="22"
     inkscape:window-maximized="0" />
  <metadata
     id="metadata7">
    <rdf:RDF>
      <cc:Work
         rdf:about="">
        <dc:format>image/svg+xml</dc:format>
        <dc:type
           rdf:resource="http://purl.org/dc/dcmitype/StillImage" />
        <dc:title />
      </cc:Work>
    </rdf:RDF>
  </metadata>
  <g
     inkscape:label="Layer 1"
     inkscape:groupmode="layer"
     id="layer1">
    <rect
       style="opacity:0.71100913;fill:#ff0000;fill-opacity:1;fill-rule:nonzero;stroke:none"
       id="rect3120"
       width="128"
       height="128"
       x="0.25"
       y="0.11217369" />
    <rect
       style="fill:#800080;fill-opacity:1;fill-rule:nonzero;stroke:none"
       id="rect3792"
       width="128.077"
       height="127.57195"
       x="0.26622832"
       y="0.17104803" />
    <path
       style="fill:#ffcc00;stroke:none"
       d="M 0.01686786,82.425677 128.53258,91.520754 128.41278,127.71243 -0.11287185,129.29541 z"
       id="path3790"
       inkscape:connector-curvature="0"
       sodipodi:nodetypes="ccccc" />
    <path
       style="fill:#800000;stroke:none"
       d="M 34.818231,71.055039 C 38.935425,70.126094 39.128009,66.191414 40.544185,62.828252 L 39.434717,68.850531 42.577711,67.934091 44.25211,62.061363 42.843836,67.912327 46.314505,66.507294 46.879711,61.16823 47.227,66.217751 50.355163,64.87151 C 49.4519,51.516503 60.726898,56.568038 66.879137,53.487369 L 55.312357,49.347679 38.788383,57.109596 z"
       id="path2987"
       inkscape:connector-curvature="0"
       sodipodi:nodetypes="cccccccccccccc" />
    <path
       style="fill:#0000ff;fill-opacity:1;fill-rule:nonzero;stroke:none"
       d="M 60.921161,90.916825 C 60.921161,97.990023 55.305803,103.72398 48.378905,103.72398 41.452008,103.72398 35.83665,97.990023 35.83665,90.916825 35.83665,83.843627 41.452008,78.109665 48.378905,78.109665 54.822554,78.109665 60.217825,83.095493 60.858927,89.642592"
       id="path2989"
       inkscape:connector-curvature="0" />
    <path
       style="fill:#ff0000;fill-opacity:1;stroke:none"
       d="M 128.26388,15.116234 C 103.68442,28.58433 80.988306,54.582535 57.75258,45.207993 36.156401,49.616609 30.261488,72.344762 34.888059,71.020955 37.399254,58.534684 43.531482,58.605093 54.815667,56.074674 64.740308,62.547532 59.702142,70.119355 53.137433,73.668346 L 52.983966,76.644862 C 65.792099,74.56596 65.084263,71.888496 71.068712,61.432232 L 122.78029,42.690015 128.46373,39.730262 z"
       id="path2985"
       inkscape:connector-curvature="0"
       sodipodi:nodetypes="cccccccccc" />
    <path
       inkscape:connector-curvature="0"
       id="path3917"
       d="M 57.06926,109.3582 C 57.06926,110.91457 53.070673,112.17628 48.138161,112.17628 43.20565,112.17628 39.207063,110.91457 39.207063,109.3582 39.207063,107.80181 43.20565,106.54011 48.138161,106.54011 52.72656,106.54011 56.568429,107.63719 57.024945,109.0778"
       style="opacity:0.53211012;fill:#000000;fill-opacity:1;fill-rule:nonzero;stroke:none" />
    <path
       style="fill:#00ff00;stroke:none"
       d="M 54.333333,4.1121826 52.516667,28.812183 45.25,28.812183 55.06,42.112183 71.046667,29.445516 60.873333,28.495516 72.5,6.6455159 z"
       id="path3011"
       inkscape:connector-curvature="0"
       sodipodi:nodetypes="cccccccc" />
  </g>
</svg>
