<?xml version="1.0" encoding="UTF-8" standalone="no"?>
<svg
   xmlns:dc="http://purl.org/dc/elements/1.1/"
   xmlns:cc="http://creativecommons.org/ns#"
   xmlns:rdf="http://www.w3.org/1999/02/22-rdf-syntax-ns#"
   xmlns:svg="http://www.w3.org/2000/svg"
   xmlns="http://www.w3.org/2000/svg"
   xmlns:sodipodi="http://sodipodi.sourceforge.net/DTD/sodipodi-0.dtd"
   xmlns:inkscape="http://www.inkscape.org/namespaces/inkscape"
   version="1.1"
   width="634.531px"
   height="557.67px"
   viewBox="0 0 634.531 557.67"
   id="svg2985"
   inkscape:version="0.48.4 r9943 custom"
   sodipodi:docname="logo_github.svg">
  <metadata
     id="metadata3013">
    <rdf:RDF>
      <cc:Work
         rdf:about="">
        <dc:format>image/svg+xml</dc:format>
        <dc:type
           rdf:resource="http://purl.org/dc/dcmitype/StillImage" />
      </cc:Work>
    </rdf:RDF>
  </metadata>
  <defs
     id="defs3011" />
  <sodipodi:namedview
     pagecolor="#ffffff"
     bordercolor="#666666"
     borderopacity="1"
     objecttolerance="10"
     gridtolerance="10"
     guidetolerance="10"
     inkscape:pageopacity="0"
     inkscape:pageshadow="2"
     inkscape:window-width="979"
     inkscape:window-height="659"
     id="namedview3009"
     showgrid="false"
     inkscape:zoom="1.6927574"
     inkscape:cx="110.85957"
     inkscape:cy="270.96959"
     inkscape:window-x="440"
     inkscape:window-y="256"
     inkscape:window-maximized="0"
     inkscape:current-layer="svg2985" />
  <path
     style="fill:#00ffff"
     d="M 497.851,495.339 C 491.38001,528.8771 450.81755,537.51798 422.85161,546.17069 347.7793,562.91758 267.49192,562.63397 193.81462,539.41425 166.69541,533.27783 122.01942,503.00956 152.45516,473.90564 193.01429,442.06553 247.3457,437.11835 297.0724,433.50186 357.78559,432.04394 422.18023,435.46824 476.35492,465.62781 486.64684,472.36519 497.63519,481.9585 497.851,495.339 z"
     id="path2987"
     inkscape:connector-curvature="0" />
  <path
     style="fill:#0088aa"
     d="M 271.353,555.346 C 270.30098,535.7061 273.89234,515.40925 268.582,496.326 284.81641,512.00422 280.08417,535.88806 280.848,556.181 298.21256,558.15206 319.60568,562.74403 312.60434,539.04019 315.86812,513.46623 298.82822,484.45907 270.70772,485.14772 265.10924,500.01287 247.04202,468.04923 228.25683,475.21341 200.36518,481.82608 252.84191,498.67653 241.281,520.15662 241.281,530.54241 241.281,540.92821 241.281,551.314 251.24675,553.02821 261.32033,554.34292 271.353,555.346 z"
     id="path2989"
     inkscape:connector-curvature="0" />
  <path
     style="fill:#0088aa"
     d="M 411.437,475.303 C 398.91017,467.25254 357.17244,496.19412 368.12181,489.81887 347.33784,474.72159 317.45637,509.13732 321.97916,532.63087 322.14573,546.00831 316.76633,565.17242 337.90287,557.34825 358.78581,563.55769 353.173,544.39016 353.667,531.19614 352.83304,509.87904 369.81825,482.70824 363.163,517.6711 363.163,530.3824 363.163,543.0937 363.163,555.805 380.43405,555.37803 399.61954,555.29811 393.237,533.55223 392.51577,516.08959 391.80228,493.299 412.232,486.382 417.55436,483.53808 418.25541,476.59901 411.437,475.303 z"
     id="path2991"
     inkscape:connector-curvature="0" />
  <path
     d="M 634.062,236.95 C 613.27489,226.89939 579.51407,227.86716 553.48413,225.39516 534.10647,218.82641 485.51219,239.66781 500.19824,206.58106 507.29204,160.7849 504.81374,107.89568 468.337,74.386 473.44444,51.359324 480.66069,-7.523349 444.23212,1.419 414.28448,3.2862656 393.05659,37.800793 363.17336,25.581427 322.76863,19.028259 280.91418,20.863131 241.372,31.553 217.70701,17.674674 183.5047,-8.1213122 157.88541,4.4978424 142.31238,30.818443 159.48884,65.048819 149.29979,87.663195 118.40376,126.21455 120.83092,180.4984 134.759,225.286 89.697477,223.76893 44.311708,225.9097 0.002,234.628 22.259443,235.82182 53.320655,227.1318 79.232988,227.85602 99.22234,231.24582 132.31717,216.69291 140.717,239.232 93.648565,240.90094 46.497321,246.56034 1.047,259.21 24.912864,258.20865 56.796783,247.03502 84.320451,245.74665 107.58561,247.19204 141.45626,229.37085 152.35951,257.41227 179.63718,291.52196 224.86425,303.2653 266.413,307.767 245.40101,324.41144 243.09308,359.00203 208.01487,351.34425 173.63593,352.91933 166.3891,313.99276 141.21987,300.26912 121.46849,285.81638 99.248593,304.23731 128.01994,315.37066 151.58623,334.1312 151.41539,372.87468 183.42966,382.86325 199.19032,397.29265 236.60823,376.66317 241.301,391.8621 240.01338,410.88387 244.27488,430.80169 238.3335,449.10012 229.41628,458.8354 203.76621,478.21566 234.29636,474.92274 259.90994,475.42503 275.53318,451.29327 271.374,427.77733 272.4704,404.54473 268.63514,380.65657 274.57139,358.03769 285.07798,338.77652 279.48902,370.13478 280.868,378.46391 279.99511,405.11765 282.83595,432.08782 278.99,458.49437 273.91323,469.95989 254.8383,496.0712 282.92105,486.5292 308.56694,479.2539 314.56477,450.73854 312.65569,427.45526 312.86312,400.63818 313.07056,373.82109 313.278,347.004 327.3852,343.41634 319.14921,362.347 321.45166,370.65662 322.58985,399.52612 319.88897,428.75578 323.9768,457.35412 320.74792,483.33862 388.3175,502.97393 359.35522,468.96833 349.34367,443.4175 355.29579,415.30823 353.681,388.48718 353.681,375.84845 353.681,363.20973 353.681,350.571 369.2811,368.1094 361.16431,393.37927 363.176,414.82848 363.29413,434.82539 359.35628,461.68857 382.81088,470.51548 398.78167,482.49626 434.38645,471.15821 401.93134,457.50534 387.39265,440.48112 395.25513,416.94544 393.25,396.5689 392.84069,365.66057 398.33499,327.50748 368.317,307.884 414.96138,303.86772 470.67631,289.00043 490.55,241.504 538.49601,242.99618 586.55315,248.61497 632.851,261.487 611.66228,249.52332 576.68189,247.74907 549.63601,243.28913 532.89398,237.84392 497.60754,245.75307 493.68012,233.58613 511.59416,220.108 546.40555,230.16275 571.05839,228.78173 592.14796,230.24198 613.58808,232.90011 634.062,236.95 z"
     id="path2993"
     inkscape:connector-curvature="0"
     style="fill:#000000" />
  <path
     style="fill:#e9c6af"
     d="M 432.881,157.833 C 466.2507,184.47292 464.06684,238.83842 436.87858,268.76754 401.80107,299.36879 351.66505,293.22948 308.29316,294.48285 265.06297,293.22461 211.60645,292.47031 184.91144,252.63314 164.24649,219.42529 172.37891,169.95766 208.34552,150.9636 248.40584,135.05945 291.96983,151.35992 333.57679,146.67392 366.32209,146.39628 404.91701,135.12959 432.881,157.833 z"
     id="path2995"
     inkscape:connector-curvature="0" />
  <path
     style="fill:#ffffff"
     d="M 268.418,211.364 C 274.11955,240.72315 233.60733,272.49109 216.13854,238.38479 202.8712,215.38954 208.23852,173.49145 238.909,168.894 259.58655,170.0366 268.53104,193.6385 268.418,211.364 z M 426.745,211.364 C 432.44653,240.72392 391.93317,272.49084 374.46395,238.38479 361.19551,215.38946 366.56432,173.49113 397.235,168.894 417.91256,170.03662 426.85807,193.63818 426.745,211.364 z"
     id="path2997"
     inkscape:connector-curvature="0" />
  <path
     style="fill:#d38d5f"
     d="M 258.962,211.901 C 263.37626,251.92376 208.91014,242.40119 220.01581,206.1918 224.19549,172.12009 260.61391,180.27437 258.962,211.901 z M 417.271,211.901 C 421.68576,251.92392 367.21941,242.40102 378.32481,206.1918 382.50315,172.12115 418.92553,180.27282 417.271,211.901 z"
     id="path2999"
     inkscape:connector-curvature="0" />
  <path
     style="fill:#d38d5f"
     d="M 323.41501,249.089 C 305.19586,277.53632 305.03978,221.27096 323.41501,249.089 z"
     id="circle3001"
     inkscape:connector-curvature="0" />
  <path
     style="fill:#d38d5f"
     d="M 298.816,267.751 C 303.42774,263.40764 323.40341,287.45026 329.8195,264.8185 343.19491,277.27978 300.29336,288.40691 298.816,267.751 z"
     id="path3003"
     inkscape:connector-curvature="0" />
  <path
     style="fill:#afe9dd"
     d="M 135.194,301.501 C 122.28546,316.0461 122.38373,286.94243 135.194,301.501 z"
     id="path3016" />
  <path
     style="fill:#afe9dd"
     d="M 149.445,309.415 C 136.53565,323.95932 136.63516,294.855 149.445,309.415 z"
     id="path3014" />
  <path
     style="fill:#afe9dd"
     d="M 158.152,319.71 C 145.24483,334.25258 145.34022,305.15233 158.152,319.71 z"
     id="path3012" />
  <path
     style="fill:#afe9dd"
     d="M 166.066,331.58 C 153.16072,346.12629 153.25246,317.01944 166.066,331.58 z"
     id="path3010" />
  <path
     style="fill:#afe9dd"
     d="M 174.765,342.663 C 161.85633,357.20702 161.95483,328.10307 174.765,342.663 z"
     id="path3008" />
  <path
     style="fill:#afe9dd"
     d="M 186.652,352.152 C 173.74251,366.69721 173.8426,337.59291 186.652,352.152 z"
     id="path3006" />
  <path
     style="fill:#afe9dd"
     d="M 203.268,358.49 C 190.35851,373.03521 190.4586,343.93091 203.268,358.49 z"
     id="path3004" />
  <path
     style="fill:#afe9dd"
     d="M 219.816,358.49 C 206.90651,373.03521 207.0066,343.93091 219.816,358.49 z"
     id="path3002" />
  <path
     style="fill:#afe9dd"
     d="M 236.599,355.741 C 223.68861,370.28461 223.79041,341.18041 236.599,355.741 z"
     id="path3005" />
  <path
     style="fill:#00ffff"
     d="M 116.295,312.064 C 107.27844,322.07393 115.33307,350.85855 120.8541,327.95598 119.3344,322.65866 117.8147,317.36133 116.295,312.064 z"
     id="path3007"
     inkscape:connector-curvature="0" />
</svg>
