<?xml version="1.0" encoding="UTF-8" standalone="no"?>
<!-- Created with Inkscape (http://www.inkscape.org/) -->

<svg
   xmlns:dc="http://purl.org/dc/elements/1.1/"
   xmlns:cc="http://creativecommons.org/ns#"
   xmlns:rdf="http://www.w3.org/1999/02/22-rdf-syntax-ns#"
   xmlns:svg="http://www.w3.org/2000/svg"
   xmlns="http://www.w3.org/2000/svg"
   xmlns:sodipodi="http://sodipodi.sourceforge.net/DTD/sodipodi-0.dtd"
   xmlns:inkscape="http://www.inkscape.org/namespaces/inkscape"
   version="1.0"
   width="390"
   height="390"
   id="svg3017"
   inkscape:version="0.48.4 r9943 custom"
   sodipodi:docname="logo_inkscape.svg">
  <metadata
     id="metadata3030">
    <rdf:RDF>
      <cc:Work
         rdf:about="">
        <dc:format>image/svg+xml</dc:format>
        <dc:type
           rdf:resource="http://purl.org/dc/dcmitype/StillImage" />
      </cc:Work>
    </rdf:RDF>
  </metadata>
  <defs
     id="defs3028" />
  <sodipodi:namedview
     pagecolor="#ffffff"
     bordercolor="#666666"
     borderopacity="1"
     objecttolerance="10"
     gridtolerance="10"
     guidetolerance="10"
     inkscape:pageopacity="0"
     inkscape:pageshadow="2"
     inkscape:window-width="1863"
     inkscape:window-height="1035"
     id="namedview3026"
     showgrid="false"
     inkscape:zoom="1.711561"
     inkscape:cx="57.477803"
     inkscape:cy="182.85802"
     inkscape:window-x="57"
     inkscape:window-y="23"
     inkscape:window-maximized="0"
     inkscape:current-layer="svg3017" />
  <path
     style="fill:#000000;stroke:none"
     d="M 163.15,27.83 C 115.34845,78.143456 64.682911,125.73541 18.757719,177.82295 1.332761,226.90367 75.51325,212.24174 89.614717,237.32213 50.5149,249.12997 61.637574,280.22346 97.521077,280.47052 132.99025,281.22926 141.8887,306.7619 134.0299,334.61862 166.24608,353.98934 209.89356,401.76108 240.88246,352.22189 211.64559,306.98716 333.44252,319.18895 285.21555,277.69286 248.41518,238.27154 340.23538,244.62524 359.65864,222.64243 403.19427,190.41312 345.59154,152.92538 322.76224,128.89802 285.87756,91.69486 251.87225,49.987142 210.15857,18.556441 194.48264,12.552566 174.9896,15.417125 163.15,27.83 z"
     id="path3766" />
  <path
     style="fill:#000000;stroke:none"
     d="M 317.46,292.81 C 339.16277,322.09526 388.69017,270.77241 335.42718,276.92587 327.35874,278.69578 319.41613,284.32727 317.46,292.81 z"
     id="path3764" />
  <path
     style="fill:#000000;stroke:none"
     d="M 91.1,329.05 C 124.02216,352.37006 127.73011,277.68546 91.119285,312.57065 85.920288,316.4612 84.70472,325.74306 91.1,329.05 z"
     id="path3762" />
  <path
     style="fill:#000000;stroke:none"
     d="M 311.16,306.82 C 286.88861,330.78786 353.99437,323.62391 314.69332,307.86868 L 312.25347,307.14454 311.16,306.82 z"
     id="path3020" />
  <path
     style="fill:#ffffff;stroke:none"
     d="M 131,238.6 C 145.52923,244.20034 223.35674,254.34267 180.29862,261.08971 162.25949,258.46985 144.78112,250.53729 131,238.6 z"
     id="path3022"
     inkscape:connector-curvature="0" />
  <path
     style="fill:#ffffff;stroke:none"
     d="M 216.63,37.47 C 228.66063,52.670934 285.29362,96.603534 260.02147,97.766821 234.96337,81.129677 247.39052,134.64693 224.39518,109.95845 200.0193,122.45767 174.7115,134.57089 175.00433,98.142884 173.25979,69.510001 163.26697,99.310787 156.01684,109.68139 128.56104,141.28972 98.277738,82.779101 139.9128,71.637049 158.35286,51.834071 186.68692,11.203472 216.63,37.47 z"
     id="path3024"
     inkscape:connector-curvature="0" />
</svg>
