<?xml version="1.0" encoding="UTF-8" standalone="no"?>
<!-- Created with Inkscape (http://www.inkscape.org/) -->

<svg
   xmlns:dc="http://purl.org/dc/elements/1.1/"
   xmlns:cc="http://creativecommons.org/ns#"
   xmlns:rdf="http://www.w3.org/1999/02/22-rdf-syntax-ns#"
   xmlns:svg="http://www.w3.org/2000/svg"
   xmlns="http://www.w3.org/2000/svg"
   xmlns:xlink="http://www.w3.org/1999/xlink"
   xmlns:sodipodi="http://sodipodi.sourceforge.net/DTD/sodipodi-0.dtd"
   xmlns:inkscape="http://www.inkscape.org/namespaces/inkscape"
   width="744.09448819"
   height="1052.3622047"
   id="svg4042"
   version="1.1"
   inkscape:version="0.48.4 r9943 custom"
   sodipodi:docname="title.svg"
   inkscape:export-filename="/Users/monty/Desktop/derelict.png"
   inkscape:export-xdpi="90"
   inkscape:export-ydpi="90">
  <sodipodi:namedview
     id="base"
     pagecolor="#ffffff"
     bordercolor="#666666"
     borderopacity="1.0"
     inkscape:pageopacity="0.0"
     inkscape:pageshadow="2"
     inkscape:zoom="0.7"
     inkscape:cx="-256.61497"
     inkscape:cy="378.78567"
     inkscape:document-units="px"
     inkscape:current-layer="layer1"
     showgrid="false"
     inkscape:window-width="1860"
     inkscape:window-height="1036"
     inkscape:window-x="60"
     inkscape:window-y="22"
     inkscape:window-maximized="0"
     showguides="true"
     inkscape:guide-bbox="true" />
  <defs
     id="defs4044">
    <linearGradient
       id="linearGradient4249">
      <stop
         id="stop4251"
         offset="0"
         style="stop-color:#803300;stop-opacity:1;" />
      <stop
         id="stop4253"
         offset="1"
         style="stop-color:#00ff00;stop-opacity:1;" />
    </linearGradient>
    <linearGradient
       id="linearGradient4161">
      <stop
         style="stop-color:#008080;stop-opacity:1;"
         offset="0"
         id="stop4163" />
      <stop
         style="stop-color:#000000;stop-opacity:1;"
         offset="1"
         id="stop4165" />
    </linearGradient>
    <inkscape:perspective
       sodipodi:type="inkscape:persp3d"
       inkscape:vp_x="0 : 526.18109 : 1"
       inkscape:vp_y="0 : 1000 : 0"
       inkscape:vp_z="744.09448 : 526.18109 : 1"
       inkscape:persp3d-origin="372.04724 : 350.78739 : 1"
       id="perspective4070" />
    <linearGradient
       inkscape:collect="always"
       xlink:href="#linearGradient4161"
       id="linearGradient4167"
       x1="44.446712"
       y1="712.95093"
       x2="234.35539"
       y2="712.95093"
       gradientUnits="userSpaceOnUse" />
    <linearGradient
       spreadMethod="pad"
       gradientTransform="translate(0,2)"
       gradientUnits="userSpaceOnUse"
       y2="373.15585"
       x2="272.74118"
       y1="334.77005"
       x1="156.02834"
       id="linearGradient4255"
       xlink:href="#linearGradient4249"
       inkscape:collect="always" />
  </defs>
  <metadata
     id="metadata4047">
    <rdf:RDF>
      <cc:Work
         rdf:about="">
        <dc:format>image/svg+xml</dc:format>
        <dc:type
           rdf:resource="http://purl.org/dc/dcmitype/StillImage" />
        <dc:title />
      </cc:Work>
    </rdf:RDF>
  </metadata>
  <g
     inkscape:label="Layer 1"
     inkscape:groupmode="layer"
     id="layer1">
    <path
       style="fill:#445500;stroke:none"
       d="M331.50089 421.90735L343.14382 500.82045L587.64511 491.76486L578.58951 434.84391L331.50089 421.90735"
       id="path4120"
       inkscape:connector-curvature="0" />
    <path
       style="fill:#504416;stroke:none"
       d="M455.69203 269.25573L455.69203 427.08198L552.71635 462.01072L607.04997 258.90648L455.69203 269.25573"
       id="path4118"
       inkscape:connector-curvature="0" />
    <path
       style="fill:#88aa00;stroke:none"
       d="M450.0769 479.64783L679.49479 485.29657L683.37577 1045.4504L265.52436 1041.5694L347.25596 476.99858L352.84971 477.62753"
       id="path4112"
       inkscape:connector-curvature="0"
       sodipodi:nodetypes="cccccc" />
    <path
       style="opacity:0.21100919000000001;fill:#000000;fill-opacity:1;stroke:none"
       d="M352.54324 477.58538L326.21799 626.61352L596.59225 482.15645L352.54324 477.58538"
       id="path3789"
       inkscape:connector-curvature="0"
       sodipodi:nodetypes="cccc" />
    <path
       style="fill:#552200;stroke:none"
       d="M376.77892 441.31221L510.02565 445.19318L493.20811 390.85956L497.08907 297.7162L361.25502 264.08111L354.78673 452.95512L376.77892 441.31221"
       id="path4116"
       inkscape:connector-curvature="0" />
    <path
       sodipodi:nodetypes="ccccccc"
       style="fill:#b7c8b7;stroke:none"
       d="M388.42182 287.36695L529.43051 309.35914L684.66944 313.24011L743.92035 290.23778L744.27059 173.92334L414.6762 146.59209L385.39136 286.3568"
       id="path4108"
       inkscape:connector-curvature="0" />
    <path
       style="opacity:0.16513762000000001;fill:#000000;fill-opacity:1;stroke:none;stroke-width:1px;stroke-linecap:butt;stroke-linejoin:miter;stroke-opacity:1"
       d="M414.05793 148.4109L387.89858 287.6767L604.07122 320.00159L611.77364 178.95905L414.05793 148.4109"
       id="path3787"
       inkscape:connector-curvature="0"
       sodipodi:nodetypes="ccccc" />
    <path
       style="fill:#8a916f;stroke:none"
       d="M401.79339 146.35827L612.16811 178.6997L744.29915 174.12546L744.15927 0.17949857L652.79588 -0.00870513L435.01045 124.36608C435.01045 124.36608 401.79339 146.35827 401.79339 146.35827Z"
       id="path4110"
       inkscape:connector-curvature="0"
       sodipodi:nodetypes="ccccccc" />
    <path
       style="fill:#c4c8b7;stroke:none"
       d="M 222.68359,825.86691 221.3914,914.25887 205.70023,891.05089 1.5315357,913.2202 1.5697357,1.3223571 572.5254,0.05366642 361.19306,124.17044"
       id="path4104"
       inkscape:connector-curvature="0"
       sodipodi:nodetypes="ccccccc" />
    <path
       style="fill:#6c6753;stroke:none"
       d="M506.14467 480.12194L533.31148 308.06547L682.08212 299.00986L680.78846 493.05852L530.72418 500.82045L506.14467 480.12194"
       id="path4114"
       inkscape:connector-curvature="0" />
    <path
       style="fill:#917c6f;stroke:none"
       d="M 219.64153,913.20461 298.32202,1052.8001 357.37405,1040.2757 220.61178,824.18717 211.0701,888.9189"
       id="path4124"
       inkscape:connector-curvature="0"
       sodipodi:nodetypes="ccccc" />
    <path
       style="fill:#bcd35f;stroke:none"
       d="M220.65192 824.32264L356.08039 826.82219L469.92227 1045.4504L348.31845 1040.9225L220.65192 824.32264"
       id="path4126"
       inkscape:connector-curvature="0"
       sodipodi:nodetypes="ccccc" />
    <path
       style="fill:#cdde87;stroke:none"
       d="M 1.6181947,907.02897 208.17094,891.42186 298.71631,1052.326 0.0720003,1052.202 0.2292349,907.02897"
       id="path4128"
       inkscape:connector-curvature="0"
       sodipodi:nodetypes="ccccc" />
    <path
       style="opacity:0.56422017000000002;fill:#554400;stroke:none"
       d="M383.2472 392.15321L493.20811 393.44688L511.3193 443.89951L379.36622 442.60586L383.2472 392.15321"
       id="path4640"
       inkscape:connector-curvature="0"
       sodipodi:nodetypes="ccccc" />
    <path
       style="fill:#550000;stroke:none"
       d="M 406.37827,776.36954 C 312.42818,850.73001 297.22008,942.47499 264.73578,1052.8001 L 744.69226,1052.9289 744.23842,733.26906 524.26887,717.86754 z"
       id="path4660"
       inkscape:connector-curvature="0"
       sodipodi:nodetypes="cccccc" />
    <path
       style="fill:#2b0000;stroke:none"
       d="M 441.30646,870.4335 C 529.65855,882.70164 655.87621,890.20269 744.23371,882.18173 L 744.42543,1052.6763 406.97619,1053.0526 C 441.33466,999.44508 418.45189,930.46017 441.30646,870.4335 z"
       id="path4662"
       inkscape:connector-curvature="0"
       sodipodi:nodetypes="ccccc" />
    <path
       style="fill:#aa0000;stroke:none"
       d="M456.20948 484.00292L448.31657 690.63295L535.12261 797.06807L729.80021 748.35221L744.10786 725.17717L744.45748 804.33423L535.12261 837.17145L444.56657 731.09151L447.15388 693.57544L456.20948 484.00292"
       id="path4652"
       inkscape:connector-curvature="0"
       sodipodi:nodetypes="cccccccccc" />
    <path
       style="fill:#554400;stroke:none"
       d="M448.44756 690.98813L483.3763 560.3287L744.49974 556.35003L744.10784 732.03733L729.17125 749.20272L531.24164 800.94902L448.44756 690.98813"
       id="path4656"
       inkscape:connector-curvature="0"
       sodipodi:nodetypes="ccccccc" />
    <path
       style="fill:#aa0000;stroke:none"
       d="M 744.02803,290.36404 C 642.70257,262.99496 575.18368,288.55743 480.78899,322.2957 L 447.15388,493.05852 496.31288,591.3765 632.14694,613.36867 744.37346,559.82124 744.02803,290.36404"
       id="path4650"
       inkscape:connector-curvature="0"
       sodipodi:nodetypes="ccccccc" />
    <path
       style="opacity:0.25688075999999999;fill:#d4aa00;stroke:none"
       d="M453.73817 538.56429L447.15389 689.69447L533.82897 798.36172L722.0025 748.63573L745.10252 724.85309L742.98452 560.6122L630.85328 609.4877L497.60654 587.49552L455.01355 508.49431"
       id="path4654"
       inkscape:connector-curvature="0"
       sodipodi:nodetypes="ccccccccc" />
    <path
       style="fill:#2b2200;stroke:none"
       d="M 689.906,670.41348 C 699.0525,695.6115 697.60127,709.4484 708.88652,723.28986 653.7799,793.15533 627.71435,750.06353 579.88316,753.71263 L 575.70262,733.42267 635.51044,690.98814 z"
       id="path4692"
       inkscape:connector-curvature="0"
       sodipodi:nodetypes="cccccc" />
    <path
       style="fill:#554400;stroke:none"
       d="M 525.54954,595.25747 C 522.04889,647.24935 538.14988,691.73199 554.01001,740.14712 L 600.58169,747.90907 C 691.36189,700.56566 700.8839,664.03983 720.95379,570.32773 L 632.98506,612.86359 525.54954,595.25747"
       id="path4664"
       inkscape:connector-curvature="0"
       sodipodi:nodetypes="cccccc" />
    <path
       style="opacity:0.22477063999999999;fill:#93ac93;stroke:none"
       d="M 491.91445,326.17667 C 577.05,309.12944 675.90633,276.77521 741.39497,345.99851 L 742.50282,296.92763 C 626.48426,268.6196 579.42562,297.11212 491.91445,326.17667"
       id="path4672"
       inkscape:connector-curvature="0"
       sodipodi:nodetypes="cccc" />
    <path
       style="opacity:0.21559634000000000;fill:#aad400;stroke:none"
       d="M 454.39836,485.29657 502.2637,570.67797 510.96427,391.33847 C 493.5095,374.61199 493.45759,351.70947 489.32713,331.3513 L 454.39836,485.29657"
       id="path4674"
       inkscape:connector-curvature="0"
       sodipodi:nodetypes="ccccc" />
    <path
       style="opacity:0.11009173999999999;fill:#ffdd55;stroke:none"
       d="M 637.93812,592.16508 674.60367,403.64609 C 713.02759,393.21056 722.88135,372.36585 744.6494,357.89637 L 744.45879,551.14683 637.93812,592.16508"
       id="path4676"
       inkscape:connector-curvature="0"
       sodipodi:nodetypes="ccccc" />
    <path
       style="opacity:0.06880733;fill:#aad400;stroke:none"
       d="M 495.7557,790.64343 467.77547,760.6592 C 397.86234,770.81084 372.26731,823.72244 330.36205,875.88827 375.22141,825.1164 411.27772,758.90474 495.7557,790.64343 z"
       id="path4678"
       inkscape:connector-curvature="0"
       sodipodi:nodetypes="cccc" />
    <path
       style="opacity:0.6238532;fill:#000000;stroke:#000000;stroke-width:1px;stroke-linecap:butt;stroke-linejoin:miter;stroke-opacity:1"
       d="M 469.99999,898.07647 C 472.41378,944.44483 468.66301,1002.9767 454.2857,1053.0764 L 744.99999,1053.0764 C 689.18342,1028.4412 490.50385,1044.5405 469.99999,898.07647 z"
       id="path4005"
       inkscape:connector-curvature="0"
       sodipodi:nodetypes="cccc" />
    <path
       style="fill:#808000;stroke:none"
       d="M 519.93177,1053.2432 C 588.32658,969.32228 664.87889,1012.2687 720.16519,1052.9289 L 530.79091,1053.2432"
       id="path4686"
       inkscape:connector-curvature="0"
       sodipodi:nodetypes="ccc" />
    <path
       sodipodi:nodetypes="cccc"
       style="fill:#000080;stroke:none"
       d="M 661.38359,1016.9898 701.48699,1023.4581 C 716.67322,1033.0124 719.54797,1032.6141 711.83624,1048.0377 L 661.38359,1016.9898"
       id="path4688"
       inkscape:connector-curvature="0" />
    <path
       style="fill:#0000ff;stroke:none"
       d="M 550.16001,1052.9907 C 574.06064,1035.7347 581.39635,1041.4611 606.48297,1052.9907"
       id="path4690"
       inkscape:connector-curvature="0"
       sodipodi:nodetypes="cc" />
    <path
       sodipodi:nodetypes="ccccccc"
       inkscape:connector-curvature="0"
       id="path4553"
       d="M220.59943 824.31904L296.79736 825.71433L414.85714 148.07646L655.66071 -0.00388957L572.47049 0.02303197L360.57143 124.32646L220.59943 824.31904"
       style="fill:#e3e2db;fill-opacity:1;stroke:none" />
    <path
       sodipodi:nodetypes="cccc"
       inkscape:connector-curvature="0"
       id="path3029"
       d="M 536.391,838.20984 498.06648,588.76345 444.80446,731.40602 z"
       style="opacity:0.16972477000000000;fill:#ffffff;stroke:none" />
    <path
       sodipodi:nodetypes="cccc"
       inkscape:connector-curvature="0"
       id="path3033"
       d="M 444.63299,731.55395 498.0052,589.71232 456.58895,511.93057 z"
       style="opacity:0.22477063999999999;fill:#ffffff;stroke:none" />
    <path
       sodipodi:nodetypes="cccccc"
       inkscape:connector-curvature="0"
       id="path3031"
       d="M 3.0304576,0.79339047 0.3458093,50.300743 2.864749,168.59326 358.35161,135.58563 572.75648,0.79339052 z"
       style="fill:#918a6f;stroke:none" />
    <path
       sodipodi:nodetypes="cccc"
       inkscape:connector-curvature="0"
       id="path3801"
       d="M 358.3028,135.63776 384.46428,0.39790392 574.28571,-0.49495322 z"
       style="fill:#483e37;fill-opacity:1;stroke:none" />
    <path
       inkscape:connector-curvature="0"
       id="path3803"
       d="M 414.79389,148.27566 358.35162,135.52249 572.14285,0.21933193 656.42857,0.21933193 z"
       style="fill:#ac9d93;stroke:none"
       sodipodi:nodetypes="ccccc" />
    <path
       style="opacity:0.59174314;fill:#24221c;fill-opacity:1;stroke:none"
       d="M 358.29537,135.73185 -0.62978703,71.21045 -2.8571428,2.3621896 384.28571,0.57647535 z"
       id="path3997"
       inkscape:connector-curvature="0"
       sodipodi:nodetypes="ccccc" />
    <path
       style="fill:#2b0000;stroke:none"
       d="M 426.9479,839.90274 C 489.27738,875.44079 609.34227,874.82773 744.83956,854.06591 L 744.90084,835.40347 C 639.26544,853.99977 533.52217,867.3108 426.9479,839.90274 z"
       id="path4001"
       inkscape:connector-curvature="0"
       sodipodi:nodetypes="cccc" />
    <path
       style="opacity:0.41743116;fill:#000000;stroke:none"
       d="M 572.85714,1053.0765 C 588.76755,1053.9382 588.30718,1048.7686 586.42857,1043.0765 L 602.85714,1050.2193 C 667.46746,1042.0147 662.32204,1029.9878 659.28571,1018.0765 L 697.85714,1038.0765 C 711.49378,1037.3128 708.06225,1031.6725 709.28571,1027.3622 719.04567,1031.2064 716.14845,1039.5711 712.85714,1048.0765 L 721.78571,1053.4336 z"
       id="path4007"
       inkscape:connector-curvature="0"
       sodipodi:nodetypes="ccccccccc" />
    <path
       style="opacity:0.12844037;fill:#000000;stroke:none"
       d="M 534.87577,837.45223 635.38595,610.92552 745.49257,803.86466 z"
       id="path4009"
       inkscape:connector-curvature="0"
       sodipodi:nodetypes="cccc" />
  </g>
</svg>
