<?xml version="1.0" encoding="UTF-8" standalone="no"?>
<!-- Created with Inkscape (http://www.inkscape.org/) -->
<svg
   xmlns:dc="http://purl.org/dc/elements/1.1/"
   xmlns:cc="http://creativecommons.org/ns#"
   xmlns:rdf="http://www.w3.org/1999/02/22-rdf-syntax-ns#"
   xmlns:svg="http://www.w3.org/2000/svg"
   xmlns="http://www.w3.org/2000/svg"
   xmlns:sodipodi="http://sodipodi.sourceforge.net/DTD/sodipodi-0.dtd"
   xmlns:inkscape="http://www.inkscape.org/namespaces/inkscape"
   id="svg2"
   sodipodi:version="0.32"
   inkscape:version="0.46"
   width="800"
   height="480"
   version="1.0"
   sodipodi:docname="imagemAb.svg"
   inkscape:output_extension="org.inkscape.output.svg.inkscape">
  <sodipodi:namedview
     inkscape:window-height="723"
     inkscape:window-width="1280"
     inkscape:pageshadow="2"
     inkscape:pageopacity="0.0"
     guidetolerance="10.0"
     gridtolerance="10.0"
     objecttolerance="10.0"
     borderopacity="1.0"
     bordercolor="#666666"
     pagecolor="#ffffff"
     id="base"
     showgrid="false"
     inkscape:zoom="0.51458335"
     inkscape:cx="767.7382"
     inkscape:cy="115.85084"
     inkscape:window-x="0"
     inkscape:window-y="25"
     inkscape:current-layer="svg2"
     showguides="true"
     inkscape:guide-bbox="true" />
  <metadata
     id="metadata7">
    <rdf:RDF>
      <cc:Work
         rdf:about="">
        <dc:format>image/svg+xml</dc:format>
        <dc:type
           rdf:resource="http://purl.org/dc/dcmitype/StillImage" />
      </cc:Work>
    </rdf:RDF>
  </metadata>
  <defs
     id="defs5">
    <inkscape:perspective
       id="perspective9"
       inkscape:persp3d-origin="372.04724 : 350.78739 : 1"
       inkscape:vp_z="744.09448 : 526.18109 : 1"
       inkscape:vp_y="0 : 1000 : 0"
       inkscape:vp_x="0 : 526.18109 : 1"
       sodipodi:type="inkscape:persp3d" />
  </defs>
  <rect
     y="0.22606437"
     x="0.2429143"
     height="482.6889"
     width="800.40533"
     id="rect2414"
     style="opacity:1;fill:#ffaaaa;stroke:none;stroke-opacity:1" />
  <path
     style="opacity:0.68421056;fill:#000000;fill-rule:evenodd;stroke:none;stroke-width:1px;stroke-linecap:butt;stroke-linejoin:miter;stroke-opacity:1"
     d="M 800.64775,382.03844 L -2.9149797,192.21696 L 0,383.12314 L 802.59107,409.15579 L 800.64775,382.03844 z"
     id="path3196" />
  <path
     style="opacity:0.21052629;fill:#000000;fill-rule:evenodd;stroke:none;stroke-width:1px;stroke-linecap:butt;stroke-linejoin:miter;stroke-opacity:1"
     d="M -0.97165989,193.30166 L 798.70443,382.03844 L 193.36032,-0.85859452 L -2.9149797,1.3107938 L -0.97165989,193.30166 z"
     id="path2423" />
  <path
     sodipodi:nodetypes="ccccc"
     id="path2384"
     d="M 308.01619,123.8812 L 357.74767,89.674792 L 344.93927,225.84246 L 309.95951,246.45164 L 308.01619,123.8812 z"
     style="fill:#4d4d4d;fill-rule:evenodd;stroke:none;stroke-width:1px;stroke-linecap:butt;stroke-linejoin:miter;stroke-opacity:1" />
  <path
     sodipodi:nodetypes="ccccc"
     id="path2386"
     d="M 309.27244,246.00235 L 317.38926,260.61846 L 353.62527,243.96456 L 344.93927,222.58837 L 309.27244,246.00235 z"
     style="fill:#6c5353;fill-rule:evenodd;stroke:none;stroke-width:1px;stroke-linecap:butt;stroke-linejoin:miter;stroke-opacity:1" />
  <path
     sodipodi:nodetypes="cccccc"
     id="path2388"
     d="M 356.59919,90.255683 L 344.93927,223.67307 L 353.68421,245.36695 L 495.89009,279.37596 L 493.60324,157.50673 L 356.59919,90.255683 z"
     style="fill:#1a1a1a;fill-rule:evenodd;stroke:none;stroke-width:1px;stroke-linecap:butt;stroke-linejoin:miter;stroke-opacity:1" />
  <path
     sodipodi:nodetypes="ccccc"
     id="path2390"
     d="M 317.73279,260.55267 L 352.41427,242.74427 L 496.11217,279.24038 L 457.6417,287.60423 L 317.73279,260.55267 z"
     style="fill:#000000;fill-rule:evenodd;stroke:none;stroke-width:1px;stroke-linecap:butt;stroke-linejoin:miter;stroke-opacity:1" />
  <path
     sodipodi:nodetypes="ccccc"
     id="path2392"
     d="M 490.68826,157.50673 L 549.95951,162.93019 L 574.79997,290.0368 L 495.50199,280.63035 L 490.68826,157.50673 z"
     style="fill:#1c2224;fill-rule:evenodd;stroke:none;stroke-width:1px;stroke-linecap:butt;stroke-linejoin:miter;stroke-opacity:1" />
  <path
     id="path2394"
     d="M 514.00809,141.23631 L 526.63967,260.55267 L 557.73279,247.53634 L 546.07287,139.06692 L 514.00809,141.23631 z"
     style="fill:#00ffff;fill-rule:evenodd;stroke:none;stroke-width:1px;stroke-linecap:butt;stroke-linejoin:miter;stroke-opacity:1" />
  <path
     sodipodi:nodetypes="ccccc"
     id="path2396"
     d="M 526.52179,259.66536 L 616.03239,323.46494 L 671.417,312.61799 L 556.76113,247.53634 L 526.52179,259.66536 z"
     style="fill:#000000;fill-rule:evenodd;stroke:none;stroke-width:1px;stroke-linecap:butt;stroke-linejoin:miter;stroke-opacity:1" />
  <path
     sodipodi:nodetypes="ccccc"
     id="path2398"
     d="M 546.35746,139.26431 L 652.95546,187.87816 L 671.59382,313.83428 L 557.62502,248.50073 L 546.35746,139.26431 z"
     style="fill:#1a1a1a;fill-rule:evenodd;stroke:none;stroke-width:1px;stroke-linecap:butt;stroke-linejoin:miter;stroke-opacity:1" />
  <path
     id="path2400"
     d="M 420.72874,311.5333 L 457.65182,294.17819 L 554.81781,329.9731 L 499.4332,346.24352 L 420.72874,311.5333 z"
     style="fill:#000000;fill-rule:evenodd;stroke:none;stroke-width:1px;stroke-linecap:butt;stroke-linejoin:miter;stroke-opacity:1" />
  <path
     sodipodi:nodetypes="ccccc"
     id="path2402"
     d="M 418.78542,278.99247 L 421.29793,312.1142 L 458.13765,294.17819 L 456.20444,287.44138 L 418.78542,278.99247 z"
     style="fill:#00ffff;fill-rule:evenodd;stroke:none;stroke-width:1px;stroke-linecap:butt;stroke-linejoin:miter;stroke-opacity:1" />
  <path
     id="path2404"
     d="M 311.90283,131.47406 L 344.93927,109.78018 L 339.10931,188.96286 L 314.81781,200.89449 L 311.90283,131.47406 z"
     style="fill:#ac9393;fill-rule:evenodd;stroke:none;stroke-width:1px;stroke-linecap:butt;stroke-linejoin:miter;stroke-opacity:1" />
  <path
     id="path2406"
     d="M 362.42915,106.52609 L 487.77328,165.09958 L 484.8583,218.24959 L 362.42915,184.62408 L 362.42915,106.52609 z"
     style="fill:#483737;fill-rule:evenodd;stroke:none;stroke-width:1px;stroke-linecap:butt;stroke-linejoin:miter;stroke-opacity:1" />
  <path
     sodipodi:nodetypes="ccccccccccccccccccccc"
     id="path2410"
     d="M -2.5234818e-08,330.51545 L 103.96761,339.73534 L 128.25911,369.02209 L 160.32389,359.25984 L 205.02024,367.9374 L 254.5749,359.25984 L 295.38462,382.03842 L 326.47773,370.10679 L 347.85425,370.10679 L 367.28745,363.59862 L 418.78543,375.53025 L 424.61538,373.36086 L 441.1336,380.95372 L 615.06073,387.46189 L 650.04049,375.53025 L 692.79352,384.20781 L 777.32794,391.80066 L 801.61943,384.20781 L 801.1336,482.37263 L -0.2429143,480.74559 L -2.5234818e-08,330.51545 z"
     style="fill:#552200;fill-rule:evenodd;stroke:none;stroke-width:1px;stroke-linecap:butt;stroke-linejoin:miter;stroke-opacity:1" />
  <path
     sodipodi:nodetypes="cccccccccccccccccccccccccccccccccccccccc"
     id="path2408"
     d="M 24.048583,444.67951 L 128.25911,448.20477 L 135.06073,472.06803 L 152.55061,467.72926 L 155.46559,435.18844 L 180.72875,434.10375 L 187.53036,406.98638 L 213.76518,405.90169 L 213.76518,410.24047 L 230.2834,417.83333 L 232.22672,437.35783 L 246.80162,431.93436 L 255.54656,439.52721 L 318.70445,436.27314 L 318.70445,387.46189 L 354.65587,386.3772 L 382.83401,408.07108 L 422.67207,409.15577 L 424.61538,424.34149 L 470.2834,428.68027 L 469.31174,413.49455 L 502.34818,416.74864 L 514.0081,425.42619 L 514.97976,415.66394 L 536.35628,413.49455 L 545.10121,427.59558 L 548.01619,411.32516 L 577.16599,414.57925 L 599.51417,422.1721 L 601.45749,430.84966 L 677.24696,433.01905 L 680.16194,443.86599 L 698.62348,456.88232 L 697.65182,431.93436 L 750.12146,441.6966 L 760.80972,435.18844 L 775.38462,453.62825 L 802.10526,481.28794 L -0.48583062,482.10145 L 24.048583,444.67951 z"
     style="fill:#2b0000;fill-rule:evenodd;stroke:none;stroke-width:1px;stroke-linecap:butt;stroke-linejoin:miter;stroke-opacity:1" />
  <path
     id="path2412"
     d="M 384.77733,2.3954527 L 407.12551,51.206692 L 498.46154,72.900575 L 545.10121,124.9659 L 699.59514,173.77714 L 707.36842,225.84246 L 737.48988,252.95981 L 722.91498,275.7384 L 746.23482,293.09349 L 753.03644,302.85575 L 747.20648,315.87208 L 751.09312,328.88841 L 773.4413,340.82003 L 801.61943,351.66698 L 799.67611,-0.85862984 L 380.89069,1.3107585 L 384.77733,2.3954527 z"
     style="fill:#ff2a2a;fill-rule:evenodd;stroke:none;stroke-width:1px;stroke-linecap:butt;stroke-linejoin:miter;stroke-opacity:1" />
  <path
     sodipodi:nodetypes="cccccc"
     id="path3186"
     d="M 455.75375,287.61222 L 494.45344,279.26364 L 574.25101,289.83942 L 514.00809,315.87208 C 514.00809,315.87208 457.87111,295.09058 457.87111,295.09058 L 455.75375,287.61222 z"
     style="fill:#000000;fill-rule:evenodd;stroke:none;stroke-width:1px;stroke-linecap:butt;stroke-linejoin:miter;stroke-opacity:1" />
  <path
     style="fill:#1c2224;fill-rule:evenodd;stroke:none;stroke-width:1px;stroke-linecap:butt;stroke-linejoin:miter;stroke-opacity:1"
     d="M 547.21124,300.22223 L 554.53148,330.68752 L 514.39634,315.52862 L 547.21124,300.22223 z"
     id="path3166"
     sodipodi:nodetypes="cccc" />
  <path
     style="fill:#a02c2c;fill-rule:evenodd;stroke:none;stroke-width:1px;stroke-linecap:butt;stroke-linejoin:miter;stroke-opacity:1"
     d="M 382.834,-1.9432887 L 407.12549,50.122031 L 503.31982,73.985302 L 545.1012,122.79654 L 699.59512,173.77716 L 707.3684,225.84249 L 741.37649,255.12922 L 725.82994,277.90781 L 749.14977,296.3476 L 754.97973,302.85577 L 749.14977,314.7874 L 753.03641,329.97312 L 803.56273,353.83639 L 802.59107,341.90477 L 747.20645,320.21088 L 746.23479,316.95679 L 755.95139,303.94046 L 744.29147,283.33127 L 737.48985,275.73842 L 730.68824,270.31494 L 740.40483,249.70576 L 729.71658,230.18127 L 712.2267,206.31799 L 703.48176,198.72513 L 698.62346,171.60777 L 684.04856,135.81287 L 529.55464,93.509797 L 498.46152,28.428147 L 392.55059,23.004678 L 382.834,-1.9432887 z"
     id="path3198" />
</svg>
