<?xml version="1.0" encoding="UTF-8" standalone="no"?>
<!-- Created with Inkscape (http://www.inkscape.org/) -->

<svg
   width="128"
   height="128"
   viewBox="0 0 33.866666 33.866666"
   version="1.1"
   id="svg1"
   inkscape:version="1.3.2 (091e20e, 2023-11-25)"
   sodipodi:docname="logo.svg"
   xmlns:inkscape="http://www.inkscape.org/namespaces/inkscape"
   xmlns:sodipodi="http://sodipodi.sourceforge.net/DTD/sodipodi-0.dtd"
   xmlns="http://www.w3.org/2000/svg"
   xmlns:svg="http://www.w3.org/2000/svg">
  <sodipodi:namedview
     id="namedview1"
     pagecolor="#ffffff"
     bordercolor="#000000"
     borderopacity="0.25"
     inkscape:showpageshadow="2"
     inkscape:pageopacity="0.0"
     inkscape:pagecheckerboard="0"
     inkscape:deskcolor="#d1d1d1"
     inkscape:document-units="mm"
     inkscape:zoom="1.3275875"
     inkscape:cx="172.86996"
     inkscape:cy="152.53232"
     inkscape:window-width="1440"
     inkscape:window-height="872"
     inkscape:window-x="0"
     inkscape:window-y="28"
     inkscape:window-maximized="0"
     inkscape:current-layer="layer1" />
  <defs
     id="defs1" />
  <g
     inkscape:label="Layer 1"
     inkscape:groupmode="layer"
     id="layer1">
    <path
       style="fill:#808000;stroke:none;stroke-width:0.59131"
       d="M 11.752 0.663534 L 0.922807 0.399401 L 0.658663 12.8135 L 10.9597 5.68196 L 0.394531 14.3982 L 13.3368 13.87 L 13.3368 2.51241 L 3.82824 4.62546 Z"
       id="path1" />
    <path
       style="fill:#808000;stroke:none;stroke-width:0.59131"
       d="M 16.5064 1.19178 L 16.2422 14.1341 L 28.6565 14.1341 L 28.128 0.663534 L 21.789 9.11563 Z"
       id="path2" />
    <path
       style="fill:#808000;stroke:none;stroke-width:0.59131"
       d="M 66.1422 37.3299 L 65.8784 50.2722 L 78.2922 50.2722 L 77.7637 36.8014 L 71.425 45.2535 Z"
       id="path2-3" />
    <path
       style="fill:#808000;stroke:none;stroke-width:0.59131"
       d="M 31.5617 2.24827 L 31.2974 13.6057 L 37.9007 9.64391 L 33.9388 6.47439 L 37.3725 4.0972 Z"
       id="path3" />
    <path
       style="fill:#808000;stroke:none;stroke-width:0.59131"
       d="M 1.18694 17.5678 L 6.99776 24.9636 L 13.0727 18.3602 L 13.601 31.0385 L 9.63903 30.2458 L 9.63903 25.7557 L 6.20537 29.1894 L 3.5641 26.0199 L 3.5641 29.9817 L 0.130429 30.2458 Z"
       id="path4" />
    <path
       style="fill:#808000;stroke:none;stroke-width:0.59131"
       d="M 81.3478 37.3315 L 87.1585 44.7273 L 93.2334 38.1239 L 93.7619 50.8021 L 89.7999 50.0098 L 89.7999 45.5199 L 86.3662 48.9531 L 83.7248 45.7837 L 83.7248 49.7457 L 80.2916 50.0098 Z"
       id="path4-8" />
    <path
       style="fill:#808000;stroke:none;stroke-width:0.59131"
       d="M 9.71403 35.1571 L 15.5248 42.5528 L 21.5998 35.9497 L 22.128 48.6277 L 18.1661 47.8354 L 18.1661 43.3455 L 14.7324 46.7789 L 12.0912 43.6093 L 12.0912 47.5713 L 8.65747 47.8354 Z"
       id="path4-9" />
    <path
       style="fill:#808000;stroke:none;stroke-width:0.59131"
       d="M 16.7706 30.7741 L 16.5064 19.1526 L 27.3356 19.4167 L 27.3356 32.359 L 21.2608 27.3406 Z"
       id="path5" />
    <path
       style="fill:#808000;stroke:none;stroke-width:0.59131"
       d="M 32.09 31.3023 L 31.5617 17.8319 L 42.9194 22.8503 L 36.5802 24.9636 L 41.5986 32.0949 Z"
       id="path6" />
    <path
       style="fill:#808000;stroke:none;stroke-width:0.59131"
       d="M 46.1862 48.4265 L 45.658 34.9562 L 57.0154 39.9743 L 50.6764 42.0875 L 55.6948 49.2191 Z"
       id="path6-0" />
    <path
       style="fill:#808000;stroke:none;stroke-width:0.59131"
       d="M 51.8996 32.6231 L 44.24 32.6231 L 43.9759 17.8319 L 54.541 18.0959 L 49.2582 22.3221 L 52.6919 24.9636 L 48.7302 26.8125 Z"
       id="path7" />
    <path
       style="fill:#808000;stroke:none;stroke-width:0.59131"
       d="M 42.6061 50.39 L 34.9465 50.39 L 34.6824 35.5985 L 45.2475 35.8626 L 39.9647 40.0887 L 43.3987 42.7301 L 39.4367 44.5789 Z"
       id="path7-7" />
    <path
       style="fill:#808000;stroke:none;stroke-width:0.59131"
       d="M 0.658663 46.3578 L 3.29996 35.0002"
       id="path8" />
    <path
       style="fill:#808000;stroke:none;stroke-width:0.59131"
       d="M 1.71517 46.8861 L 4.09235 34.4719 L 8.05427 47.6784 Z"
       id="path9" />
    <path
       style="fill:#808000;stroke:none;stroke-width:0.59131"
       d="M 57.8244 49.739 L 60.202 37.3248 L 64.1637 50.5313 Z"
       id="path9-9" />
    <path
       style="fill:#808000;stroke:none;stroke-width:0.59131"
       d="M 25.2227 46.622 L 24.9586 35.0002 L 33.1464 40.8109 L 27.5998 42.9241 Z"
       id="path10" />
  </g>
</svg>
