<?xml version="1.0" encoding="UTF-8" standalone="no"?>
<!-- Created with Inkscape (http://www.inkscape.org/) -->

<svg
   width="128"
   height="128"
   viewBox="0 0 33.866666 33.866666"
   version="1.1"
   id="svg1"
   inkscape:version="1.3.2 (091e20e, 2023-11-25)"
   sodipodi:docname="logo.svg"
   xmlns:inkscape="http://www.inkscape.org/namespaces/inkscape"
   xmlns:sodipodi="http://sodipodi.sourceforge.net/DTD/sodipodi-0.dtd"
   xmlns="http://www.w3.org/2000/svg"
   xmlns:svg="http://www.w3.org/2000/svg">
  <sodipodi:namedview
     id="namedview1"
     pagecolor="#ffffff"
     bordercolor="#000000"
     borderopacity="0.25"
     inkscape:showpageshadow="2"
     inkscape:pageopacity="0.0"
     inkscape:pagecheckerboard="0"
     inkscape:deskcolor="#d1d1d1"
     inkscape:document-units="mm"
     inkscape:zoom="1.3275875"
     inkscape:cx="242.54522"
     inkscape:cy="51.597352"
     inkscape:window-width="1440"
     inkscape:window-height="872"
     inkscape:window-x="0"
     inkscape:window-y="28"
     inkscape:window-maximized="0"
     inkscape:current-layer="layer1" />
  <defs
     id="defs1" />
  <g
     inkscape:label="Layer 1"
     inkscape:groupmode="layer"
     id="layer1">
    <text
       xml:space="preserve"
       style="font-size:14.1111px;font-family:Silom;-inkscape-font-specification:'Silom, Normal';opacity:0.705263;fill:#0000ff;stroke-width:0.264583"
       x="67.76075"
       y="-33.083195"
       id="text1"><tspan
         sodipodi:role="line"
         id="tspan1"
         style="stroke-width:0.264583"
         x="67.76075"
         y="-33.083195" /></text>
    <path
       style="font-size:14.1111px;font-family:Blaec;-inkscape-font-specification:'Blaec, Normal';opacity:0.705263;fill:#808000;stroke-width:0.264583"
       d="M 6.93924 11.2722 L 0.73814 11.2722 L 0.73814 9.20519 L 2.80514 9.20519 L 2.80514 7.13809 L 0.73814 7.13809 L 0.73814 3.00399 L 2.80514 0.93699 L 9.00634 0.93699 L 9.00634 3.00399 L 6.93924 3.00399 L 6.93924 5.07109 L 9.00634 5.07109 L 9.00634 9.20519 Z M 11.0733 9.20519 L 11.0733 0.93699 L 15.2075 0.93699 L 15.2075 3.00399 L 17.2745 3.00399 L 17.2745 0.93699 L 21.4086 0.93699 L 21.4086 9.20519 L 19.3416 11.2722 L 13.1404 11.2722 Z M 29.6768 11.2722 L 23.4757 11.2722 L 23.4757 0.93699 L 29.6768 0.93699 L 31.7443 3.00399 L 31.7443 4.03749 L 29.6768 6.10459 L 31.7443 8.17169 L 31.7443 9.20519 Z"
       id="path11" />
    <path
       style="font-size:14.1111px;font-family:Blaec;-inkscape-font-specification:'Blaec, Normal';opacity:0.705263;fill:#808000;stroke-width:0.264583"
       d="M 6.93924 29.4492 L 6.93924 27.3822 L 4.87224 27.3822 L 4.87224 29.4492 L 0.73814 29.4492 L 0.73814 19.1139 L 3.83864 19.1139 L 5.90574 21.181 L 7.97284 19.1139 L 11.0733 19.1139 L 11.0733 29.4492 Z M 17.2745 29.4492 L 13.1404 29.4492 L 13.1404 21.181 L 15.2074 19.1139 L 21.4086 19.1139 L 23.4757 21.181 L 23.4757 29.4492 L 19.3416 29.4492 L 19.3416 27.3822 L 17.2745 27.3822 Z M 29.6768 29.4492 L 25.5427 29.4492 L 25.5427 19.1139 L 33.8113 19.1139 L 35.8783 21.181 L 35.8783 23.2481 L 33.8113 25.3151 L 35.8783 27.3822 L 35.8783 29.4492 L 31.7443 29.4492 L 31.7443 27.3822 L 29.6768 27.3822 Z M 46.2133 29.4492 L 37.9453 29.4492 L 37.9453 19.1139 L 46.2133 19.1139 L 46.2133 21.181 L 44.1463 21.181 L 44.1463 23.2481 L 46.2133 23.2481 L 46.2133 25.3151 L 44.1463 25.3151 L 44.1463 27.3822 L 46.2133 27.3822 Z"
       id="path12" />
    <path
       style="font-size:14.1111px;font-family:Blaec;-inkscape-font-specification:'Blaec, Normal';opacity:0.705263;fill:#808000;stroke-width:0.264583"
       d="M 4.87224 47.6262 L 0.73814 47.6262 L 0.73814 37.2909 L 4.87224 37.2909 Z M 13.1404 47.6262 L 13.1404 45.5591 L 11.0733 45.5591 L 11.0733 47.6262 L 6.93924 47.6262 L 6.93924 37.2909 L 10.0398 37.2909 L 12.1069 39.358 L 14.1739 37.2909 L 17.2745 37.2909 L 17.2745 47.6262 Z M 23.4757 47.6262 L 19.3416 47.6262 L 19.3416 37.2909 L 25.5427 37.2909 L 27.6098 39.358 L 27.6098 43.4921 L 25.5427 45.5591 L 23.4757 45.5591 Z M 37.9453 47.6262 L 29.6768 47.6262 L 29.6768 37.2909 L 37.9453 37.2909 L 37.9453 39.358 L 35.8783 39.358 L 35.8783 41.425 L 37.9453 41.425 L 37.9453 43.4921 L 35.8783 43.4921 L 35.8783 45.5591 L 37.9453 45.5591 Z M 44.1463 47.6262 L 40.0123 47.6262 L 40.0123 37.2909 L 48.2803 37.2909 L 50.3473 39.358 L 50.3473 41.425 L 48.2803 43.4921 L 50.3473 45.5591 L 50.3473 47.6262 L 46.2133 47.6262 L 46.2133 45.5591 L 44.1463 45.5591 Z M 56.5483 47.6262 L 52.4143 47.6262 L 52.4143 37.2909 L 56.5483 37.2909 Z M 58.6153 45.5591 L 58.6153 37.2909 L 62.7493 37.2909 L 62.7493 39.358 L 64.8163 39.358 L 64.8163 37.2909 L 68.9513 37.2909 L 68.9513 45.5591 L 66.8843 47.6262 L 60.6823 47.6262 Z M 77.2193 47.6262 L 77.2193 45.5591 L 75.1523 45.5591 L 75.1523 47.6262 L 71.0183 47.6262 L 71.0183 37.2909 L 74.1183 37.2909 L 76.1853 39.358 L 78.2523 37.2909 L 81.3533 37.2909 L 81.3533 47.6262 Z"
       id="path13" />
  </g>
</svg>
