<?xml version="1.0" encoding="UTF-8" standalone="no"?>
<!-- Created with Inkscape (http://www.inkscape.org/) -->

<svg
   xmlns:dc="http://purl.org/dc/elements/1.1/"
   xmlns:cc="http://creativecommons.org/ns#"
   xmlns:rdf="http://www.w3.org/1999/02/22-rdf-syntax-ns#"
   xmlns:svg="http://www.w3.org/2000/svg"
   xmlns="http://www.w3.org/2000/svg"
   xmlns:xlink="http://www.w3.org/1999/xlink"
   xmlns:sodipodi="http://sodipodi.sourceforge.net/DTD/sodipodi-0.dtd"
   xmlns:inkscape="http://www.inkscape.org/namespaces/inkscape"
   width="744.09448819"
   height="1052.3622047"
   id="svg2"
   version="1.1"
   inkscape:version="0.48.4 r9943 custom"
   sodipodi:docname="turn.svg">
  <defs
     id="defs4">
    <linearGradient
       inkscape:collect="always"
       id="linearGradient3833">
      <stop
         style="stop-color:#ffdd55;stop-opacity:1;"
         offset="0"
         id="stop3835" />
      <stop
         style="stop-color:#ffdd55;stop-opacity:0;"
         offset="1"
         id="stop3837" />
    </linearGradient>
    <linearGradient
       inkscape:collect="always"
       id="linearGradient3825">
      <stop
         style="stop-color:#000000;stop-opacity:1;"
         offset="0"
         id="stop3827" />
      <stop
         style="stop-color:#000000;stop-opacity:0;"
         offset="1"
         id="stop3829" />
    </linearGradient>
    <linearGradient
       id="linearGradient3817">
      <stop
         style="stop-color:#000000;stop-opacity:1;"
         offset="0"
         id="stop3819" />
      <stop
         style="stop-color:#000000;stop-opacity:0;"
         offset="1"
         id="stop3821" />
    </linearGradient>
    <linearGradient
       id="linearGradient3780">
      <stop
         style="stop-color:#ff0000;stop-opacity:1;"
         offset="0"
         id="stop3782" />
      <stop
         style="stop-color:#000000;stop-opacity:1;"
         offset="1"
         id="stop3784" />
    </linearGradient>
    <linearGradient
       inkscape:collect="always"
       xlink:href="#linearGradient3825"
       id="linearGradient3831"
       x1="312.6088"
       y1="318.94754"
       x2="314.89383"
       y2="363.94754"
       gradientUnits="userSpaceOnUse"
       gradientTransform="matrix(0.1412826,0,0,0.1412826,-0.0231153,2.2466694)" />
    <linearGradient
       inkscape:collect="always"
       xlink:href="#linearGradient3833"
       id="linearGradient3839"
       x1="316.43774"
       y1="460.50812"
       x2="315.8382"
       y2="449.07956"
       gradientUnits="userSpaceOnUse"
       gradientTransform="matrix(0.1412826,0,0,0.1412826,0.229175,2.8017082)" />
  </defs>
  <sodipodi:namedview
     id="base"
     pagecolor="#ffffff"
     bordercolor="#666666"
     borderopacity="1.0"
     inkscape:pageopacity="0.0"
     inkscape:pageshadow="2"
     inkscape:zoom="5.6568542"
     inkscape:cx="41.073031"
     inkscape:cy="976.39564"
     inkscape:document-units="px"
     inkscape:current-layer="layer1"
     showgrid="false"
     inkscape:window-width="1860"
     inkscape:window-height="1036"
     inkscape:window-x="60"
     inkscape:window-y="22"
     inkscape:window-maximized="0" />
  <metadata
     id="metadata7">
    <rdf:RDF>
      <cc:Work
         rdf:about="">
        <dc:format>image/svg+xml</dc:format>
        <dc:type
           rdf:resource="http://purl.org/dc/dcmitype/StillImage" />
        <dc:title />
      </cc:Work>
    </rdf:RDF>
  </metadata>
  <g
     inkscape:label="Layer 1"
     inkscape:groupmode="layer"
     id="layer1">
    <rect
       style="opacity:0.71100913;fill:#ff0000;fill-opacity:1;fill-rule:nonzero;stroke:none"
       id="rect3116"
       width="128"
       height="128"
       x="6.3672388e-08"
       y="-0.16627032" />
    <rect
       style="fill:#800080;fill-opacity:1;fill-rule:nonzero;stroke:none"
       id="rect3792"
       width="128"
       height="128"
       x="0.12423859"
       y="0.2819607" />
    <path
       style="fill:#ffcc00;stroke:none"
       d="M -0.69578571,77.473787 127.72546,87.50898 127.77293,128.21724 0.27343105,128.20726 z"
       id="path3790"
       inkscape:connector-curvature="0"
       sodipodi:nodetypes="ccccc" />
    <path
       style="fill:#00ff00;stroke:none"
       d="M 24.748738,95.646699 C 15.53307,99.12143 7.84725,103.20441 9.899495,109.96562 L 5.8336311,110.14239 7.601398,118.27411 18.208,113.50115 13.965359,111.73338 C 14.027969,100.59762 25.91836,101.90113 34.471456,100.59645 z"
       id="path3791"
       inkscape:connector-curvature="0"
       sodipodi:nodetypes="cccccccc" />
    <path
       style="fill:#008000;stroke:none;stroke-width:1px;stroke-linecap:butt;stroke-linejoin:miter;stroke-opacity:1"
       d="M 68.412582,86.807864 78.1353,93.348602 C 82.402649,90.191329 91.779964,92.144022 100.58594,93.525379 L 106.24279,98.475129 106.59635,90.873728 92.630989,85.923981 94.575533,88.398855 C 83.819644,85.542919 75.913087,85.943361 68.412582,86.807864 z"
       id="path3793"
       inkscape:connector-curvature="0"
       sodipodi:nodetypes="cccccccc" />
    <path
       inkscape:connector-curvature="0"
       id="path3784"
       d="M 36.504387,95.085827 C 38.347627,96.994414 39.718674,97.284725 42.205435,97.501515 42.305121,86.780719 49.092029,78.453101 55.994018,74.743142 59.361192,81.270882 61.314744,88.191422 63.286068,95.212964 L 59.838918,97.882937 C 63.664838,100.11351 67.590228,99.229077 69.650018,96.484384 65.487328,87.458717 64.470949,76.78408 61.164738,67.623203 61.948512,65.26654 64.838728,65.484255 66.998368,64.953226 L 62.888308,42.321991 C 58.565432,43.034382 54.962609,42.354433 52.679455,46.136245 L 49.099726,40.669147 43.929008,42.194848 C 42.832948,46.341543 43.602271,49.149269 45.917747,52.111906 L 48.834562,51.730482 43.531261,54.400458 C 41.83958,62.079923 33.729555,68.984034 27.223612,70.928888 28.432755,72.034623 29.771755,71.930515 31.33367,72.073165 37.26307,67.393877 42.546971,65.595253 46.978406,59.867555 48.174464,63.023291 49.074057,66.064537 49.23231,69.403187 41.414528,75.69961 39.647643,85.144829 38.493126,93.814407 z"
       style="fill:#800000;stroke:none"
       sodipodi:nodetypes="ccccccccccccccccccccc" />
    <path
       style="opacity:0.57798163;fill:#000000;fill-opacity:1;stroke:none"
       d="M 88.327602,98.570218 C 90.440392,89.933542 92.989686,81.474756 93.662695,72.608145 L 90.202095,71.183399 91.499819,53.294896 C 94.372872,52.37102 96.652259,50.823232 98.997788,49.020653 L 98.565212,42.37183 C 100.68556,39.818453 102.3726,40.416808 105.48641,40.63047 L 106.06318,49.337264 104.47707,50.12879 C 107.55807,61.429764 106.92814,62.09248 115.43563,68.650513 L 116.73336,71.341703 114.2821,71.658314 C 109.43223,70.126194 106.19825,68.372305 103.17935,64.534574 101.20982,75.429303 105.33783,87.645025 106.78414,97.14547 108.73997,97.950351 109.5968,98.179533 109.95635,100.15327 106.59439,102.04941 104.80927,101.71518 101.30486,100.78649 100.79334,94.025323 99.513096,86.903294 97.700061,81.314938 95.882311,86.44219 94.565635,91.008779 92.309166,95.963448 93.372356,95.78776 94.155587,96.215183 95.104612,96.670555 92.757573,98.567595 90.99349,99.78973 88.327602,98.570218 z"
       id="path3010"
       inkscape:connector-curvature="0"
       sodipodi:nodetypes="cccccccccccccccccccc" />
    <path
       style="opacity:0.44495413;fill:#ff0000;stroke:none"
       d="M 11.490485,120.04188 15.202796,117.03667 C 14.242068,99.496522 20.23888,88.128875 23.5113,72.312175 L 16.440233,82.565224 C 11.605196,78.130992 8.5267596,73.10224 5.6568543,67.362428 L 9.7227183,67.008875 C 10.924516,69.249333 13.188331,70.955185 14.318912,72.842506 L 20.682873,59.937807 27.577164,57.816486 25.455844,55.871943 25.986174,42.61369 33.587572,41.729807 36.946329,49.684758 37.299883,55.871943 43.663844,55.341613 C 49.303831,66.52743 49.516746,77.953966 50.381358,90.166622 L 46.315494,88.222078 44.194174,71.074739 40.65864,66.832098 C 37.104627,87.264622 44.555941,104.36417 50.381358,121.27932 L 49.674252,123.93097 42.072854,124.4613 42.603184,120.21866 C 38.836105,109.61873 34.436552,99.281507 30.052038,88.929185 22.077798,97.795974 21.132865,107.68122 18.915106,118.98122 L 12.551145,123.40064 8.4852813,122.51675 z"
       id="path3789"
       inkscape:connector-curvature="0"
       sodipodi:nodetypes="cccccccccccccccccccccccccccc" />
  </g>
</svg>
