<?xml version="1.0" encoding="UTF-8" standalone="no"?>
<!-- Created with Inkscape (http://www.inkscape.org/) -->

<svg
   xmlns:dc="http://purl.org/dc/elements/1.1/"
   xmlns:cc="http://creativecommons.org/ns#"
   xmlns:rdf="http://www.w3.org/1999/02/22-rdf-syntax-ns#"
   xmlns:svg="http://www.w3.org/2000/svg"
   xmlns="http://www.w3.org/2000/svg"
   xmlns:sodipodi="http://sodipodi.sourceforge.net/DTD/sodipodi-0.dtd"
   xmlns:inkscape="http://www.inkscape.org/namespaces/inkscape"
   width="1052.3622"
   height="744.09448"
   id="svg4042"
   version="1.1"
   inkscape:version="0.48.4 r9943 custom"
   sodipodi:docname="logo.svg"
   inkscape:export-filename="/Users/monty/Desktop/derelict.png"
   inkscape:export-xdpi="90"
   inkscape:export-ydpi="90">
  <sodipodi:namedview
     id="base"
     pagecolor="#ffffff"
     bordercolor="#666666"
     borderopacity="1.0"
     inkscape:pageopacity="0.0"
     inkscape:pageshadow="2"
     inkscape:zoom="3.959798"
     inkscape:cx="50.292973"
     inkscape:cy="723.82026"
     inkscape:document-units="px"
     inkscape:current-layer="layer1"
     showgrid="false"
     inkscape:window-width="1857"
     inkscape:window-height="1035"
     inkscape:window-x="63"
     inkscape:window-y="23"
     inkscape:window-maximized="0"
     fit-margin-top="0"
     fit-margin-left="0"
     fit-margin-right="0"
     fit-margin-bottom="0" />
  <defs
     id="defs4044">
    <inkscape:perspective
       id="perspective4070"
       inkscape:persp3d-origin="372.04724 : 350.78739 : 1"
       inkscape:vp_z="744.09448 : 526.18109 : 1"
       inkscape:vp_y="0 : 1000 : 0"
       inkscape:vp_x="0 : 526.18109 : 1"
       sodipodi:type="inkscape:persp3d" />
  </defs>
  <metadata
     id="metadata4047">
    <rdf:RDF>
      <cc:Work
         rdf:about="">
        <dc:format>image/svg+xml</dc:format>
        <dc:type
           rdf:resource="http://purl.org/dc/dcmitype/StillImage" />
        <dc:title />
      </cc:Work>
    </rdf:RDF>
  </metadata>
  <g
     id="layer1"
     inkscape:groupmode="layer"
     inkscape:label="Layer 1">
    <path
       style="font-size:59px;font-style:normal;font-variant:normal;font-weight:normal;font-stretch:normal;line-height:125%;letter-spacing:0px;word-spacing:0px;fill:#000000;fill-opacity:1;stroke:none;font-family:American Typewriter;-inkscape-font-specification:American Typewriter"
       d="M 8.1583792,13.082769 C 7.6603301,8.4755963 -3.9303767,7.979583 4.0662843,5.0461748 12.858396,6.7480924 22.539516,3.0550972 30.810111,7.4337892 38.839124,12.569272 41.357446,23.413545 38.52802,32.147108 37.319919,39.836442 29.683367,43.974556 22.373405,44.464282 15.726896,44.169012 7.1823307,45.965323 1.8543994,43.153716 4.8320344,40.250047 10.067124,36.874497 8.1583792,30.570104 8.1583792,24.740992 8.1583792,18.911881 8.1583792,13.082769 z M 13.114379,12.492769 C 13.114379,20.811769 13.114379,29.130769 13.114379,37.449769 17.447037,44.660423 31.535755,39.493425 32.484525,32.427144 36.445695,24.53151 34.203824,13.349008 25.53496,9.7121665 21.748736,9.6416567 13.577576,6.7400673 13.114379,12.492769 z"
       id="path3026"
       inkscape:connector-curvature="0" />
    <path
       style="font-size:59px;font-style:normal;font-variant:normal;font-weight:normal;font-stretch:normal;line-height:125%;letter-spacing:0px;word-spacing:0px;fill:#000000;fill-opacity:1;stroke:none;font-family:American Typewriter;-inkscape-font-specification:American Typewriter"
       d="M 71.436801,23.242769 C 70.351498,28.577717 63.380136,25.725302 59.375668,26.617577 56.266879,26.721808 53.15809,26.826038 50.049301,26.930269 49.423685,34.466834 58.679779,41.177325 64.493902,34.874722 65.328492,30.03013 72.792016,28.319102 69.521526,34.48999 66.152763,42.145386 56.263745,42.272264 49.974663,38.378712 45.217049,33.331155 43.627673,24.901678 47.163389,18.575408 49.561428,10.694534 60.749626,8.5682925 67.05061,13.599497 69.46605,15.908494 69.892833,20.206656 71.436801,23.242769 z M 66.038301,22.121769 C 66.562523,13.295598 53.42897,11.592242 51.261324,19.867477 50.467103,24.000037 56.982303,21.386902 59.680584,22.121769 61.799823,22.121769 63.919062,22.121769 66.038301,22.121769 z"
       id="path3028"
       inkscape:connector-curvature="0" />
    <path
       style="font-size:59px;font-style:normal;font-variant:normal;font-weight:normal;font-stretch:normal;line-height:125%;letter-spacing:0px;word-spacing:0px;fill:#000000;fill-opacity:1;stroke:none;font-family:American Typewriter;-inkscape-font-specification:American Typewriter"
       d="M 84.673082,10.799769 C 87.486811,13.268579 93.948649,4.7220453 98.463778,10.169586 106.33186,13.001821 98.425227,28.446183 94.261428,18.91418 103.00935,13.734997 88.785291,8.7338536 86.330001,16.498326 85.457404,23.337345 82.206045,35.165807 91.60403,36.551716 87.779785,40.237297 78.97268,39.28699 74.59874,36.973745 78.472003,35.334868 82.219292,32.93149 80.933988,27.310626 80.971669,20.88917 81.758581,12.874077 74.825865,11.140304 76.334566,8.1717644 82.928698,8.1252424 84.673082,10.799769 z"
       id="path3030"
       inkscape:connector-curvature="0" />
    <path
       style="font-size:59px;font-style:normal;font-variant:normal;font-weight:normal;font-stretch:normal;line-height:125%;letter-spacing:0px;word-spacing:0px;fill:#000000;fill-opacity:1;stroke:none;font-family:American Typewriter;-inkscape-font-specification:American Typewriter"
       d="M 131.4739,27.242769 C 131.40382,32.8062 123.77165,29.865745 119.97909,30.704408 116.68153,30.779695 113.38396,30.854982 110.0864,30.930269 109.58391,38.32819 118.10709,44.816945 124.2858,39.340882 125.15232,35.485466 131.63399,31.092523 130.12612,37.91215 127.33614,44.170017 118.42003,47.428925 112.59382,43.195044 104.67494,40.64414 103.8022,28.905283 107.28116,22.287854 110.22092,14.18507 121.70014,12.646221 128.04417,18.246757 129.18741,21.245428 130.33066,24.244098 131.4739,27.242769 z M 110.0569,25.708769 C 114.48096,26.284567 124.49884,28.646807 126.12652,24.401502 125.14985,17.5242 115.00647,16.428037 111.90738,22.08827 111.29055,23.295103 110.67373,24.501936 110.0569,25.708769 z"
       id="path3032"
       inkscape:connector-curvature="0" />
    <path
       style="font-size:59px;font-style:normal;font-variant:normal;font-weight:normal;font-stretch:normal;line-height:125%;letter-spacing:0px;word-spacing:0px;fill:#000000;fill-opacity:1;stroke:none;font-family:American Typewriter;-inkscape-font-specification:American Typewriter"
       d="M 145.06418,34.275769 C 145.29725,37.657181 154.91017,38.347348 147.80381,40.685901 144.36402,39.826919 132.03458,42.622578 135.85224,37.150956 141.3664,37.651987 139.86552,32.189445 140.07705,28.694881 140.16609,20.918511 140.25514,13.14214 140.34418,5.3657693 137.11597,4.5408382 131.25883,2.0266442 137.97895,0.43521381 140.44689,0.97721738 145.63118,-0.99991672 145.41818,3.0647694"
       id="path3034"
       inkscape:connector-curvature="0" />
    <path
       style="font-size:59px;font-style:normal;font-variant:normal;font-weight:normal;font-stretch:normal;line-height:125%;letter-spacing:0px;word-spacing:0px;fill:#000000;fill-opacity:1;stroke:none;font-family:American Typewriter;-inkscape-font-specification:American Typewriter"
       d="M 163.62521,36.629769 C 164.79765,39.541824 173.9824,41.057375 166.26497,42.781987 162.96806,41.64918 149.56869,44.46184 154.92933,39.201163 162.47956,36.94142 158.90159,24.00139 158.06164,17.758158 155.29391,17.276261 150.48,14.795692 155.95291,13.129652 158.61491,14.134204 162.81114,11.660196 163.86121,15.448769 M 160.49821,10.020769 C 152.06521,8.0480669 163.41261,-1.2911446 163.6007,7.4153642 163.16614,8.9325335 162.02983,9.7397427 160.49821,10.020769 z"
       id="path3036"
       inkscape:connector-curvature="0" />
    <path
       style="font-size:59px;font-style:normal;font-variant:normal;font-weight:normal;font-stretch:normal;line-height:125%;letter-spacing:0px;word-spacing:0px;fill:#000000;fill-opacity:1;stroke:none;font-family:American Typewriter;-inkscape-font-specification:American Typewriter"
       d="M 189.49948,19.118769 C 197.40685,12.821149 181.64622,9.4200207 179.2709,16.241096 176.1047,23.194147 176.79262,34.258291 185.89735,35.474422 192.37512,37.490223 193.99692,21.04119 197.75771,30.039836 196.6517,36.452375 187.30195,41.383095 181.76461,37.744764 173.32661,36.253764 171.18087,24.595598 174.32824,17.866684 175.74173,9.6082219 187.17218,6.1819529 193.80701,10.818639 200.26335,14.373538 194.86596,27.15328 189.68996,19.559243 L 189.50179,19.124109 189.49948,19.118769 z"
       id="path3038"
       inkscape:connector-curvature="0" />
    <path
       style="font-size:59px;font-style:normal;font-variant:normal;font-weight:normal;font-stretch:normal;line-height:125%;letter-spacing:0px;word-spacing:0px;fill:#000000;fill-opacity:1;stroke:none;font-family:American Typewriter;-inkscape-font-specification:American Typewriter"
       d="M 218.63165,34.446769 C 216.79869,27.217895 225.2893,28.395183 222.2567,34.784577 222.64734,42.446373 212.54495,44.996107 207.40562,40.445177 203.12586,33.461411 209.22768,21.945868 203.14494,17.265537 195.72685,14.308794 210.12854,13.293088 205.75359,7.1188511 208.7599,0.05456722 211.23616,9.1651281 210.58408,12.553149 213.75555,12.691575 224.65783,14.636619 216.34106,17.496043 206.43523,15.401439 210.70969,29.349306 211.15332,34.865865 213.54326,40.993102 215.86298,38.416368 218.63165,34.446769 z"
       id="path3040"
       inkscape:connector-curvature="0" />
    <path
       style="font-size:40px;font-style:normal;font-variant:normal;font-weight:normal;font-stretch:normal;line-height:125%;letter-spacing:0px;word-spacing:0px;fill:#000000;fill-opacity:1;stroke:none;font-family:American Typewriter;-inkscape-font-specification:American Typewriter"
       d="M 231.26429,39.400609 C 222.26034,33.195221 240.09585,33.261742 231.26429,39.400609 z"
       id="path3141"
       inkscape:connector-curvature="0" />
  </g>
</svg>
