<?xml version="1.0" encoding="UTF-8" standalone="no"?>
<!-- Created with Inkscape (http://www.inkscape.org/) -->

<svg
   xmlns:dc="http://purl.org/dc/elements/1.1/"
   xmlns:cc="http://creativecommons.org/ns#"
   xmlns:rdf="http://www.w3.org/1999/02/22-rdf-syntax-ns#"
   xmlns:svg="http://www.w3.org/2000/svg"
   xmlns="http://www.w3.org/2000/svg"
   xmlns:sodipodi="http://sodipodi.sourceforge.net/DTD/sodipodi-0.dtd"
   xmlns:inkscape="http://www.inkscape.org/namespaces/inkscape"
   width="32.023739"
   height="32.007133"
   id="svg2"
   version="1.1"
   inkscape:version="0.48.4 r9943 custom"
   sodipodi:docname="atmosphere-purifier.svg">
  <sodipodi:namedview
     id="base"
     pagecolor="#ffffff"
     bordercolor="#666666"
     borderopacity="1.0"
     inkscape:pageopacity="0.0"
     inkscape:pageshadow="2"
     inkscape:zoom="16"
     inkscape:cx="-0.92779125"
     inkscape:cy="15.52478"
     inkscape:document-units="px"
     inkscape:current-layer="layer1"
     showgrid="false"
     inkscape:window-width="1855"
     inkscape:window-height="1035"
     inkscape:window-x="63"
     inkscape:window-y="23"
     inkscape:window-maximized="0"
     showguides="true"
     inkscape:guide-bbox="true"
     fit-margin-top="0"
     fit-margin-left="0"
     fit-margin-right="0"
     fit-margin-bottom="0" />
  <defs
     id="defs4" />
  <metadata
     id="metadata7">
    <rdf:RDF>
      <cc:Work
         rdf:about="">
        <dc:format>image/svg+xml</dc:format>
        <dc:type
           rdf:resource="http://purl.org/dc/dcmitype/StillImage" />
        <dc:title />
      </cc:Work>
    </rdf:RDF>
  </metadata>
  <g
     inkscape:label="Layer 1"
     inkscape:groupmode="layer"
     id="layer1">
    <path
       style="fill:#2b0000;stroke:none"
       d="M 25.14738,5.7889591 C 33.745499,3.9459432 31.480444,19.203629 31.583044,25.716562 30.110698,26.823705 29.910559,26.76285 28.615463,25.588415 30.464551,19.40639 29.82249,5.7258375 25.493861,8.3373424"
       id="path2999"
       inkscape:connector-curvature="0"
       sodipodi:nodetypes="cccc" />
    <path
       style="fill:#550000;stroke:none"
       d="M 0.42343007,20.718804 15.261341,17.002523 32.033481,20.330356 32.006985,31.995798 0.03555618,31.974888 0.02998053,20.798092"
       id="path3001"
       inkscape:connector-curvature="0"
       sodipodi:nodetypes="cccccc" />
    <path
       inkscape:connector-curvature="0"
       id="path3022"
       d="M 28.116233,18.621982 28.303591,26.460099 31.750957,26.777248 31.938315,19.482815 28.116233,18.621982"
       style="fill:#808000;stroke:none" />
    <path
       style="opacity:0.59174314;fill:#2b0000;stroke:none"
       d="M 0.63540012,20.9751 0.31744505,26.998039 14.731416,30.586173 31.901,28.920254 31.901,20.9751 17.381044,18.924737 0.63540012,20.9751"
       id="path3771"
       inkscape:connector-curvature="0" />
    <path
       style="fill:#aa0000;stroke:none"
       d="M 4.0269234,25.332119 6.3585948,2.3936905 10.254065,0.3598088 20.557552,0.1015925 24.707262,2.4097089 27.555611,23.922495 15.261341,29.304696 4.0269234,25.332119"
       id="path2995"
       inkscape:connector-curvature="0"
       sodipodi:nodetypes="cccccccc" />
    <path
       style="opacity:0.30275233;fill:#000000;fill-opacity:1;stroke:none"
       d="M 24.694014,2.3936905 26.954146,19.341217 32.033206,20.330356 32.019843,31.991578 14.993716,30.530471 15.579297,10.466992 20.064907,10.068019 20.54932,0.0199131 24.694014,2.3936905"
       id="path3773"
       inkscape:connector-curvature="0"
       sodipodi:nodetypes="cccsccscc" />
    <path
       sodipodi:nodetypes="cccsccc"
       inkscape:connector-curvature="0"
       id="path3775"
       d="M 23.104238,5.4692342 25.22394,21.103247 14.837401,25.203972 6.4645802,21.743985 7.8469448,4.3995211 10.492013,10.210697 19.701439,10.271725"
       style="opacity:0.30275233;fill:#000000;fill-opacity:1;stroke:none" />
    <path
       style="fill:#00ff00;stroke:none"
       d="M 31.140667,21.78262 31.271491,23.180842 29.470266,23.139469 29.639211,21.27115 C 30.199557,20.886738 30.784531,20.274031 31.140667,21.78262 z"
       id="active"
       inkscape:connector-curvature="0"
       sodipodi:nodetypes="ccccc" />
  </g>
</svg>
