<?xml version="1.0" encoding="UTF-8" standalone="no"?>
<!-- Created with Inkscape (http://www.inkscape.org/) -->

<svg
   xmlns:dc="http://purl.org/dc/elements/1.1/"
   xmlns:cc="http://creativecommons.org/ns#"
   xmlns:rdf="http://www.w3.org/1999/02/22-rdf-syntax-ns#"
   xmlns:svg="http://www.w3.org/2000/svg"
   xmlns="http://www.w3.org/2000/svg"
   xmlns:sodipodi="http://sodipodi.sourceforge.net/DTD/sodipodi-0.dtd"
   xmlns:inkscape="http://www.inkscape.org/namespaces/inkscape"
   width="32"
   height="32"
   id="svg2"
   version="1.1"
   inkscape:version="0.48.4 r9943 custom"
   sodipodi:docname="magboots.svg">
  <sodipodi:namedview
     id="base"
     pagecolor="#ffffff"
     bordercolor="#666666"
     borderopacity="1.0"
     inkscape:pageopacity="0.0"
     inkscape:pageshadow="2"
     inkscape:zoom="22.4"
     inkscape:cx="12.577093"
     inkscape:cy="18.940725"
     inkscape:document-units="px"
     inkscape:current-layer="layer1"
     showgrid="false"
     inkscape:window-width="1863"
     inkscape:window-height="1035"
     inkscape:window-x="57"
     inkscape:window-y="23"
     inkscape:window-maximized="0"
     showguides="true"
     inkscape:guide-bbox="true"
     fit-margin-top="0"
     fit-margin-left="0"
     fit-margin-right="0"
     fit-margin-bottom="0" />
  <defs
     id="defs4" />
  <metadata
     id="metadata7">
    <rdf:RDF>
      <cc:Work
         rdf:about="">
        <dc:format>image/svg+xml</dc:format>
        <dc:type
           rdf:resource="http://purl.org/dc/dcmitype/StillImage" />
        <dc:title />
      </cc:Work>
    </rdf:RDF>
  </metadata>
  <g
     inkscape:label="Layer 1"
     inkscape:groupmode="layer"
     id="layer1">
    <path
       style="fill:#d40000;stroke:none"
       d="M 9.3444231,9.6589831 7.3331721,12.79997 C 10.7093,13.763819 10.472489,18.920083 10.104125,21.624293 8.9559771,22.378858 7.7523301,22.984924 6.4955379,23.523543 L 5.7358349,25.612732 1.7035275,27.578561 5.3082443,28.227821 C 9.9569901,28.353143 10.745959,28.039677 15.801894,27.132132 14.696098,23.407282 14.372479,19.960903 15.217822,16.538641 17.570387,14.515413 16.381698,12.45226 17.131374,10.228753 14.390322,9.7382608 11.979159,8.7446018 9.3444231,9.6589831"
       id="path2985"
       inkscape:connector-curvature="0"
       sodipodi:nodetypes="ccccccccccc" />
    <path
       style="fill:#d40000;stroke:none"
       d="M 18.650779,10.608603 C 20.967417,8.9281211 23.337663,8.0691173 26.057877,9.0892031 L 26.817579,12.128013 24.728397,15.926523 C 24.461069,18.720821 25.073925,21.549885 26.817579,23.333623 27.596478,24.209557 26.978436,24.83087 27.957134,25.992582 L 30.616093,29.031392 27.197431,29.981012 C 23.353243,29.546961 19.197612,28.012148 17.70115,27.132132 18.510894,24.370764 19.424166,20.205857 19.790331,16.876153 18.111229,14.71157 17.981768,13.061637 18.650779,10.608603"
       id="path2987"
       inkscape:connector-curvature="0"
       sodipodi:nodetypes="ccccccccccc" />
    <path
       style="opacity:0.7;fill:#000000;stroke:none"
       d="M 5.1660589,27.511982 C 6.7487651,26.909146 7.5478931,25.74041 8.5847201,24.473172 12.540772,22.878149 13.251498,18.717158 14.125852,15.001153 12.585782,12.724814 10.284609,13.331347 7.7805291,12.640564 11.150445,15.014791 11.183871,18.444853 10.29405,22.004143 L 7.0653151,23.903403 C 6.355861,26.125542 4.6703908,26.525299 2.6970249,27.511982"
       id="path2989"
       inkscape:connector-curvature="0"
       sodipodi:nodetypes="ccccccc" />
    <path
       style="opacity:0.7;fill:#000000;stroke:none"
       d="M 22.48279,15.149726 C 23.136731,18.766343 22.814862,20.691914 24.752654,23.827789 24.904854,25.750117 25.838948,29.538763 27.954524,28.68728 L 29.638029,28.464224 27.800864,27.003777 26.654696,23.695235 C 24.209602,21.450233 24.29243,16.178859 24.571761,15.44681 27.554197,12.184667 25.255089,11.435133 22.48279,15.149726 z"
       id="path2991"
       inkscape:connector-curvature="0"
       sodipodi:nodetypes="cccccccc" />
    <path
       style="fill:#00ff00;stroke:none"
       d="M 16.274036,10.787006 15.284797,12.180664 14.549044,10.538123"
       id="active"
       inkscape:connector-curvature="0"
       sodipodi:nodetypes="ccc" />
    <path
       style="fill:#800000;stroke:none"
       d="M 23.360861,23.167047 24.856397,25.019726 24.878718,24.104547 26.530504,23.52419 26.887647,23.948297 25.637647,21.984012 23.65104,22.251869 z"
       id="path2996"
       inkscape:connector-curvature="0" />
    <path
       sodipodi:nodetypes="ccccccccc"
       inkscape:connector-curvature="0"
       id="path3025"
       d="M 9.3444231,9.6589831 7.3331721,12.79997 C 10.7093,13.763819 10.472489,18.920083 10.104125,21.624293 8.9559771,22.378858 7.7523301,22.984924 6.4955379,23.523543 L 5.7358349,25.612732 1.7035275,27.578561 C 9.6209861,26.871276 5.1543734,24.606848 9.5965371,22.846418 10.22591,23.893283 12.411533,20.293749 12.762465,15.511855 9.6600451,13.794449 8.0348941,10.83915 9.3444231,9.6589831"
       style="opacity:0.47087384;fill:#2b0000;stroke:none" />
    <path
       style="fill:#800000;fill-opacity:1;stroke:none"
       d="M 6.8653266,23.546513 8.8072912,24.617941 9.4099692,25.823298 11.351934,24.550977 10.771576,23.323298 8.1376482,22.809906 z"
       id="path3766"
       inkscape:connector-curvature="0" />
    <path
       sodipodi:nodetypes="cccccccc"
       inkscape:connector-curvature="0"
       id="path3795"
       d="M 18.650779,10.608603 C 20.967417,8.9281211 23.337663,8.0691173 26.057877,9.0892031 19.568814,9.0484443 19.099394,13.873588 20.645304,18.983873 19.207648,28.80199 23.892698,30.614534 30.616093,29.031392 L 27.197431,29.981012 C 23.353243,29.546961 19.197612,28.012148 17.70115,27.132132 18.510894,24.370764 19.424166,20.205857 19.790331,16.876153 18.111229,14.71157 17.981768,13.061637 18.650779,10.608603"
       style="opacity:0.4805825;fill:#800000;stroke:none" />
    <path
       style="opacity:0.1893204;fill:#00ff00;stroke:none"
       d="M 18.695684,10.555441 C 19.818647,9.752047 21.013319,9.1488804 22.043898,8.8980753 18.16503,10.986094 18.991927,13.438401 19.097469,15.867941 18.251631,14.151903 17.965983,12.978466 18.695684,10.555441 z"
       id="path3797"
       inkscape:connector-curvature="0"
       sodipodi:nodetypes="cccc" />
  </g>
</svg>
