<?xml version="1.0" encoding="UTF-8" standalone="no"?>
<!-- Created with Inkscape (http://www.inkscape.org/) -->

<svg
   xmlns:dc="http://purl.org/dc/elements/1.1/"
   xmlns:cc="http://creativecommons.org/ns#"
   xmlns:rdf="http://www.w3.org/1999/02/22-rdf-syntax-ns#"
   xmlns:svg="http://www.w3.org/2000/svg"
   xmlns="http://www.w3.org/2000/svg"
   xmlns:sodipodi="http://sodipodi.sourceforge.net/DTD/sodipodi-0.dtd"
   xmlns:inkscape="http://www.inkscape.org/namespaces/inkscape"
   sodipodi:docname="plastic-pipes.svg"
   inkscape:version="0.48.4 r9943 custom"
   version="1.1"
   id="svg2"
   height="32.040237"
   width="32">
  <sodipodi:namedview
     id="base"
     pagecolor="#ffffff"
     bordercolor="#666666"
     borderopacity="1.0"
     inkscape:pageopacity="0.0"
     inkscape:pageshadow="2"
     inkscape:zoom="45.254834"
     inkscape:cx="1.4895951"
     inkscape:cy="30.090364"
     inkscape:document-units="px"
     inkscape:current-layer="layer1"
     showgrid="false"
     inkscape:window-width="1855"
     inkscape:window-height="1035"
     inkscape:window-x="224"
     inkscape:window-y="23"
     inkscape:window-maximized="0"
     showguides="true"
     inkscape:guide-bbox="true"
     fit-margin-top="0"
     fit-margin-left="0"
     fit-margin-right="0"
     fit-margin-bottom="0" />
  <defs
     id="defs4" />
  <metadata
     id="metadata7">
    <rdf:RDF>
      <cc:Work
         rdf:about="">
        <dc:format>image/svg+xml</dc:format>
        <dc:type
           rdf:resource="http://purl.org/dc/dcmitype/StillImage" />
        <dc:title />
      </cc:Work>
    </rdf:RDF>
  </metadata>
  <g
     inkscape:label="Layer 1"
     inkscape:groupmode="layer"
     id="layer1">
    <path
       style="fill:#008000;fill-opacity:1;fill-rule:nonzero;stroke:none"
       d="M 4.66939,0.0106563 10.045096,0.0106563 10.071083,32.026043 4.6953769,32.026043 z"
       id="rect2995"
       inkscape:connector-curvature="0"
       sodipodi:nodetypes="ccccc" />
    <path
       style="fill:#008000;fill-opacity:1;fill-rule:nonzero;stroke:none"
       d="M 11.08309,0.18206833 15.83163,0.18206833 15.863197,31.904852 11.114657,31.904852 z"
       id="rect2997"
       inkscape:connector-curvature="0"
       sodipodi:nodetypes="ccccc" />
    <path
       style="fill:#008000;fill-opacity:1;fill-rule:nonzero;stroke:none"
       d="M 17.492156,0.02173576 21.075961,0.02173576 21.075961,21.549267 17.492156,21.549267 z"
       id="rect2999"
       inkscape:connector-curvature="0"
       sodipodi:nodetypes="ccccc" />
    <path
       sodipodi:nodetypes="cccccc"
       style="fill:#008000;fill-opacity:1;stroke:none"
       d="M 17.223371,20.691929 C 16.823114,23.739276 18.074892,24.042907 19.821629,25.591002 L 22.778267,25.468526 22.778267,21.181836 20.71758,20.446975 17.223371,20.691929"
       id="path3001"
       inkscape:connector-curvature="0" />
    <path
       style="fill:#008000;stroke:none"
       d="M 20.53839,23.141465 C 22.408693,18.660854 23.390746,19.135472 24.480574,23.753849 23.923423,30.743889 20.150969,31.376886 20.53839,23.141465"
       id="path3003"
       inkscape:connector-curvature="0"
       sodipodi:nodetypes="ccc" />
    <path
       style="opacity:0.91284407;fill:#000000;stroke:none"
       d="M 24.122194,23.263941 C 24.177312,29.414731 20.619706,30.274206 21.165556,23.508896 22.069814,19.425164 23.151969,20.268382 24.122194,23.263941 z"
       id="path3005"
       inkscape:connector-curvature="0"
       sodipodi:nodetypes="ccc" />
    <path
       style="opacity:0.47706424;fill:#000000;fill-opacity:1;fill-rule:nonzero;stroke:none"
       d="M 6.9932822,0.01623665 10.039516,0.01623665 10.039516,32.044787 6.9932822,32.044787 z"
       id="rect3819"
       inkscape:connector-curvature="0"
       sodipodi:nodetypes="ccccc" />
    <path
       style="fill:#000000;fill-opacity:1;fill-rule:nonzero;stroke:none"
       d="M 8.785185,0.0106563 10.039517,0.0106563 10.039517,32.026043 8.785185,32.026043 z"
       id="rect3821"
       inkscape:connector-curvature="0"
       sodipodi:nodetypes="ccccc" />
    <path
       style="opacity:0.38990826;fill:#ffffff;fill-opacity:1;fill-rule:nonzero;stroke:none"
       d="M 4.5166823,0.0106563 5.7710139,0.0106563 5.7190401,32.026043 4.4962757,32.044787 z"
       id="rect3823"
       inkscape:connector-curvature="0"
       sodipodi:nodetypes="ccccc" />
    <path
       style="fill:#008000;fill-opacity:1;fill-rule:nonzero;stroke:none"
       d="M 10.877836,0.01594597 16.253543,0.01594597 16.221976,31.998572 10.846269,31.998572 z"
       id="rect3825"
       inkscape:connector-curvature="0"
       sodipodi:nodetypes="ccccc" />
    <path
       style="opacity:0.47706424;fill:#000000;fill-opacity:1;fill-rule:nonzero;stroke:none"
       d="M 13.207309,0.01594597 16.253542,0.01594597 16.253542,31.998572 13.207309,31.998572 z"
       id="rect3827"
       inkscape:connector-curvature="0"
       sodipodi:nodetypes="ccccc" />
    <path
       style="fill:#000000;fill-opacity:1;fill-rule:nonzero;stroke:none"
       d="M 14.999212,0.01594597 16.253543,0.01594597 16.253543,32.017316 14.999212,32.017316 z"
       id="rect3829"
       inkscape:connector-curvature="0"
       sodipodi:nodetypes="ccccc" />
    <path
       style="opacity:0.38990826;fill:#ffffff;fill-opacity:1;fill-rule:nonzero;stroke:none"
       d="M 10.74187,0.01594597 11.996201,0.01594597 11.996201,32.017316 10.74187,32.017316 z"
       id="rect3831"
       inkscape:connector-curvature="0"
       sodipodi:nodetypes="ccccc" />
    <path
       style="fill:#008000;fill-opacity:1;fill-rule:nonzero;stroke:none"
       d="M 17.270972,0.01322909 20.986366,0.01322909 20.986366,20.324499 17.270972,20.324499 z"
       id="rect3833"
       inkscape:connector-curvature="0"
       sodipodi:nodetypes="ccccc" />
    <path
       sodipodi:nodetypes="cccccc"
       inkscape:connector-curvature="0"
       id="rect3835"
       d="M 18.865192,0.02112138 20.970582,0.02112138 20.71758,21.304313 20.448795,22.896511 C 19.794434,22.2903 18.769133,22.046286 18.880976,20.691929 L 18.865192,0.02112138"
       style="opacity:0.47706424;fill:#000000;fill-opacity:1;fill-rule:nonzero;stroke:none" />
    <path
       sodipodi:nodetypes="ccccc"
       inkscape:connector-curvature="0"
       id="rect3837"
       d="M 20.026194,0.00589579 21.07231,0.00589579 21.165556,20.691929 C 20.789022,20.995027 20.69546,21.813894 20.47782,22.406604 19.032863,14.869759 20.145655,7.4361567 20.026194,0.00589579"
       style="fill:#000000;fill-opacity:1;fill-rule:nonzero;stroke:none" />
    <path
       sodipodi:nodetypes="ccccc"
       inkscape:connector-curvature="0"
       id="rect3839"
       d="M 17.184892,0.02112138 17.962221,0.02112138 17.954329,20.324499 C 17.526276,20.549637 17.378153,21.348776 17.177,22.039174 L 17.184892,0.02112138"
       style="opacity:0.38990826;fill:#ffffff;fill-opacity:1;fill-rule:nonzero;stroke:none" />
    <path
       sodipodi:nodetypes="cccc"
       inkscape:connector-curvature="0"
       id="path3843"
       d="M 20.202408,25.376668 C 20.100106,24.827313 19.885226,24.316432 20.000819,23.692611 18.936837,23.464526 18.438295,22.65672 17.827209,21.964302 17.326559,21.622105 18.021245,24.100126 20.202408,25.376668 z"
       style="opacity:0.3577982;fill:#000000;fill-opacity:1;stroke:none" />
  </g>
</svg>
