<?xml version="1.0" encoding="UTF-8" standalone="no"?>
<!-- Created with Inkscape (http://www.inkscape.org/) -->

<svg
   xmlns:dc="http://purl.org/dc/elements/1.1/"
   xmlns:cc="http://creativecommons.org/ns#"
   xmlns:rdf="http://www.w3.org/1999/02/22-rdf-syntax-ns#"
   xmlns:svg="http://www.w3.org/2000/svg"
   xmlns="http://www.w3.org/2000/svg"
   xmlns:sodipodi="http://sodipodi.sourceforge.net/DTD/sodipodi-0.dtd"
   xmlns:inkscape="http://www.inkscape.org/namespaces/inkscape"
   width="32"
   height="32"
   id="svg2"
   version="1.1"
   inkscape:version="0.48.4 r9943 custom"
   sodipodi:docname="electric-experiment.svg">
  <sodipodi:namedview
     id="base"
     pagecolor="#ffffff"
     bordercolor="#666666"
     borderopacity="1.0"
     inkscape:pageopacity="0.0"
     inkscape:pageshadow="2"
     inkscape:zoom="22.627417"
     inkscape:cx="20.873321"
     inkscape:cy="16.278765"
     inkscape:document-units="px"
     inkscape:current-layer="layer1"
     showgrid="false"
     inkscape:window-width="1855"
     inkscape:window-height="1035"
     inkscape:window-x="100"
     inkscape:window-y="23"
     inkscape:window-maximized="0"
     showguides="true"
     inkscape:guide-bbox="true"
     fit-margin-top="0"
     fit-margin-left="0"
     fit-margin-right="0"
     fit-margin-bottom="0" />
  <defs
     id="defs4" />
  <metadata
     id="metadata7">
    <rdf:RDF>
      <cc:Work
         rdf:about="">
        <dc:format>image/svg+xml</dc:format>
        <dc:type
           rdf:resource="http://purl.org/dc/dcmitype/StillImage" />
        <dc:title />
      </cc:Work>
    </rdf:RDF>
  </metadata>
  <g
     id="layer1"
     inkscape:groupmode="layer"
     inkscape:label="Layer 1">
    <path
       inkscape:connector-curvature="0"
       id="path2998"
       d="M 4.5018035,31.934263 4.5702042,7.3092842 8.2839564,7.2958913 8.3443099,31.956584 4.5018035,31.934263"
       style="fill:#1a1a1a;fill-opacity:1;stroke:none"
       sodipodi:nodetypes="ccccc" />
    <path
       inkscape:connector-curvature="0"
       id="path3000"
       d="M 18.92649,31.985624 18.906172,6.9387485 24.189115,6.9030342 24.232349,31.999455"
       style="fill:#1a1a1a;fill-opacity:1;stroke:none"
       sodipodi:nodetypes="cccc" />
    <path
       inkscape:connector-curvature="0"
       id="path3002"
       d="M 24.056338,15.956606 C 31.669477,16.646838 30.630358,25.808257 30.787915,32.014182 L 29.098513,32.01462 C 28.927519,30.563172 30.719985,18.010173 23.975866,18.010173 L 24.056338,15.956606"
       style="fill:#000000;fill-opacity:1;stroke:none"
       sodipodi:nodetypes="ccccc" />
    <path
       inkscape:connector-curvature="0"
       id="path3004"
       d="M 11.279142,31.939055 11.341867,16.760177 13.595065,16.760177 13.626722,31.944165"
       style="fill:#000000;fill-opacity:1;stroke:none"
       sodipodi:nodetypes="cccc" />
    <path
       inkscape:connector-curvature="0"
       id="path3006"
       d="M 4.5018035,15.599463 C 0.46093126,15.140554 0.86511609,18.288373 0.5587083,22.028034 L 0.5587083,31.94463 2.4757956,31.928846 C 2.3776868,27.751635 2.4918118,23.246912 2.7314348,19.081606 3.0008641,17.711541 3.3277615,16.855829 4.582275,17.474463 L 4.5018035,15.599463"
       style="fill:#000000;fill-opacity:1;stroke:none"
       sodipodi:nodetypes="ccccccc" />
    <path
       inkscape:connector-curvature="0"
       id="path3776"
       d="M 3.6166196,15.063749 3.4556764,17.74232 4.7432182,18.635177 4.8236934,14.349463 3.6166196,15.063749"
       style="fill:#000000;fill-opacity:1;stroke:none" />
    <path
       inkscape:connector-curvature="0"
       id="path3778"
       d="M 23.653981,15.510177 23.573509,18.99232 25.585292,18.099463 25.585292,15.956606 23.814923,14.795892 23.653981,15.510177"
       style="fill:#000000;fill-opacity:1;stroke:none" />
    <path
       sodipodi:nodetypes="ccccccccccccccccccccccccccccccccccc"
       inkscape:connector-curvature="0"
       id="active"
       d="M 5.3065175,7.2958913 6.9159439,8.3673199 C 6.9545736,9.3857883 7.1488244,9.9636417 7.720657,10.688749 6.7660513,11.504404 6.0580435,12.132863 4.9846321,12.11732 L 4.8236889,13.635177 C 5.3724533,13.277012 5.9445842,12.968699 6.5135868,12.653034 6.9063083,13.446136 7.3499872,13.786685 8.0425425,14.170892 7.9142851,16.518429 7.271329,17.887773 8.2839564,19.885177 L 6.4331161,20.86732 C 6.5485988,23.072151 6.4878779,23.54348 4.9041569,24.617321 L 4.662743,26.313749 6.1112271,26.938749 7.0768825,28.278035 C 6.3549572,29.094458 5.4820632,29.073356 4.662743,29.349463 4.7139014,30.621249 5.0894624,31.234557 5.9529344,31.931322 5.9193203,31.255854 5.6181554,30.354833 5.4674562,29.706606 6.8045494,29.153706 6.3061196,29.598862 7.5597112,29.170892 L 8.3644241,30.242321 8.2034812,28.635178 7.3182964,27.385178 C 6.7603083,26.177184 6.4212571,25.773103 5.5479278,25.153035 6.3525869,24.825629 6.6611541,24.403953 7.0768825,23.635177 7.5432439,23.710286 7.9922304,23.85439 8.4448954,23.99232 L 8.525367,22.11732 C 6.8427393,22.345346 6.5813396,21.428884 8.2839564,20.956606 L 8.6058417,19.438749 C 8.1609669,18.343185 7.6904687,17.574916 8.6058381,16.849463 10.22425,17.284863 10.715722,17.429912 11.180921,19.081606 12.006652,17.727833 12.96758,17.552242 13.675532,18.99232 13.799495,18.270537 13.734898,17.63694 13.595065,16.938749 L 18.825701,18.36732 18.986644,15.063749 C 15.109592,16.322866 12.241531,17.20561 8.7667843,15.063749 L 8.2839564,8.0101771 5.3065175,7.2958913"
       style="opacity:0.37155965;fill:#00ffff;fill-opacity:1;stroke:none" />
  </g>
</svg>
