<?xml version="1.0" encoding="UTF-8" standalone="no"?>
<!-- Created with Inkscape (http://www.inkscape.org/) -->

<svg
   xmlns:dc="http://purl.org/dc/elements/1.1/"
   xmlns:cc="http://creativecommons.org/ns#"
   xmlns:rdf="http://www.w3.org/1999/02/22-rdf-syntax-ns#"
   xmlns:svg="http://www.w3.org/2000/svg"
   xmlns="http://www.w3.org/2000/svg"
   xmlns:sodipodi="http://sodipodi.sourceforge.net/DTD/sodipodi-0.dtd"
   xmlns:inkscape="http://www.inkscape.org/namespaces/inkscape"
   width="32"
   height="32"
   id="svg2"
   version="1.1"
   inkscape:version="0.48.4 r9943 custom"
   sodipodi:docname="ship-ignition-key.svg">
  <sodipodi:namedview
     id="base"
     pagecolor="#ffffff"
     bordercolor="#666666"
     borderopacity="1.0"
     inkscape:pageopacity="0.0"
     inkscape:pageshadow="2"
     inkscape:zoom="22.4"
     inkscape:cx="23.750507"
     inkscape:cy="17.331673"
     inkscape:document-units="px"
     inkscape:current-layer="layer1"
     showgrid="false"
     inkscape:window-width="1855"
     inkscape:window-height="1035"
     inkscape:window-x="100"
     inkscape:window-y="23"
     inkscape:window-maximized="0"
     showguides="true"
     inkscape:guide-bbox="true"
     fit-margin-top="0"
     fit-margin-left="0"
     fit-margin-right="0"
     fit-margin-bottom="0" />
  <defs
     id="defs4" />
  <metadata
     id="metadata7">
    <rdf:RDF>
      <cc:Work
         rdf:about="">
        <dc:format>image/svg+xml</dc:format>
        <dc:type
           rdf:resource="http://purl.org/dc/dcmitype/StillImage" />
        <dc:title />
      </cc:Work>
    </rdf:RDF>
  </metadata>
  <g
     inkscape:label="Layer 1"
     inkscape:groupmode="layer"
     id="layer1">
    <path
       sodipodi:nodetypes="ccccccccccc"
       inkscape:connector-curvature="0"
       id="path4008"
       d="M 8.5881491,12.34258 C 9.5199327,10.815725 10.964312,10.734999 12.596632,10.27369 L 14.70127,10.84772 C 18.211409,14.121721 19.719705,19.169648 17.057685,22.687051 14.64295,22.806105 11.458528,21.273878 11.109614,19.454361 L 14.859485,18.613871 C 17.378694,20.537226 19.987261,20.818618 22.332447,19.203591 23.199223,14.466329 22.149089,11.277414 18.867968,10.33829 L 15.770341,10.28899 C 14.793147,10.868282 13.716823,11.225376 12.661285,11.63135 L 8.8467611,12.47184"
       style="fill:#502d16;stroke:none" />
    <path
       sodipodi:nodetypes="csccccc"
       inkscape:connector-curvature="0"
       id="path4010"
       d="M 12.596968,10.26584 15.86153,10.08694 18.867968,10.20904 C 23.235709,11.85773 22.660302,15.694418 22.294574,19.195791 20.647226,20.865613 19.295952,22.189668 17.057685,22.687051 20.015246,19.082159 17.050532,13.490587 14.730179,10.85556 L 12.596968,10.26584"
       style="fill:#d45500;stroke:none" />
    <path
       sodipodi:nodetypes="ccccc"
       inkscape:connector-curvature="0"
       id="path4012"
       d="M 15.829279,11.11418 18.867968,10.66161 C 22.673103,12.41486 22.084931,15.92523 21.842004,19.131141 21.087758,20.260602 20.016442,20.943102 18.932621,21.717261 20.299923,17.288969 17.98236,13.239756 15.829279,11.11418"
       style="fill:#d4aa00;stroke:none" />
    <path
       sodipodi:nodetypes="ccccccc"
       inkscape:connector-curvature="0"
       id="path4014"
       d="M 22.347462,19.165771 C 20.706037,20.829606 19.353434,22.174687 17.12432,22.690481 15.474528,22.851426 14.370593,22.329171 12.943197,21.631651 L 16.938334,19.993461 18.142122,20.196248 18.072731,20.678421 C 19.641051,20.783696 21.014833,20.062185 22.347462,19.165771 z"
       style="opacity:0.34862384;fill:#241c1c;stroke:none" />
    <path
       sodipodi:nodetypes="ccccc"
       inkscape:connector-curvature="0"
       id="path4016"
       d="M 12.661285,10.27369 C 15.300977,10.476819 16.326248,12.42061 17.97899,14.298331 20.23847,14.190543 20.580881,14.418991 21.705763,12.642006 19.800267,10.502517 18.588338,10.258961 15.910095,10.14438 L 12.661285,10.27369"
       style="opacity:0.52752291;fill:#f4d7d7;stroke:none" />
    <path
       style="opacity:0.32568808;fill:#ffffff;stroke:none"
       d="M 13.711895,10.33834 15.004954,10.64544 17.720378,10.30601 13.792712,10.32221 13.711895,10.33834"
       id="path4040"
       inkscape:connector-curvature="0" />
    <path
       style="opacity:0.48623855;fill:#00ff00;stroke:none"
       d="M 16.153214,11.223895 C 17.870349,10.743729 18.066579,10.787933 19.071572,10.97897 19.737204,11.300105 19.895496,11.10421 20.598276,12.073746 21.35986,13.745847 20.172383,15.16884 17.732101,13.249127 17.288272,12.338149 16.721065,11.780101 16.153214,11.223895 z"
       id="active"
       inkscape:connector-curvature="0"
       sodipodi:nodetypes="ccccc" />
  </g>
</svg>
