<?xml version="1.0" encoding="UTF-8" standalone="no"?>
<!-- Generated by IcoMoon.io -->

<svg
   xmlns:dc="http://purl.org/dc/elements/1.1/"
   xmlns:cc="http://creativecommons.org/ns#"
   xmlns:rdf="http://www.w3.org/1999/02/22-rdf-syntax-ns#"
   xmlns:svg="http://www.w3.org/2000/svg"
   xmlns="http://www.w3.org/2000/svg"
   xmlns:sodipodi="http://sodipodi.sourceforge.net/DTD/sodipodi-0.dtd"
   xmlns:inkscape="http://www.inkscape.org/namespaces/inkscape"
   version="1.1"
   width="383.98776"
   height="443.3201"
   viewBox="0 0 383.98776 443.3201"
   id="svg3003"
   inkscape:version="0.48.4 r9943 custom"
   sodipodi:docname="beer.svg">
  <metadata
     id="metadata3019">
    <rdf:RDF>
      <cc:Work
         rdf:about="">
        <dc:format>image/svg+xml</dc:format>
        <dc:type
           rdf:resource="http://purl.org/dc/dcmitype/StillImage" />
        <dc:title />
      </cc:Work>
    </rdf:RDF>
  </metadata>
  <defs
     id="defs3017" />
  <sodipodi:namedview
     pagecolor="#ffffff"
     bordercolor="#666666"
     borderopacity="1"
     objecttolerance="10"
     gridtolerance="10"
     guidetolerance="10"
     inkscape:pageopacity="0"
     inkscape:pageshadow="2"
     inkscape:window-width="640"
     inkscape:window-height="480"
     id="namedview3015"
     showgrid="false"
     fit-margin-top="0"
     fit-margin-left="0"
     fit-margin-right="0"
     fit-margin-bottom="0"
     inkscape:zoom="0.4609375"
     inkscape:cx="252.73576"
     inkscape:cy="193.45061"
     inkscape:window-x="823"
     inkscape:window-y="218"
     inkscape:window-maximized="0"
     inkscape:current-layer="svg3003" />
  <g
     id="g3005"
     transform="translate(-3.2642373,-6.1305155)" />
  <path
     style="fill:#000000"
     d="M 117.6207,135.08709 C 83.522741,135.16295 61.874311,169.71831 57.842371,200.28603 50.961571,232.04482 58.004331,271.18225 87.391441,289.52184 112.21691,290.76541 127.89028,342.62797 94.805211,338.69102 47.428491,330.56827 8.7951407,288.77157 2.7671507,241.21615 -6.0647593,183.44818 24.190801,116.6818 82.173741,97.678474 102.3222,80.758927 128.27262,104.27034 117.6207,126.88222 117.6207,129.61718 117.6207,132.35213 117.6207,135.08709 z"
     id="path3007"
     inkscape:connector-curvature="0" />
  <path
     style="fill:#000000"
     d="M 117.5797,136.19209 C 82.855781,136.44572 61.845001,172.34173 58.388311,203.32399 52.553991,233.62544 59.173481,269.86878 86.987041,287.44702 108.67165,293.23677 126.8936,323.29047 106.48577,339.67676 82.142791,343.60149 58.803321,327.37591 40.411611,313.1097 8.5274107,285.74589 -5.0064993,241.65433 1.7290407,200.71899 7.7852507,153.7309 39.615471,107.32865 87.074151,95.098795 111.41529,77.492223 129.37218,115.51758 118.09573,134.92184 L 117.65417,136.00879 117.5797,136.19209 z M 117.5497,95.130094 C 65.725671,89.914421 20.351731,132.91147 7.7072807,180.73913 -7.2667493,232.69661 10.285201,297.07271 59.447511,324.40516 73.740591,336.92456 111.31289,346.09302 113.30347,318.47461 115.68612,288.52501 77.154731,294.98887 67.074971,274.1288 45.693091,231.03545 51.942361,172.20491 90.243001,140.48526 115.70962,145.57931 119.14462,112.89219 117.5497,95.130094 z"
     id="path3009"
     inkscape:connector-curvature="0" />
  <path
     style="fill:#000000"
     d="M 365.6227,49.583094 C 347.79592,31.697962 317.16554,24.320927 295.82717,19.223764 273.46867,27.558782 248.38727,2.5983761 227.93538,20.338864 203.93284,29.036183 178.36414,32.179523 154.23861,40.466782 143.36787,55.100994 130.33121,35.948006 147.55624,31.663374 173.0688,19.034919 203.63694,22.05531 227.93997,7.2015796 243.10067,-3.2119236 262.24388,1.621772 274.30171,11.112483 294.16404,3.4177064 315.29732,3.6645419 329.8839,19.668305 341.83149,21.848622 387.02169,33.439181 365.6227,49.583094 z"
     id="path3011"
     inkscape:connector-curvature="0" />
  <path
     style="fill:#000000"
     d="M 378.8637,61.717094 C 381.69384,183.83497 382.33141,305.9897 384.70023,428.1158 373.92292,453.28656 342.6886,440.45267 321.94143,443.32009 261.65785,443.32009 201.37428,443.32009 141.0907,443.32009 113.62848,428.80849 131.1694,394.15812 128.15416,370.15393 128.7565,276.29662 133.23933,182.42182 134.21671,88.63864 131.18666,71.434059 136.36324,51.484545 157.74848,59.049159 231.45355,59.93839 305.15865,60.825958 378.8637,61.717094 z"
     id="path3031"
     inkscape:connector-curvature="0" />
  <path
     style="fill:#ffffff"
     d="M 358.3017,393.40109 C 291.76903,393.40109 225.23637,393.40109 158.7037,393.40109 143.99412,405.8309 153.19468,429.39288 172.80679,419.86109 237.58076,419.86109 302.35473,419.86109 367.1287,419.86109 364.18637,411.04109 361.24403,402.22109 358.3017,393.40109 z"
     id="path3029"
     inkscape:connector-curvature="0" />
  <path
     style="fill:#ffffff"
     d="M 328.9737,129.23009 C 328.9737,212.39609 328.9737,295.56209 328.9737,378.72809 357.11383,384.22431 344.51251,345.00379 346.5557,328.8456 346.5557,262.30709 346.5557,195.76859 346.5557,129.23009 374.78676,134.20755 366.60763,97.235642 367.42037,80.212639 363.81381,62.273138 338.72546,73.359378 325.43776,70.493094 265.94774,70.493094 206.45772,70.493094 146.9677,70.493094 146.9677,90.072093 146.9677,109.65109 146.9677,129.23009 207.63637,129.23009 268.30503,129.23009 328.9737,129.23009 z"
     id="path3013"
     inkscape:connector-curvature="0" />
</svg>
