<?xml version="1.0" encoding="UTF-8" standalone="no"?>
<!-- Created with Inkscape (http://www.inkscape.org/) -->

<svg
   xmlns:dc="http://purl.org/dc/elements/1.1/"
   xmlns:cc="http://creativecommons.org/ns#"
   xmlns:rdf="http://www.w3.org/1999/02/22-rdf-syntax-ns#"
   xmlns:svg="http://www.w3.org/2000/svg"
   xmlns="http://www.w3.org/2000/svg"
   xmlns:sodipodi="http://sodipodi.sourceforge.net/DTD/sodipodi-0.dtd"
   xmlns:inkscape="http://www.inkscape.org/namespaces/inkscape"
   width="900"
   height="420"
   id="svg2"
   version="1.1"
   inkscape:version="0.48.4 r9943 custom"
   sodipodi:docname="intro3.svg">
  <sodipodi:namedview
     id="base"
     pagecolor="#ffffff"
     bordercolor="#666666"
     borderopacity="1.0"
     inkscape:pageopacity="0.0"
     inkscape:pageshadow="2"
     inkscape:zoom="0.98994949"
     inkscape:cx="242.31062"
     inkscape:cy="80.009696"
     inkscape:document-units="px"
     inkscape:current-layer="layer1"
     showgrid="false"
     inkscape:window-width="1859"
     inkscape:window-height="1036"
     inkscape:window-x="61"
     inkscape:window-y="22"
     inkscape:window-maximized="0"
     showguides="true"
     inkscape:guide-bbox="true"
     fit-margin-top="0"
     fit-margin-left="0"
     fit-margin-right="0"
     fit-margin-bottom="0" />
  <defs
     id="defs4" />
  <metadata
     id="metadata7">
    <rdf:RDF>
      <cc:Work
         rdf:about="">
        <dc:format>image/svg+xml</dc:format>
        <dc:type
           rdf:resource="http://purl.org/dc/dcmitype/StillImage" />
        <dc:title />
      </cc:Work>
    </rdf:RDF>
  </metadata>
  <g
     transform="translate(-0.64996892,-0.21932557)"
     id="layer1"
     inkscape:groupmode="layer"
     inkscape:label="Layer 1">
    <rect
       y="0.21932557"
       x="0.64996892"
       height="420"
       width="900"
       id="rect3014"
       style="fill:#008000;fill-opacity:1;fill-rule:nonzero;stroke:none" />
    <rect
       y="23.640408"
       x="26.03266"
       height="377.56793"
       width="404.06104"
       id="rect3790"
       style="fill:#000000;fill-opacity:1;fill-rule:nonzero;stroke:none" />
    <path
       inkscape:connector-curvature="0"
       id="path3000"
       d="M165.07719 78.409264L183.19406 77.322744L246.32861 326.68056L156.84226 329.39687L165.07719 78.409264"
       style="fill:#c8b7b7;stroke:none" />
    <path
       sodipodi:nodetypes="ccccccc"
       inkscape:connector-curvature="0"
       id="path3806"
       d="M165.10189 78.459166L167.87478 123.25862L169.46916 305.49329L228.76071 304.40677L187.19216 120.42864L183.27641 77.372636L165.10189 78.459166"
       style="fill:#ac9d93;stroke:none" />
    <path
       sodipodi:nodetypes="cccc"
       inkscape:connector-curvature="0"
       id="path3002"
       d="M162.33222 163.15832L139.27438 185.97538L157.9004 292.43988L162.33222 163.15832"
       style="fill:#483737;stroke:none" />
    <path
       inkscape:connector-curvature="0"
       id="path3004"
       d="M203.8473 158.77404L227.4541 173.9854L247.218 328.81543L203.8473 158.77404"
       style="fill:#6c5353;stroke:none" />
    <path
       sodipodi:nodetypes="ccccccccc"
       inkscape:connector-curvature="0"
       id="path3014"
       d="M33.707706 95.894423L51.275596 104.04337L70.490436 346.88203L48.530596 364.80973L49.968982 401.18494L25.975098 401.20989L25.939421 35.971021L37.001686 39.395054L33.707706 95.894423"
       style="fill:#ac9d93;stroke:none" />
    <path
       sodipodi:nodetypes="ccccccc"
       inkscape:connector-curvature="0"
       id="path3794"
       d="M167.27318 106.65895L185.89919 104.46326L195.82096 130.01926L187.11938 120.45641L167.82217 123.50011L162.92105 134.22455L167.27318 106.65895"
       style="fill:#000000;stroke:none" />
    <path
       inkscape:connector-curvature="0"
       id="path3796"
       d="M227.98136 178.13339L252.325 186.86172L246.45112 326.09039L227.98136 178.13339"
       style="fill:#918a6f;stroke:none" />
    <path
       inkscape:connector-curvature="0"
       id="path3798"
       d="M252.03859 191.87398L259.19923 192.7919L246.39585 325.1436L252.03859 191.87398"
       style="fill:#aca793;stroke:none" />
    <path
       sodipodi:nodetypes="ccccc"
       inkscape:connector-curvature="0"
       id="path3800"
       d="M58.425811 197.30087L77.40801 200.00964L97.851707 272.26364L64.398342 275.52322L58.425811 197.30087"
       style="fill:#ffccaa;stroke:none" />
    <path
       inkscape:connector-curvature="0"
       id="path3802"
       d="M161.02908 207.71348L142.36323 209.88653L143.46121 231.61705L159.93109 233.24683L161.02908 207.71348"
       style="fill:#502d16;stroke:none" />
    <path
       sodipodi:nodetypes="ccccc"
       inkscape:connector-curvature="0"
       id="path3804"
       d="M157.01122 329.31515L171.11615 305.49329L228.76071 303.8635L246.87751 326.68056L157.01122 329.31515"
       style="fill:#00ffff;stroke:none" />
    <rect
       style="fill:#000000;fill-opacity:1;fill-rule:nonzero;stroke:none"
       id="rect3784"
       width="404.06104"
       height="377.56793"
       x="464.43884"
       y="23.660717" />
    <path
       style="fill:#c8b7b7;stroke:none"
       d="M543.48341 58.429574L561.60031 57.343054L624.73491 306.70087L535.24851 309.41718L543.48341 58.429574"
       id="path3786"
       inkscape:connector-curvature="0" />
    <path
       sodipodi:nodetypes="ccccc"
       style="fill:#ac9d93;stroke:none"
       d="M543.57126 58.353207L549.75041 285.33503L607.16701 284.42708L561.30385 57.771753L543.57126 58.353207"
       id="path3788"
       inkscape:connector-curvature="0" />
    <path
       sodipodi:nodetypes="cccc"
       style="fill:#916f6f;stroke:none"
       d="M540.73851 143.17863L517.68061 165.99569L536.84237 271.56733L540.73851 143.17863"
       id="path3790"
       inkscape:connector-curvature="0" />
    <path
       sodipodi:nodetypes="cccc"
       style="fill:#6c5353;stroke:none"
       d="M581.93978 138.02141L606.61801 153.50063L624.41762 306.1878L581.93978 138.02141"
       id="path3793"
       inkscape:connector-curvature="0" />
    <path
       sodipodi:nodetypes="ccccccc"
       style="fill:#000000;stroke:none"
       d="M545.05441 87.393549L563.72378 86.383957L576.12125 114.83779L564.89431 102.43389L546.22841 103.52042L541.54545 116.72319L545.05441 87.393549"
       id="path3799"
       inkscape:connector-curvature="0" />
    <path
       sodipodi:nodetypes="cccc"
       style="fill:#918a6f;stroke:none"
       d="M607.60387 159.1043L623.90253 168.33976L624.40433 306.87945L607.60387 159.1043"
       id="path3801"
       inkscape:connector-curvature="0" />
    <path
       sodipodi:nodetypes="cccc"
       style="fill:#aca793;stroke:none"
       d="M623.95557 173.74219L631.09257 174.82872L624.45738 306.66312L623.95557 173.74219"
       id="path3803"
       inkscape:connector-curvature="0" />
    <path
       style="fill:#d45500;stroke:none"
       d="M540.05773 188.52204L503.73647 190.69509L505.87302 212.42561L537.92117 214.05539L540.05773 188.52204"
       id="path3807"
       inkscape:connector-curvature="0" />
    <path
       style="fill:#ffccaa;stroke:none"
       d="M494.38299 173.05577L503.88629 175.0228L513.45769 247.08584L500.43544 250.62921L494.38299 173.05577"
       id="path3805"
       inkscape:connector-curvature="0" />
    <path
       sodipodi:nodetypes="ccccc"
       style="fill:#008080;stroke:none"
       d="M535.29573 309.56184L549.74562 285.33503L607.16701 283.88381L624.21238 306.87944L535.29573 309.56184"
       id="path3809"
       inkscape:connector-curvature="0" />
    <path
       sodipodi:nodetypes="cccccccc"
       inkscape:connector-curvature="0"
       id="path3017"
       d="M188.73012 98.790754L235.35016 85.219325L228.56068 98.790753L238.92266 109.50504L236.41998 122.36219L258.57143 139.50504L195.33887 124.50504L188.73012 98.790754"
       style="opacity:0.38990826;fill:#ffffff;stroke:none" />
    <path
       sodipodi:nodetypes="cccccccc"
       inkscape:connector-curvature="0"
       id="path3019"
       d="M236.56436 244.43197L240.44288 274.93705L283.16317 286.36562L279.38292 269.93705L293.49836 256.36562L277.53402 248.50848L288.33077 233.50848L236.56436 244.43197L236.56436 244.43197"
       style="opacity:0.37155965;fill:#ffffff;stroke:none" />
    <path
       sodipodi:nodetypes="ccccc"
       inkscape:connector-curvature="0"
       id="path3792"
       d="M165.18974 78.422507L183.15014 77.259609L187.28874 120.55544L167.92319 123.39941L165.18974 78.422507"
       style="opacity:0.38073395;fill:#483e37;stroke:none" />
    <path
       sodipodi:nodetypes="ccccc"
       inkscape:connector-curvature="0"
       id="path3845"
       d="M164.93568 78.076468L167.89211 123.60856L170.64997 305.57647L156.36426 329.86219L164.93568 78.076468"
       style="opacity:0.65596331;fill:#000000;stroke:none" />
    <path
       sodipodi:nodetypes="ccccc"
       inkscape:connector-curvature="0"
       id="path3847"
       d="M37.836154 277.44884L64.979012 276.73455L70.693297 346.73455L48.211245 364.96678L37.836154 277.44884"
       style="opacity:0.52293581;fill:#000000;stroke:none" />
    <path
       sodipodi:nodetypes="ccccc"
       style="opacity:0.6238532;fill:#483e37;stroke:none"
       d="M543.6591 58.505951L561.05131 57.343054L565.09049 101.89786L546.29434 103.38244L543.6591 58.505951"
       id="path3797"
       inkscape:connector-curvature="0" />
    <path
       sodipodi:nodetypes="ccccc"
       inkscape:connector-curvature="0"
       id="path3849"
       d="M543.5964 58.612183L546.00711 103.07647L549.75712 285.21933L535.29283 309.51588L543.5964 58.612183"
       style="opacity:0.54587157;fill:#000000;stroke:none" />
    <path
       style="fill:#ac9d93;stroke:none"
       d="M472.61899 84.277669L490.18688 92.426616L509.40172 335.26528L487.44188 353.19298L488.88026 389.56819L464.43995 389.68243L464.58284 23.818553L475.91297 27.7783L472.61899 84.277669"
       id="path3857"
       inkscape:connector-curvature="0"
       sodipodi:nodetypes="ccccccccc" />
    <path
       sodipodi:nodetypes="ccccc"
       style="opacity:0.52293581;fill:#000000;stroke:none"
       d="M476.72004 265.04652L503.8629 264.33223L509.45091 335.27925L487.34767 353.32207L476.72004 265.04652"
       id="path3851"
       inkscape:connector-curvature="0" />
    <path
       sodipodi:nodetypes="ccccc"
       inkscape:connector-curvature="0"
       id="path3853"
       d="M25.649969 93.076469L33.254574 95.341878L37.07854 38.790754L26.364255 36.647897L25.649969 93.076469"
       style="opacity:0.5091743;fill:#000000;stroke:none" />
    <path
       style="opacity:0.5091743;fill:#000000;stroke:none"
       d="M464.92037 81.247078L472.07854 83.691058L475.90251 27.139934L465.18822 24.997077L464.92037 81.247078"
       id="path3855"
       inkscape:connector-curvature="0"
       sodipodi:nodetypes="ccccc" />
    <path
       sodipodi:nodetypes="ccccc"
       inkscape:connector-curvature="0"
       id="path3859"
       d="M535.82854 295.3979L548.58729 226.4628L547.02179 152.25053L542.07855 117.18361L535.82854 295.3979"
       style="opacity:0.25688076;fill:#e3dbdb;stroke:none" />
  </g>
</svg>
