<?xml version="1.0" encoding="UTF-8" standalone="no"?>
<!-- Created with Inkscape (http://www.inkscape.org/) -->

<svg
   xmlns:dc="http://purl.org/dc/elements/1.1/"
   xmlns:cc="http://creativecommons.org/ns#"
   xmlns:rdf="http://www.w3.org/1999/02/22-rdf-syntax-ns#"
   xmlns:svg="http://www.w3.org/2000/svg"
   xmlns="http://www.w3.org/2000/svg"
   xmlns:sodipodi="http://sodipodi.sourceforge.net/DTD/sodipodi-0.dtd"
   xmlns:inkscape="http://www.inkscape.org/namespaces/inkscape"
   width="31.999998"
   height="32"
   id="svg2"
   version="1.1"
   inkscape:version="0.48.4 r9943 custom"
   sodipodi:docname="lab-equipment.svg">
  <sodipodi:namedview
     id="base"
     pagecolor="#ffffff"
     bordercolor="#666666"
     borderopacity="1.0"
     inkscape:pageopacity="0.0"
     inkscape:pageshadow="2"
     inkscape:zoom="16"
     inkscape:cx="43.062244"
     inkscape:cy="14.534667"
     inkscape:document-units="px"
     inkscape:current-layer="layer1"
     showgrid="false"
     inkscape:window-width="1855"
     inkscape:window-height="1035"
     inkscape:window-x="740"
     inkscape:window-y="23"
     inkscape:window-maximized="0"
     showguides="true"
     inkscape:guide-bbox="true"
     fit-margin-top="0"
     fit-margin-left="0"
     fit-margin-right="0"
     fit-margin-bottom="0" />
  <defs
     id="defs4" />
  <metadata
     id="metadata7">
    <rdf:RDF>
      <cc:Work
         rdf:about="">
        <dc:format>image/svg+xml</dc:format>
        <dc:type
           rdf:resource="http://purl.org/dc/dcmitype/StillImage" />
        <dc:title />
      </cc:Work>
    </rdf:RDF>
  </metadata>
  <g
     id="layer1"
     inkscape:groupmode="layer"
     inkscape:label="Layer 1">
    <path
       inkscape:connector-curvature="0"
       id="path3771"
       d="M 6.984699,11.851439 6.984699,3.3914111 13.1158,4.0227561 12.896832,0.2346841 15.195994,0.9922981 15.195994,3.7702181 21.983999,3.8964871 21.765031,0.7397601 23.845225,0.9922981 23.735742,3.3914111 28.662519,3.6439491 27.786647,6.9269448 19.684836,6.2955995 20.013287,10.083672 16.838253,9.578595 16.619285,6.2955995 9.2838609,6.1693304 9.1743779,12.356515 6.984699,11.851439"
       style="fill:#917c6f;stroke:none" />
    <path
       sodipodi:nodetypes="ccccccccc"
       inkscape:connector-curvature="0"
       id="path3773"
       d="M 6.9846989,9.073519 8.2985064,8.8209809 9.1743779,5.0329088 15.414962,5.411716 16.728769,6.4218685 9.5028289,6.4218685 9.2838609,11.472631 7.1336689,11.097964 6.9846989,9.073519"
       style="opacity:0.55504587;fill:#483737;fill-opacity:1;stroke:none" />
    <path
       sodipodi:nodetypes="cccc"
       inkscape:connector-curvature="0"
       id="path2995"
       d="M 1.5079773,32.077603 19.660324,32.076811 19.914964,10.911751 1.5105022,10.525613"
       style="fill:#000000;fill-opacity:1;stroke:none" />
    <path
       sodipodi:nodetypes="ccccccccc"
       inkscape:connector-curvature="0"
       id="path3775"
       d="M 16.509801,7.8108283 19.137416,7.4320211 19.2469,4.9066397 28.224583,5.5379851 27.896131,6.9269448 19.794319,6.4218685 20.232255,10.209941 16.947737,9.704864 16.509801,7.8108283"
       style="opacity:0.55045872;fill:#483737;fill-opacity:1;stroke:none" />
    <path
       sodipodi:nodetypes="cccc"
       inkscape:connector-curvature="0"
       id="path3765"
       d="M 19.63645,32.065649 27.581235,32.062148 27.02026,15.513242 19.794319,11.156959"
       style="fill:#1a1a1a;fill-opacity:1;stroke:none" />
    <path
       inkscape:connector-curvature="0"
       id="path3767"
       d="M 24.064193,18.796237 22.85987,19.80639 23.626258,22.205502 27.15403,20.657007 26.691808,20.185197 27.120823,19.324292 24.064193,18.796237"
       style="fill:#483737;stroke:none"
       sodipodi:nodetypes="ccccccc" />
    <path
       inkscape:connector-curvature="0"
       id="path3769"
       d="M 25.378001,19.301314 25.416709,20.876969 C 30.482798,19.490639 28.997995,24.79279 29.700357,32.07872 L 30.697833,32.079995 C 29.283387,23.998586 32.446544,19.139009 25.378001,19.301314"
       style="fill:#333333;fill-opacity:1;stroke:none"
       sodipodi:nodetypes="ccccc" />
    <path
       sodipodi:nodetypes="cccc"
       inkscape:connector-curvature="0"
       id="path3777"
       d="M 3.5906967,14.124282 16.838253,14.503089 17.276189,23.341924 4.1381166,23.215655"
       style="fill:#008000;stroke:#000000;stroke-width:0.93116516px;stroke-linecap:butt;stroke-linejoin:miter;stroke-opacity:1" />
    <path
       style="fill:#002b00;stroke:#000000;stroke-width:0.93116516px;stroke-linecap:butt;stroke-linejoin:miter;stroke-opacity:1"
       d="M 3.5906967,14.124282 16.838253,14.503089 17.276189,23.341924 4.1381166,23.215655"
       id="path3002"
       inkscape:connector-curvature="0"
       sodipodi:nodetypes="cccc" />
    <path
       sodipodi:nodetypes="cccc"
       inkscape:connector-curvature="0"
       id="active"
       d="M 3.5906967,14.124282 16.838253,14.503089 17.276189,23.341924 4.1381166,23.215655"
       style="fill:#55d400;stroke:#000000;stroke-width:0.93116516px;stroke-linecap:butt;stroke-linejoin:miter;stroke-opacity:1" />
  </g>
</svg>
