<?xml version="1.0" encoding="UTF-8" standalone="no"?>
<!-- Created with Inkscape (http://www.inkscape.org/) -->

<svg
   xmlns:dc="http://purl.org/dc/elements/1.1/"
   xmlns:cc="http://creativecommons.org/ns#"
   xmlns:rdf="http://www.w3.org/1999/02/22-rdf-syntax-ns#"
   xmlns:svg="http://www.w3.org/2000/svg"
   xmlns="http://www.w3.org/2000/svg"
   xmlns:sodipodi="http://sodipodi.sourceforge.net/DTD/sodipodi-0.dtd"
   xmlns:inkscape="http://www.inkscape.org/namespaces/inkscape"
   width="233.25591"
   height="45.123001"
   id="svg4042"
   version="1.1"
   inkscape:version="0.48.4 r9943 custom"
   sodipodi:docname="logo.svg"
   inkscape:export-filename="/Users/monty/Desktop/derelict.png"
   inkscape:export-xdpi="90"
   inkscape:export-ydpi="90">
  <sodipodi:namedview
     id="base"
     pagecolor="#ffffff"
     bordercolor="#666666"
     borderopacity="1.0"
     inkscape:pageopacity="0.0"
     inkscape:pageshadow="2"
     inkscape:zoom="1.979899"
     inkscape:cx="173.02874"
     inkscape:cy="-18.088419"
     inkscape:document-units="px"
     inkscape:current-layer="layer1"
     showgrid="false"
     inkscape:window-width="1857"
     inkscape:window-height="1036"
     inkscape:window-x="63"
     inkscape:window-y="22"
     inkscape:window-maximized="0"
     fit-margin-top="0"
     fit-margin-left="0"
     fit-margin-right="0"
     fit-margin-bottom="0" />
  <defs
     id="defs4044">
    <inkscape:perspective
       id="perspective4070"
       inkscape:persp3d-origin="372.04724 : 350.78739 : 1"
       inkscape:vp_z="744.09448 : 526.18109 : 1"
       inkscape:vp_y="0 : 1000 : 0"
       inkscape:vp_x="0 : 526.18109 : 1"
       sodipodi:type="inkscape:persp3d" />
  </defs>
  <metadata
     id="metadata4047">
    <rdf:RDF>
      <cc:Work
         rdf:about="">
        <dc:format>image/svg+xml</dc:format>
        <dc:type
           rdf:resource="http://purl.org/dc/dcmitype/StillImage" />
        <dc:title />
      </cc:Work>
    </rdf:RDF>
  </metadata>
  <g
     id="layer1"
     inkscape:groupmode="layer"
     inkscape:label="Layer 1"
	>
    <path
       sodipodi:nodetypes="cccccccccccccccccccccccccccccccc"
       inkscape:connector-curvature="0"
       id="path3026"
       d="M 8.1583792,13.082769 5.1493792,8.6577693 2.3173792,8.9527693 0.48837919,7.0647693 3.2554412,5.0083893 10.066069,5.6610593 20.42304,5.0189393 25.555288,5.7956593 29.952414,6.6105993 37.304379,13.495769 40.077379,25.000769 37.894379,35.443769 31.935379,42.228769 20.849097,44.878779 10.529552,44.259479 3.3849862,44.883769 1.5098502,42.783209 2.1448822,40.950179 5.1493792,41.166769 8.1583792,36.741769 8.1583792,13.082769 8.1583792,13.082769 M 13.114379,12.492769 13.114379,37.449769 15.769379,40.753769 20.830665,40.950439 30.991379,37.154769 34.826379,25.000769 32.466379,15.029769 26.094379,9.7197693 19.616555,8.9735393 14.117379,9.4837693 13.114379,12.492769 13.114379,12.492769"
       style="font-size:59px;font-style:normal;font-variant:normal;font-weight:normal;font-stretch:normal;line-height:125%;letter-spacing:0px;word-spacing:0px;fill:#000000;fill-opacity:1;stroke:none;font-family:American Typewriter;-inkscape-font-specification:American Typewriter" />
    <path
       sodipodi:nodetypes="ccccccccccccccccccccccc"
       inkscape:connector-curvature="0"
       id="path3028"
       style="font-size:59px;font-style:normal;font-variant:normal;font-weight:normal;font-stretch:normal;line-height:125%;letter-spacing:0px;word-spacing:0px;fill:#000000;fill-opacity:1;stroke:none;font-family:American Typewriter;-inkscape-font-specification:American Typewriter"
       d="M 71.436801,23.242769 70.286301,26.251769 50.049301,26.930269 52.084801,34.747769 58.692801,37.697769 63.412801,36.281769 66.510301,31.827269 68.722801,29.555769 70.905801,31.797769 67.011801,38.641769 58.161801,41.591769 48.308801,37.461769 44.650801,26.251769 48.544801,14.569769 58.692801,10.085769 67.837801,13.802769 71.436801,23.242769 M 66.038301,22.121769 64.297801,16.280769 58.751801,13.979769 52.733801,16.398769 50.668801,22.121769 66.038301,22.121769" />
    <path
       sodipodi:nodetypes="ccccccccccccccccccccccccsccccccccccccc"
       inkscape:connector-curvature="0"
       id="path3030"
       style="font-size:59px;font-style:normal;font-variant:normal;font-weight:normal;font-stretch:normal;line-height:125%;letter-spacing:0px;word-spacing:0px;fill:#000000;fill-opacity:1;stroke:none;font-family:American Typewriter;-inkscape-font-specification:American Typewriter"
       d="M 84.673082,10.799769 84.673082,12.392769 92.874083,8.0857693 99.541073,10.445769 102.13707,16.404769 100.83907,20.652769 97.417083,22.245769 95.116083,21.419769 94.172083,19.413769 94.880083,17.761769 96.532083,16.994769 97.299083,17.171769 97.653083,15.873769 96.119083,12.982769 92.402083,11.802769 86.266082,15.932769 85.322082,23.602769 85.322082,27.496769 85.381082,31.921769 87.210082,35.284769 89.924083,34.871769 91.812083,36.759769 89.393083,38.824769 89.157083,38.824769 82.680345,38.412009 76.767082,38.824769 74.348082,36.759769 76.590082,34.930769 79.186082,35.284769 80.779082,32.570769 80.897082,29.561769 80.720082,16.168769 78.950082,12.687769 76.354082,13.041769 74.407082,11.153769 76.944082,9.0887693 83.139082,9.1477693 84.673082,10.799769" />
    <path
       sodipodi:nodetypes="ccccccccccccccccccccccccccc"
       inkscape:connector-curvature="0"
       id="path3032"
       style="font-size:59px;font-style:normal;font-variant:normal;font-weight:normal;font-stretch:normal;line-height:125%;letter-spacing:0px;word-spacing:0px;fill:#000000;fill-opacity:1;stroke:none;font-family:American Typewriter;-inkscape-font-specification:American Typewriter"
       d="M 131.4739,27.242769 131.1789,30.015769 129.4679,30.487769 110.0864,30.930269 112.1219,38.747769 118.7299,41.697769 123.4499,40.281769 126.2819,36.682769 126.8129,34.971769 128.7599,33.555769 130.9429,35.797769 127.0489,42.641769 118.1989,45.591769 108.3459,41.461769 104.6879,30.251769 108.5819,18.569769 118.7299,14.085769 127.8749,17.802769 131.4739,27.242769 M 110.0569,25.708769 111.3549,26.534769 125.4559,26.534769 126.6949,25.708769 124.3349,20.280769 118.7889,17.979769 112.7709,20.398769 110.0569,25.708769" />
    <path
       sodipodi:nodetypes="cccccccccccccccccc"
       inkscape:connector-curvature="0"
       id="path3034"
       style="font-size:59px;font-style:normal;font-variant:normal;font-weight:normal;font-stretch:normal;line-height:125%;letter-spacing:0px;word-spacing:0px;fill:#000000;fill-opacity:1;stroke:none;font-family:American Typewriter;-inkscape-font-specification:American Typewriter"
       d="M 145.06418,34.275769 146.65718,37.284769 149.07618,36.871769 151.02318,38.877769 148.60418,40.824769 142.40918,40.352769 136.65668,40.824769 134.03118,38.700769 136.03718,36.871769 139.99018,36.281769 140.34418,5.3657693 138.69218,4.0087694 136.09618,4.3627694 134.09018,2.4747694 136.45018,0.52776938 144.12018,0.46876938 145.47718,2.1797694 145.41818,3.0647694" />
    <path
       sodipodi:nodetypes="ccccccccccccccccccccccccccccc"
       inkscape:connector-curvature="0"
       id="path3036"
       style="font-size:59px;font-style:normal;font-variant:normal;font-weight:normal;font-stretch:normal;line-height:125%;letter-spacing:0px;word-spacing:0px;fill:#000000;fill-opacity:1;stroke:none;font-family:American Typewriter;-inkscape-font-specification:American Typewriter"
       d="M 163.62521,36.629769 165.21821,39.284769 167.57821,38.871769 169.82021,40.818769 169.05321,42.234769 167.22421,42.824769 161.50121,42.293769 155.01121,42.824769 152.65121,40.818769 154.65721,38.871769 157.43021,39.225769 159.14121,35.449769 159.14121,20.345769 157.37121,16.628769 154.77521,17.041769 152.65121,15.153769 155.24721,13.147769 159.25921,13.442769 162.15021,13.147769 163.86121,15.448769 M 160.49821,10.020769 158.13821,9.0767693 157.19421,6.7167693 158.13821,4.4157694 160.49821,3.4717694 162.79921,4.4157694 163.80221,6.7167693 162.79921,9.0767693 160.49821,10.020769" />
    <path
       sodipodi:nodetypes="cccccccccccccccccccccccccc"
       inkscape:connector-curvature="0"
       id="path3038"
       style="font-size:59px;font-style:normal;font-variant:normal;font-weight:normal;font-stretch:normal;line-height:125%;letter-spacing:0px;word-spacing:0px;fill:#000000;fill-opacity:1;stroke:none;font-family:American Typewriter;-inkscape-font-specification:American Typewriter"
       d="M 189.49948,19.118769 192.44948,16.404769 190.44348,13.159769 186.13648,11.979769 179.58748,15.224769 177.10948,23.838769 179.41048,32.570769 185.90048,35.697769 190.38448,34.222769 193.03948,30.151769 193.74748,27.791769 195.63548,26.611769 197.93648,28.912769 196.99248,32.452769 194.75048,35.874769 185.72348,39.591769 175.98848,35.343769 172.33048,24.192769 176.10648,12.510769 186.25448,8.0857693 194.10148,10.681769 197.22848,17.171769 195.98948,20.770769 192.92148,22.186769 190.44348,21.301769 189.49948,19.118769" />
    <path
       sodipodi:nodetypes="cccccccccccccccccccccccccccc"
       inkscape:connector-curvature="0"
       id="path3040"
       style="font-size:59px;font-style:normal;font-variant:normal;font-weight:normal;font-stretch:normal;line-height:125%;letter-spacing:0px;word-spacing:0px;fill:#000000;fill-opacity:1;stroke:none;font-family:American Typewriter;-inkscape-font-specification:American Typewriter"
       d="M 218.63165,34.446769 218.74965,30.670769 220.87365,28.251769 222.93865,30.965769 221.28665,39.933769 213.91165,43.355769 207.18565,40.346769 205.71065,32.912769 205.71065,18.752769 204.58965,17.513769 201.10865,16.923769 200.51865,15.389769 201.10865,13.914769 204.82565,13.265769 205.82865,12.144769 205.82865,6.0677693 208.12965,3.8257694 210.25365,6.0677693 210.25365,12.380769 211.31565,13.265769 217.74665,13.265769 219.98865,15.330769 217.56965,17.513769 211.07965,17.513769 210.25365,18.752769 210.25365,33.266769 214.32465,39.461769 218.63165,34.446769" />
    <path
       inkscape:connector-curvature="0"
       d="M 231.26429,39.400609 229.50429,38.680609 228.78429,36.880609 229.50429,35.120609 231.26429,34.360609 233.02429,35.120609 233.74429,36.880609 233.02429,38.680609 231.26429,39.400609"
       style="font-size:40px;font-style:normal;font-variant:normal;font-weight:normal;font-stretch:normal;line-height:125%;letter-spacing:0px;word-spacing:0px;fill:#000000;fill-opacity:1;stroke:none;font-family:American Typewriter;-inkscape-font-specification:American Typewriter"
       id="path3141" />
  </g>
</svg>
