<?xml version="1.0" encoding="UTF-8" standalone="no"?>
<svg
   width="128"
   height="128"
   id="svg4042"
   version="1.1"
   sodipodi:docname="sms_art.svg"
   inkscape:version="1.3.2 (091e20e, 2023-11-25)"
   xmlns:inkscape="http://www.inkscape.org/namespaces/inkscape"
   xmlns:sodipodi="http://sodipodi.sourceforge.net/DTD/sodipodi-0.dtd"
   xmlns="http://www.w3.org/2000/svg"
   xmlns:svg="http://www.w3.org/2000/svg">
  <sodipodi:namedview
     id="namedview1"
     pagecolor="#ffffff"
     bordercolor="#000000"
     borderopacity="0.25"
     inkscape:showpageshadow="2"
     inkscape:pageopacity="0.0"
     inkscape:pagecheckerboard="0"
     inkscape:deskcolor="#d1d1d1"
     inkscape:zoom="3.6875"
     inkscape:cx="104.27119"
     inkscape:cy="68.745763"
     inkscape:window-width="1440"
     inkscape:window-height="872"
     inkscape:window-x="0"
     inkscape:window-y="28"
     inkscape:window-maximized="0"
     inkscape:current-layer="svg4042" />
  <defs
     id="defs1" />
  <path
     style="fill:#550000;stroke:none;stroke-width:0.501963;stroke-miterlimit:4;stroke-dasharray:none;stroke-opacity:1"
     d="M 64.0605 76.8649 C 64.0605 76.8649 46.2858 111.554 46.2858 111.554 L 106.516 111.571 L 106.459 71.4559 L 78.8548 69.5233 Z"
     id="path1794" />
  <path
     style="fill:#2b0000;stroke:none;stroke-width:0.501963;stroke-miterlimit:4;stroke-dasharray:none;stroke-opacity:1"
     d="M 68.4436 88.6689 C 68.4436 88.6689 106.458 90.1432 106.458 90.1432 L 106.482 111.539 L 64.1355 111.586 Z"
     id="path1796" />
  <path
     style="fill:#aa0000;stroke:none;stroke-width:0.501963;stroke-miterlimit:4;stroke-dasharray:none;stroke-opacity:1"
     d="M 70.3139 40.1755 L 69.3235 66.1056 L 80.2169 79.4623 L 104.647 73.3488 L 106.443 70.4405 L 106.486 80.3741 L 80.2169 84.4947 L 68.8529 71.1829 L 69.1776 66.4749 L 70.3139 40.1755"
     id="path1798" />
  <path
     style="fill:#aa0000;stroke:none;stroke-width:0.501963;stroke-miterlimit:4;stroke-dasharray:none;stroke-opacity:1"
     d="M 106.433 15.8756 C 106.433 15.8756 73.3984 19.8828 73.3984 19.8828 L 69.1776 41.3119 L 75.3465 53.6498 L 92.3925 56.4096 L 106.476 49.69 L 106.433 15.8756"
     id="path1802" />
  <path
     style="fill:#d4aa00;stroke:none;stroke-width:0.501963;stroke-miterlimit:4;stroke-dasharray:none;stroke-opacity:1"
     d="M 70.0039 47.0224 L 69.1776 65.9878 L 80.0544 79.6246 L 103.669 73.3844 L 106.567 70.3998 L 106.302 49.7892 L 92.2301 55.9227 L 75.5089 53.1629 L 70.164 43.2488"
     id="path1804" />
  <path
     style="fill:#2b2200;stroke:none;stroke-width:0.501963;stroke-miterlimit:4;stroke-dasharray:none;stroke-opacity:1"
     d="M 99.6406 63.5682 C 99.6406 63.5682 102.023 70.2038 102.023 70.2038 C 102.023 70.2038 85.8338 74.0216 85.8338 74.0216 L 85.3093 71.4754 L 92.8145 66.1501 Z"
     id="path1806" />
  <path
     style="fill:#554400;stroke:none;stroke-width:0.501963;stroke-miterlimit:4;stroke-dasharray:none;stroke-opacity:1"
     d="M 79.0155 54.1368 C 79.0155 54.1368 82.5869 72.3192 82.5869 72.3192 L 88.4314 73.2932 C 88.4314 73.2932 103.537 51.0084 103.537 51.0084 L 92.4977 56.3463 L 79.0155 54.1368"
     id="path1808" />
  <path
     style="fill:#93ac93;stroke:none;stroke-width:0.501963;stroke-miterlimit:4;stroke-dasharray:none;stroke-opacity:1"
     d="M 74.7945 20.3697 C 74.7945 20.3697 106.102 22.8572 106.102 22.8572 L 106.241 16.6992 C 106.241 16.6992 74.7945 20.3697 74.7945 20.3697"
     id="path1810" />
  <path
     style="fill:#aad400;stroke:none;stroke-width:0.501963;stroke-miterlimit:4;stroke-dasharray:none;stroke-opacity:1"
     d="M 70.0866 40.3379 L 76.0933 51.0524 L 77.1852 28.5469 C 77.1852 28.5469 74.4699 21.019 74.4699 21.019 L 70.0866 40.3379"
     id="path1812" />
  <path
     style="fill:#ffdd55;stroke:none;stroke-width:0.501963;stroke-miterlimit:4;stroke-dasharray:none;stroke-opacity:1"
     d="M 93.1191 53.7487 L 97.7204 30.0913 C 97.7204 30.0913 106.511 24.3501 106.511 24.3501 L 106.487 48.6014 L 93.1191 53.7487"
     id="path1814" />
  <path
     style="fill:#aad400;stroke:none;stroke-width:0.501963;stroke-miterlimit:4;stroke-dasharray:none;stroke-opacity:1"
     d="M 75.2767 78.656 L 70.7105 74.318 L 64.843 77.3006 L 62.1916 83.6006 Z"
     id="path1816"
     sodipodi:nodetypes="ccccc" />
  <path
     style="fill:#000000;stroke:none;stroke-width:0.501963;stroke-linecap:butt;stroke-linejoin:miter;stroke-miterlimit:4;stroke-dasharray:none;stroke-opacity:1"
     d="M 72.0445 92.1377 C 72.0445 92.1377 70.0726 111.59 70.0726 111.59 L 106.555 111.59 Z"
     id="path1818" />
  <path
     style="fill:#808000;stroke:none;stroke-width:0.501963;stroke-miterlimit:4;stroke-dasharray:none;stroke-opacity:1"
     d="M 78.3106 111.61 C 78.3106 111.61 103.438 111.571 103.438 111.571 L 79.6732 111.61"
     id="path1820" />
  <path
     style="fill:#0000ff;stroke:none;stroke-width:0.501963;stroke-miterlimit:4;stroke-dasharray:none;stroke-opacity:1"
     d="M 82.1038 111.578 C 82.1038 111.578 89.1719 111.578 89.1719 111.578"
     id="path1824" />
  <path
     id="path1826"
     d="M 80.376 84.6252 L 75.5666 53.3219 L 68.8827 71.2222 Z"
     style="fill:#ffffff;stroke:none;stroke-width:0.501963;stroke-miterlimit:4;stroke-dasharray:none;stroke-opacity:1" />
  <path
     style="fill:#2b0000;stroke:none;stroke-width:0.501963;stroke-miterlimit:4;stroke-dasharray:none;stroke-opacity:1"
     d="M 66.6419 84.8377 C 66.6419 84.8377 106.534 86.615 106.534 86.615 L 106.542 84.2729 Z"
     id="path1830" />
  <path
     style="fill:#000000;stroke:none;stroke-width:0.501963;stroke-miterlimit:4;stroke-dasharray:none;stroke-opacity:1"
     d="M 80.1859 84.53 L 92.7989 56.1031 L 106.616 80.3152 Z"
     id="path1834" />
</svg>
