<?xml version="1.0" encoding="UTF-8" standalone="no"?>
<svg
   width="486.6004"
   height="778.61981"
   id="svg4042"
   version="1.1"
   xmlns="http://www.w3.org/2000/svg"
   xmlns:svg="http://www.w3.org/2000/svg">
  <path
     style="fill:#6c6753;stroke:none;stroke-width:4;stroke-miterlimit:4;stroke-dasharray:none;stroke-opacity:1"
     d="M 239.412 199.608 L 266.578 27.551 L 415.349 18.496 L 414.055 212.545 L 263.991 220.306 L 239.412 199.608"
     id="path1792" />
  <path
     style="fill:#550000;stroke:none;stroke-width:4;stroke-miterlimit:4;stroke-dasharray:none;stroke-opacity:1"
     d="M 139.645 495.856 C 139.645 495.856 -1.99719 772.286 -1.99719 772.286 L 477.959 772.416 L 477.505 452.755 L 257.536 437.354 Z"
     id="path1794" />
  <path
     style="fill:#2b0000;stroke:none;stroke-width:4;stroke-miterlimit:4;stroke-dasharray:none;stroke-opacity:1"
     d="M 174.573 589.919 C 174.573 589.919 477.501 601.668 477.501 601.668 L 477.692 772.166 L 140.243 772.536 Z"
     id="path1796" />
  <path
     style="fill:#aa0000;stroke:none;stroke-width:4;stroke-miterlimit:4;stroke-dasharray:none;stroke-opacity:1"
     d="M 189.476 203.489 L 181.584 410.119 L 268.39 516.554 L 463.067 467.838 L 477.375 444.663 L 477.724 523.82 L 268.39 556.657 L 177.834 450.578 L 180.421 413.061 L 189.476 203.489"
     id="path1798" />
  <path
     style="fill:#554400;stroke:none;stroke-width:4;stroke-miterlimit:4;stroke-dasharray:none;stroke-opacity:1"
     d="M 181.715 410.474 L 216.643 279.815 L 477.767 275.836 L 477.375 451.523 L 462.438 468.689 L 264.509 520.435 L 181.715 410.474"
     id="path1800" />
  <path
     style="fill:#aa0000;stroke:none;stroke-width:4;stroke-miterlimit:4;stroke-dasharray:none;stroke-opacity:1"
     d="M 477.295 9.85001 C 477.295 9.85001 214.056 41.782 214.056 41.782 L 180.421 212.545 L 229.58 310.863 L 365.414 332.855 L 477.64 279.307 L 477.295 9.85001"
     id="path1802" />
  <path
     style="fill:#d4aa00;stroke:none;stroke-width:4;stroke-miterlimit:4;stroke-dasharray:none;stroke-opacity:1"
     d="M 187.005 258.05 L 180.421 409.18 L 267.096 517.848 L 455.27 468.122 L 478.37 444.339 L 476.252 280.098 L 364.12 328.974 L 230.874 306.982 L 188.281 227.98"
     id="path1804" />
  <path
     style="fill:#2b2200;stroke:none;stroke-width:4;stroke-miterlimit:4;stroke-dasharray:none;stroke-opacity:1"
     d="M 423.173 389.899 C 423.173 389.899 442.154 442.776 442.154 442.776 C 442.154 442.776 313.15 473.199 313.15 473.199 L 308.97 452.909 L 368.777 410.474 Z"
     id="path1806" />
  <path
     style="fill:#554400;stroke:none;stroke-width:4;stroke-miterlimit:4;stroke-dasharray:none;stroke-opacity:1"
     d="M 258.817 314.743 C 258.817 314.743 287.277 459.633 287.277 459.633 L 333.849 467.395 C 333.849 467.395 454.221 289.814 454.221 289.814 L 366.252 332.35 L 258.817 314.743"
     id="path1808" />
  <path
     style="fill:#93ac93;stroke:none;stroke-width:4;stroke-miterlimit:4;stroke-dasharray:none;stroke-opacity:1"
     d="M 225.181 45.663 C 225.181 45.663 474.662 65.485 474.662 65.485 L 475.77 16.414 C 475.77 16.414 225.181 45.663 225.181 45.663"
     id="path1810" />
  <path
     style="fill:#aad400;stroke:none;stroke-width:4;stroke-miterlimit:4;stroke-dasharray:none;stroke-opacity:1"
     d="M 187.665 204.783 L 235.531 290.164 L 244.231 110.824 C 244.231 110.824 222.594 50.837 222.594 50.837 L 187.665 204.783"
     id="path1812" />
  <path
     style="fill:#ffdd55;stroke:none;stroke-width:4;stroke-miterlimit:4;stroke-dasharray:none;stroke-opacity:1"
     d="M 371.205 311.651 L 407.871 123.132 C 407.871 123.132 477.916 77.382 477.916 77.382 L 477.726 270.633 L 371.205 311.651"
     id="path1814" />
  <path
     style="fill:#aad400;stroke:none;stroke-width:4;stroke-miterlimit:4;stroke-dasharray:none;stroke-opacity:1"
     d="M 229.023 510.129 L 201.042 480.145 C 201.042 480.145 63.6288 595.374 63.6288 595.374 Z"
     id="path1816" />
  <path
     style="fill:#000000;stroke:none;stroke-width:4;stroke-linecap:butt;stroke-linejoin:miter;stroke-miterlimit:4;stroke-dasharray:none;stroke-opacity:1"
     d="M 203.267 617.562 C 203.267 617.562 187.553 772.566 187.553 772.566 L 478.267 772.566 Z"
     id="path1818" />
  <path
     style="fill:#808000;stroke:none;stroke-width:4;stroke-miterlimit:4;stroke-dasharray:none;stroke-opacity:1"
     d="M 253.199 772.726 C 253.199 772.726 453.432 772.416 453.432 772.416 L 264.058 772.726"
     id="path1820" />
  <path
     style="fill:#000080;stroke:none;stroke-width:4;stroke-miterlimit:4;stroke-dasharray:none;stroke-opacity:1"
     d="M 394.651 736.476 L 434.754 742.946 C 434.754 742.946 445.103 767.526 445.103 767.526 L 394.651 736.476"
     id="path1822" />
  <path
     style="fill:#0000ff;stroke:none;stroke-width:4;stroke-miterlimit:4;stroke-dasharray:none;stroke-opacity:1"
     d="M 283.427 772.476 C 283.427 772.476 339.75 772.476 339.75 772.476"
     id="path1824" />
  <path
     id="path1826"
     d="M 269.658 557.696 L 231.333 308.249 L 178.071 450.892 Z"
     style="fill:#ffffff;stroke:none;stroke-width:4;stroke-miterlimit:4;stroke-dasharray:none;stroke-opacity:1" />
  <path
     id="path1828"
     d="M 177.9 451.04 L 231.272 309.198 L 189.856 231.417 Z"
     style="fill:#ffffff;stroke:none;stroke-width:4;stroke-miterlimit:4;stroke-dasharray:none;stroke-opacity:1" />
  <path
     style="fill:#2b0000;stroke:none;stroke-width:4;stroke-miterlimit:4;stroke-dasharray:none;stroke-opacity:1"
     d="M 160.215 559.389 C 160.215 559.389 478.107 573.552 478.107 573.552 L 478.168 554.889 Z"
     id="path1830" />
  <path
     style="fill:#000000;stroke:none;stroke-width:4;stroke-miterlimit:4;stroke-dasharray:none;stroke-opacity:1"
     d="M 306.124 772.566 C 306.124 772.566 319.696 762.566 319.696 762.566 L 336.124 769.706 C 336.124 769.706 392.553 737.566 392.553 737.566 L 431.124 757.566 C 431.124 757.566 442.553 746.846 442.553 746.846 C 442.553 746.846 446.124 767.566 446.124 767.566 L 455.053 772.916 Z"
     id="path1832" />
  <path
     style="fill:#000000;stroke:none;stroke-width:4;stroke-miterlimit:4;stroke-dasharray:none;stroke-opacity:1"
     d="M 268.143 556.938 L 368.653 330.412 L 478.76 523.351 Z"
     id="path1834" />
</svg>
