<?xml version="1.0" encoding="UTF-8" standalone="no"?>
<!-- Created with Inkscape (http://www.inkscape.org/) -->

<svg
   xmlns:dc="http://purl.org/dc/elements/1.1/"
   xmlns:cc="http://creativecommons.org/ns#"
   xmlns:rdf="http://www.w3.org/1999/02/22-rdf-syntax-ns#"
   xmlns:svg="http://www.w3.org/2000/svg"
   xmlns="http://www.w3.org/2000/svg"
   xmlns:sodipodi="http://sodipodi.sourceforge.net/DTD/sodipodi-0.dtd"
   xmlns:inkscape="http://www.inkscape.org/namespaces/inkscape"
   width="744.09448819"
   height="1052.3622047"
   id="svg3136"
   version="1.1"
   inkscape:version="0.48.4 r9943 custom"
   sodipodi:docname="astronaut-icon.svg"
   inkscape:export-filename="/Users/monty/Desktop/hero.png"
   inkscape:export-xdpi="90"
   inkscape:export-ydpi="90">
  <sodipodi:namedview
     id="base"
     pagecolor="#ffffff"
     bordercolor="#666666"
     borderopacity="1.0"
     inkscape:pageopacity="0.0"
     inkscape:pageshadow="2"
     inkscape:zoom="8"
     inkscape:cx="-41.930053"
     inkscape:cy="1042.337"
     inkscape:document-units="px"
     inkscape:current-layer="layer1"
     showgrid="false"
     showguides="true"
     inkscape:guide-bbox="true"
     inkscape:window-width="1860"
     inkscape:window-height="1036"
     inkscape:window-x="60"
     inkscape:window-y="22"
     inkscape:window-maximized="0" />
  <defs
     id="defs3138" />
  <metadata
     id="metadata3141">
    <rdf:RDF>
      <cc:Work
         rdf:about="">
        <dc:format>image/svg+xml</dc:format>
        <dc:type
           rdf:resource="http://purl.org/dc/dcmitype/StillImage" />
		  <dc:title />
      </cc:Work>
    </rdf:RDF>
  </metadata>
  <g
     id="layer1"
     inkscape:groupmode="layer"
     inkscape:label="Layer 1">
    <path
       sodipodi:nodetypes="ccccccccccccccccccccccccccccccccc"
       inkscape:connector-curvature="0"
       id="path3144"
       d="M -5.9838338,3.4298754 -2.276408,-8.745938 -12.625684,-4.223431 -18.573912,3.420675 -20.966686,1.247261 -15.635184,-8.070259 -1.152635,-16.640044 5.578691,-16.941783 7.9147891,-26.422419 10.433349,-29.139906 14.551745,-28.108787 15.340196,-25.357042 14.660811,-24.799687 C 14.405652,-22.364199 13.600622,-19.969831 13.588982,-17.51422 12.150775,-17.335162 11.619971,-17.328885 11.067336,-16.077105 16.5631,-13.329624 20.037024,-8.4518114 24.03551,-3.948659 L 31.881258,-4.01207 32.341169,-1.8071552 22.667553,0.7224901 12.777224,-7.2637775 5.978504,3.1954471 17.195735,12.262967 C 18.915559,17.983444 17.668355,22.738173 18.942388,27.962727 L 25.818601,31.321419 C 24.528453,31.826634 23.432768,32.498532 21.026009,32.046653 L 14.263114,30.846429 C 14.350095,25.531739 12.919647,19.71426 11.066968,15.540523 8.1493928,12.944942 4.5369693,11.907443 0.9570497,10.537465 -3.5694727,21.213455 -5.1736397,30.771544 -8.248231,42.21326 L -6.333092,46.88441 C -8.9084899,47.738469 -11.526115,48.128027 -14.267232,47.15918 L -12.625687,41.114167 -10.97005,26.579593"
       style="fill:#550000;stroke:none" />
    <path
       style="fill:#a0892c;fill-opacity:1;stroke:none"
       d="M 11.75565,-15.545836 C 12.938807,-11.395259 9.0928375,-8.428602 6.8059028,-5.2043989 L 10.326271,-4.8571272 C 12.025713,-8.035689 15.961269,-9.7719046 15.026019,-13.512904 L 11.75565,-15.545836"
       id="path3876"
       inkscape:connector-curvature="0"
       sodipodi:nodetypes="ccccc" />
    <path
       style="fill:#222b00;fill-opacity:1;stroke:none"
       d="M10.783379 -26.240826L8.94683 -20.075088L12.236043 -19.053799L13.550226 -18.992979L14.672466 -25.003387L10.783379 -26.240824"
       id="path3772"
       inkscape:connector-curvature="0"
       sodipodi:nodetypes="cccccc" />
    <path
       style="fill:#806600;stroke:none"
       d="M 10.783378,-26.240826 C 12.557792,-26.418876 13.836853,-26.087703 15.379573,-25.356941 L 14.849242,-24.826611 10.783378,-26.240826"
       id="path3774"
       inkscape:connector-curvature="0"
       sodipodi:nodetypes="cccc" />
    <path
       style="fill:#000080;fill-opacity:1;stroke:none"
       d="M 26.5,-3.3878196 30.531344,-3.8513347 32.283471,-3.7628197 34.75,-4.6378197 C 37.280764,-5.2331924 39.185374,-4.87737 41.5625,-4.1378197 L 40.681934,-3.9224881 40.495278,-3.7643939 39.558717,-3.7537389 38.927966,-3.2324893 C 37.873552,-3.6048341 36.820489,-3.5942174 35.720971,-3.6119313 L 34.8125,-2.8878196 C 34.883078,-1.9695981 35.426579,-1.5686628 36.040403,-0.93959631 35.776126,-0.48969108 35.404177,-0.68582304 35.0625,-0.70031961 L 33.3125,-1.8878196 27.0625,-0.5128196 26.5,-3.3878196"
       id="path3776"
       inkscape:connector-curvature="0"
       sodipodi:nodetypes="cccccccccccccccc" />
    <path
       style="fill:#000080;fill-opacity:1;stroke:none"
       d="M -20.625,1.112181 -22.1875,3.987181 C -22.097568,7.179055 -21.429778,7.227461 -18.625,8.237181 -19.059366,7.2645757 -19.046756,6.390816 -19,5.362181 -18.172207,5.2027645 -17.711051,5.4887512 -17,5.862181 -16.557274,5.5288477 -16.657685,5.1955143 -16.875,4.862181 -19.776771,3.2746258 -17.168425,0.91574168 -16,-1.450319 L -20.625,1.112181"
       id="path3778"
       inkscape:connector-curvature="0"
       sodipodi:nodetypes="cccccccc" />
    <path
       style="fill:#000080;fill-opacity:1;stroke:none"
       d="M -3.5,-3.5128191 C 3.307183,0.69058939 3.6880426,1.9382541 9.375,-2.1378191 L 6,2.987181 C 1.634865,4.5926812 -1.4697565,3.8610853 -5.375,1.737181 L -3.625,-3.9503191"
       id="path3782"
       inkscape:connector-curvature="0"
       sodipodi:nodetypes="ccccc" />
    <path
       style="fill:#808000;stroke:none;stroke-width:1px;stroke-linecap:butt;stroke-linejoin:miter;stroke-opacity:1"
       d="M-21.25 1.9246804L-19.3125 2.6121804L-16.3125 -1.4503196L-14.5 -1.2628196L-12.4375 -4.2628196L-16.3125 -7.3878196L-21.25 1.9246804"
       id="path3784"
       inkscape:connector-curvature="0" />
    <path
       sodipodi:nodetypes="ccccccccc"
       style="fill:#808000;stroke:none"
       d="M23.9375 0.3621804L27.411161 -0.25645628L27.050213 -2.2193002L31.8125 -2.3878196L32.875 -3.3878196L34.75 -4.1378196L34.0625 -4.9503196L25.0 -4.7003196L23.8125 -2.8878196"
       id="path3786"
       inkscape:connector-curvature="0" />
    <path
       style="opacity:0.19266058;fill:#ffffff;stroke:none"
       d="M -0.98351477,-14.761103 C -5.3818199,-12.008714 -9.9706932,-9.5846739 -14.511412,-7.079325 L -20.966686,1.247261 -15.635184,-8.070259 -1.152635,-16.640044 5.578691,-16.941783"
       id="path3788"
       inkscape:connector-curvature="0"
       sodipodi:nodetypes="cccccc" />
    <path
       sodipodi:nodetypes="cccc"
       style="opacity:0.21559634;fill:#ffffff;stroke:none"
       d="M 6.125,3.4246804 C 7.419441,7.9738069 11.120168,10.871135 14.25,14.23718 15.023976,12.769867 15.67478,12.602319 17.1875,12.23718 L 6.125,3.4246804"
       id="path3790"
       inkscape:connector-curvature="0" />
    <path
       sodipodi:nodetypes="ccccccc"
       inkscape:connector-curvature="0"
       id="path3792"
       d="M 7.7380124,-26.157254 10.433349,-29.139906 14.551745,-28.108787 15.027696,-26.325792 C 13.554448,-27.001493 12.195213,-26.803628 10.629277,-26.69586 L 8.7088684,-19.8654 C 7.5641169,-19.673641 6.742,-18.916211 5.910811,-18.174687"
       style="opacity:0.19266058;fill:#ffffff;stroke:none" />
    <path
       sodipodi:nodetypes="cccccccc"
       inkscape:connector-curvature="0"
       id="path3824"
       d="M 11.067336,-16.077105 C 16.5631,-13.329624 20.037024,-8.4518114 24.03551,-3.948659 L 25.248904,-4.7734916 34.318758,-4.94957 38.675881,-4.979991 33.03246,-4.1006988 C 29.880407,-3.9242832 26.811464,-4.3316757 23.980053,-2.9025098 20.661503,-6.8346189 16.728535,-10.038202 12.786107,-13.30039"
       style="opacity:0.19266058;fill:#ffffff;stroke:none" />
    <path
       style="fill:#800000;stroke:none"
       d="M -10.875,26.23718 C -9.7791357,23.98952 -8.3135859,23.771001 -6.0625,23.42468 -8.8260427,16.325137 -7.3425952,10.462308 -5.875,3.6746804 -8.5778035,10.27653 -9.9865624,19.236292 -10.875,26.23718"
       id="path3858"
       inkscape:connector-curvature="0"
       sodipodi:nodetypes="cccc" />
    <path
       style="opacity:0.53669727;fill:#000000;stroke:none"
       d="M -11.6875,40.92468 C -10.30601,40.675904 -9.7223965,41.005582 -8.625,41.73718 L -4.75,28.73718 C -7.6964145,29.903413 -8.3342636,28.749387 -10.5625,26.79968 L -11.6875,40.92468"
       id="path3860"
       inkscape:connector-curvature="0"
       sodipodi:nodetypes="ccccc" />
    <path
       style="opacity:0.31651378;fill:#000000;stroke:none"
       d="M 12.8125,16.86218 C 14.525866,18.123499 16.333467,18.976198 18.3125,19.67468 18.107639,22.550604 18.130977,25.234295 18.875,27.98718 L 16.375,28.11218 14.5,28.48718 C 15.190407,24.600379 13.617649,20.661479 12.8125,16.86218"
       id="path3862"
       inkscape:connector-curvature="0"
       sodipodi:nodetypes="cccccc" />
    <path
       style="opacity:0.28899081;fill:#000000;stroke:none"
       d="M 12.4375,-7.0128196 5.4375,3.1121804 1.25,3.7371804 -3.375,2.4871804 C -2.1395509,-1.2432631 -1.7133122,-5.0753449 -1.25,-8.9503196 6.2654772,-2.8060442 9.5631465,-4.6488917 12.4375,-7.0128196 z"
       id="path3864"
       inkscape:connector-curvature="0"
       sodipodi:nodetypes="cccccc" />
    <path
       style="opacity:0.22935779;fill:#000000;stroke:none"
       d="M 6.4375,-17.51282 8.75,-19.01282 C 10.312235,-18.855444 10.263066,-18.402452 11.71875,-17.85657 10.332127,-17.791455 11.602095,-17.344301 11,-16.20032 10.041134,-15.615801 8.9590636,-15.522422 7.875,-15.32532 6.9281658,-16.010857 6.5734358,-16.425334 6.4375,-17.51282"
       id="path3866"
       inkscape:connector-curvature="0"
       sodipodi:nodetypes="cccccc" />
    <path
       style="fill:#000000;stroke:none;stroke-width:1px;stroke-linecap:butt;stroke-linejoin:miter;stroke-opacity:1;fill-opacity:1;opacity:0.32110092"
       d="M-18.4375 3.1121804L-15.875 -1.3878196L-15.3125 -1.3253196L-13.0625 -4.6378196L-13.5625 -5.2628196L-2.6875 -9.8253196L-1.9375 -9.1378196L-2.0 -8.8253196L-12.4375 -4.3253196L-14.4375 -1.2628196L-15.0 -1.2003196L-18.4375 3.1121804"
       id="path3868"
       inkscape:connector-curvature="0" />
    <path
       style="fill:#000000;stroke:none;stroke-width:1px;stroke-linecap:butt;stroke-linejoin:miter;stroke-opacity:1;fill-opacity:1;opacity:0.3853211"
       d="M12.8125 -7.3253202L13.59375 -7.2940702L22.53125 -0.41907016L23.875 -0.48157016L23.875 -1.0440702L27.1875 -1.4503202L27.21875 -1.2003202L33.375 -2.3565702L35.65625 -0.88782016L35.03125 -0.63782016L33.40625 -1.8565702L27.4375 -0.51282016L27.4375 -0.16907016L22.65625 0.70592984L12.8125 -7.3253202"
       id="path3872"
       inkscape:connector-curvature="0" />
    <path
       style="opacity:0.29816518;fill:#000000;fill-opacity:1;stroke:none"
       d="M 34.957592,-3.038885 35.929863,-3.8785743 C 36.956305,-3.9828764 37.900958,-3.8333904 38.890873,-3.6134092 39.396405,-4.0121388 39.908853,-4.0016809 40.526057,-4.0553506 L 41.520426,-4.1658366 40.702834,-3.9227686 40.486995,-3.7707698 39.548424,-3.7732198 38.954714,-3.2404388 37.453265,-3.5919747 35.775184,-3.6134087 34.957592,-3.038885"
       id="path3874"
       inkscape:connector-curvature="0"
       sodipodi:nodetypes="cccccccccccc" />
    <path
       style="opacity:0.45412843;fill:#504416;fill-opacity:1;stroke:none"
       d="M10.341437 -22.926263L11.976621 -22.57722L12.109204 -20.948348L12.418563 -20.754436L13.027018 -22.274491L13.611806 -22.15061L12.418563 -19.125564L10.141452 -19.770364L10.341437 -22.926263"
       id="path3878"
       inkscape:connector-curvature="0"
       sodipodi:nodetypes="ccccccccc" />
    <path
       style="opacity:0.23853209;fill:#786721;fill-opacity:1;stroke:none"
       d="M 11.004349,-25.445331 11.004349,-24.031118 C 12.995335,-23.769144 12.394351,-22.600287 12.353373,-20.851818 L 13.346632,-23.147234 13.832767,-22.970457 C 14.25285,-24.804455 12.460284,-24.82766 11.004349,-25.445331"
       id="path3880"
       inkscape:connector-curvature="0"
       sodipodi:nodetypes="cccccc" />
  </g>
</svg>
