<?xml version="1.0" encoding="UTF-8" standalone="no"?>
<!-- Created with Inkscape (http://www.inkscape.org/) -->

<svg
   xmlns:dc="http://purl.org/dc/elements/1.1/"
   xmlns:cc="http://creativecommons.org/ns#"
   xmlns:rdf="http://www.w3.org/1999/02/22-rdf-syntax-ns#"
   xmlns:svg="http://www.w3.org/2000/svg"
   xmlns="http://www.w3.org/2000/svg"
   xmlns:sodipodi="http://sodipodi.sourceforge.net/DTD/sodipodi-0.dtd"
   xmlns:inkscape="http://www.inkscape.org/namespaces/inkscape"
   width="744.09448819"
   height="1052.3622047"
   id="svg3136"
   version="1.1"
   inkscape:version="0.48.4 r9943 custom"
   sodipodi:docname="centered-astronaut.svg"
   inkscape:export-filename="/Users/monty/Desktop/hero.png"
   inkscape:export-xdpi="90"
   inkscape:export-ydpi="90">
  <sodipodi:namedview
     id="base"
     pagecolor="#ffffff"
     bordercolor="#666666"
     borderopacity="1.0"
     inkscape:pageopacity="0.0"
     inkscape:pageshadow="2"
     inkscape:zoom="4"
     inkscape:cx="-26.453035"
     inkscape:cy="1012.3919"
     inkscape:document-units="px"
     inkscape:current-layer="layer1"
     showgrid="false"
     showguides="true"
     inkscape:guide-bbox="true"
     inkscape:window-width="1860"
     inkscape:window-height="1036"
     inkscape:window-x="63"
     inkscape:window-y="48"
     inkscape:window-maximized="0" />
  <defs
     id="defs3138" />
  <metadata
     id="metadata3141">
    <rdf:RDF>
      <cc:Work
         rdf:about="">
        <dc:format>image/svg+xml</dc:format>
        <dc:type
           rdf:resource="http://purl.org/dc/dcmitype/StillImage" />
        <dc:title />
      </cc:Work>
    </rdf:RDF>
  </metadata>
  <g
     id="layer1"
     inkscape:groupmode="layer"
     inkscape:label="Layer 1">
    <path
       sodipodi:nodetypes="ccccccccccccccccccccccccccccccccc"
       inkscape:connector-curvature="0"
       id="path3144"
       d="M 20.266166,35.179875 23.973592,23.004062 13.624316,27.526569 7.676088,35.170675 5.283314,32.997261 10.614816,23.679741 25.097365,15.109956 31.828691,14.808217 34.164789,5.327581 36.683349,2.610094 40.801745,3.641213 41.590196,6.392958 40.910811,6.950313 C 40.655652,9.385801 39.850622,11.780169 39.838982,14.23578 38.400775,14.414838 37.869971,14.421115 37.317336,15.672895 42.8131,18.420376 46.287024,23.298189 50.28551,27.801341 L 58.131258,27.73793 58.591169,29.942845 48.917553,32.47249 39.027224,24.486222 32.228504,34.945447 43.445735,44.012967 C 45.165559,49.733444 43.918355,54.488173 45.192388,59.712727 L 52.068601,63.071419 C 50.778453,63.576634 49.682768,64.248532 47.276009,63.796653 L 40.513114,62.596429 C 40.600095,57.281739 39.169647,51.46426 37.316968,47.290523 34.399393,44.694942 30.786969,43.657443 27.20705,42.287465 22.680527,52.963455 21.07636,62.521544 18.001769,73.96326 L 19.916908,78.63441 C 17.34151,79.488469 14.723885,79.878027 11.982768,78.90918 L 13.624313,72.864167 15.27995,58.329593"
       style="fill:#550000;stroke:none" />
    <path
       style="fill:#a0892c;fill-opacity:1;stroke:none"
       d="M 38.00565,16.204164 C 39.188807,20.354741 35.342837,23.321398 33.055903,26.545601 L 36.576271,26.892873 C 38.275713,23.714311 42.211269,21.978095 41.276019,18.237096 L 38.00565,16.204164"
       id="path3876"
       inkscape:connector-curvature="0"
       sodipodi:nodetypes="ccccc" />
    <path
       style="fill:#222b00;fill-opacity:1;stroke:none"
       d="M 37.033379,5.509174 35.19683,11.674912 38.486043,12.696201 39.800226,12.757021 40.922466,6.746613 37.033379,5.509176"
       id="path3772"
       inkscape:connector-curvature="0"
       sodipodi:nodetypes="cccccc" />
    <path
       style="fill:#806600;stroke:none"
       d="M 37.033378,5.509174 C 38.807792,5.331124 40.086853,5.662297 41.629573,6.393059 L 41.099242,6.923389 37.033378,5.509174"
       id="path3774"
       inkscape:connector-curvature="0"
       sodipodi:nodetypes="cccc" />
    <path
       style="fill:#000080;fill-opacity:1;stroke:none"
       d="M 52.75,28.36218 56.781344,27.898665 58.533471,27.98718 61,27.11218 C 63.530764,26.516808 65.435374,26.87263 67.8125,27.61218 L 66.931934,27.827512 66.745278,27.985606 65.808717,27.996261 65.177966,28.517511 C 64.123552,28.145166 63.070489,28.155783 61.970971,28.138069 L 61.0625,28.86218 C 61.133078,29.780402 61.676579,30.181337 62.290403,30.810404 62.026126,31.260309 61.654177,31.064177 61.3125,31.04968 L 59.5625,29.86218 53.3125,31.23718 52.75,28.36218"
       id="path3776"
       inkscape:connector-curvature="0"
       sodipodi:nodetypes="cccccccccccccccc" />
    <path
       style="fill:#000080;fill-opacity:1;stroke:none"
       d="M 5.625,32.862181 4.0625,35.737181 C 4.152432,38.929055 4.820222,38.977461 7.625,39.987181 7.190634,39.014576 7.203244,38.140816 7.25,37.112181 8.077793,36.952764 8.538949,37.238751 9.25,37.612181 9.692726,37.278848 9.592315,36.945514 9.375,36.612181 6.473229,35.024626 9.081575,32.665742 10.25,30.299681 L 5.625,32.862181"
       id="path3778"
       inkscape:connector-curvature="0"
       sodipodi:nodetypes="cccccccc" />
    <path
       style="fill:#000080;fill-opacity:1;stroke:none"
       d="M 22.75,28.237181 C 29.557183,32.440589 29.938043,33.688254 35.625,29.612181 L 32.25,34.737181 C 27.884865,36.342681 24.780243,35.611085 20.875,33.487181 L 22.625,27.799681"
       id="path3782"
       inkscape:connector-curvature="0"
       sodipodi:nodetypes="ccccc" />
    <path
       style="fill:#808000;stroke:none"
       d="M 5,33.67468 6.9375,34.36218 9.9375,30.29968 11.75,30.48718 13.8125,27.48718 9.9375,24.36218 5,33.67468"
       id="path3784"
       inkscape:connector-curvature="0" />
    <path
       sodipodi:nodetypes="ccccccccc"
       style="fill:#808000;stroke:none"
       d="M 50.1875,32.11218 53.661161,31.493544 53.300213,29.5307 58.0625,29.36218 59.125,28.36218 61,27.61218 60.3125,26.79968 51.25,27.04968 50.0625,28.86218"
       id="path3786"
       inkscape:connector-curvature="0" />
    <path
       style="opacity:0.19266058;fill:#ffffff;stroke:none"
       d="M 25.266485,16.988897 C 20.86818,19.741286 16.279307,22.165326 11.738588,24.670675 L 5.283314,32.997261 10.614816,23.679741 25.097365,15.109956 31.828691,14.808217"
       id="path3788"
       inkscape:connector-curvature="0"
       sodipodi:nodetypes="cccccc" />
    <path
       sodipodi:nodetypes="cccc"
       style="opacity:0.21559634;fill:#ffffff;stroke:none"
       d="M 32.375,35.17468 C 33.669441,39.723807 37.370168,42.621135 40.5,45.98718 41.273976,44.519867 41.92478,44.352319 43.4375,43.98718 L 32.375,35.17468"
       id="path3790"
       inkscape:connector-curvature="0" />
    <path
       sodipodi:nodetypes="ccccccc"
       inkscape:connector-curvature="0"
       id="path3792"
       d="M 33.988012,5.592746 36.683349,2.610094 40.801745,3.641213 41.277696,5.424208 C 39.804448,4.748507 38.445213,4.946372 36.879277,5.05414 L 34.958868,11.8846 C 33.814117,12.076359 32.992,12.833789 32.160811,13.575313"
       style="opacity:0.19266058;fill:#ffffff;stroke:none" />
    <path
       sodipodi:nodetypes="cccccccc"
       inkscape:connector-curvature="0"
       id="path3824"
       d="M 37.317336,15.672895 C 42.8131,18.420376 46.287024,23.298189 50.28551,27.801341 L 51.498904,26.976508 60.568758,26.80043 64.925881,26.770009 59.28246,27.649301 C 56.130407,27.825717 53.061464,27.418324 50.230053,28.84749 46.911503,24.915381 42.978535,21.711798 39.036107,18.44961"
       style="opacity:0.19266058;fill:#ffffff;stroke:none" />
    <path
       style="fill:#800000;stroke:none"
       d="M 15.375,57.98718 C 16.470864,55.73952 17.936414,55.521001 20.1875,55.17468 17.423957,48.075137 18.907405,42.212308 20.375,35.42468 17.672196,42.02653 16.263438,50.986292 15.375,57.98718"
       id="path3858"
       inkscape:connector-curvature="0"
       sodipodi:nodetypes="cccc" />
    <path
       style="opacity:0.53669727;fill:#000000;stroke:none"
       d="M 14.5625,72.67468 C 15.94399,72.425904 16.527603,72.755582 17.625,73.48718 L 21.5,60.48718 C 18.553585,61.653413 17.915736,60.499387 15.6875,58.54968 L 14.5625,72.67468"
       id="path3860"
       inkscape:connector-curvature="0"
       sodipodi:nodetypes="ccccc" />
    <path
       style="opacity:0.31651378;fill:#000000;stroke:none"
       d="M 39.0625,48.61218 C 40.775866,49.873499 42.583467,50.726198 44.5625,51.42468 44.357639,54.300604 44.380977,56.984295 45.125,59.73718 L 42.625,59.86218 40.75,60.23718 C 41.440407,56.350379 39.867649,52.411479 39.0625,48.61218"
       id="path3862"
       inkscape:connector-curvature="0"
       sodipodi:nodetypes="cccccc" />
    <path
       style="opacity:0.28899081;fill:#000000;stroke:none"
       d="M 38.6875,24.73718 31.6875,34.86218 27.5,35.48718 22.875,34.23718 C 24.110449,30.506737 24.536688,26.674655 25,22.79968 32.515477,28.943956 35.813146,27.101108 38.6875,24.73718 z"
       id="path3864"
       inkscape:connector-curvature="0"
       sodipodi:nodetypes="cccccc" />
    <path
       style="opacity:0.22935779;fill:#000000;stroke:none"
       d="M 32.6875,14.23718 35,12.73718 C 36.562235,12.894556 36.513066,13.347548 37.96875,13.89343 36.582127,13.958545 37.852095,14.405699 37.25,15.54968 36.291134,16.134199 35.209064,16.227578 34.125,16.42468 33.178166,15.739143 32.823436,15.324666 32.6875,14.23718"
       id="path3866"
       inkscape:connector-curvature="0"
       sodipodi:nodetypes="cccccc" />
    <path
       style="opacity:0.32110093;fill:#000000;fill-opacity:1;stroke:none"
       d="M 7.8125,34.86218 10.375,30.36218 10.9375,30.42468 13.1875,27.11218 12.6875,26.48718 23.5625,21.92468 24.3125,22.61218 24.25,22.92468 13.8125,27.42468 11.8125,30.48718 11.25,30.54968 7.8125,34.86218"
       id="path3868"
       inkscape:connector-curvature="0" />
    <path
       style="opacity:0.3853211;fill:#000000;fill-opacity:1;stroke:none"
       d="M 39.0625,24.42468 39.84375,24.45593 48.78125,31.33093 50.125,31.26843 50.125,30.70593 53.4375,30.29968 53.46875,30.54968 59.625,29.39343 61.90625,30.86218 61.28125,31.11218 59.65625,29.89343 53.6875,31.23718 53.6875,31.58093 48.90625,32.45593 39.0625,24.42468"
       id="path3872"
       inkscape:connector-curvature="0" />
    <path
       style="opacity:0.29816518;fill:#000000;fill-opacity:1;stroke:none"
       d="M 61.207592,28.711115 62.179863,27.871426 C 63.206305,27.767124 64.150958,27.91661 65.140873,28.136591 65.646405,27.737861 66.158853,27.748319 66.776057,27.694649 L 67.770426,27.584163 66.952834,27.827231 66.736995,27.97923 65.798424,27.97678 65.204714,28.509561 63.703265,28.158025 62.025184,28.136591 61.207592,28.711115"
       id="path3874"
       inkscape:connector-curvature="0"
       sodipodi:nodetypes="cccccccccccc" />
    <path
       style="opacity:0.45412843;fill:#504416;fill-opacity:1;stroke:none"
       d="M 36.591437,8.823737 38.226621,9.17278 38.359204,10.801652 38.668563,10.995564 39.277018,9.475509 39.861806,9.59939 38.668563,12.624436 36.391452,11.979636 36.591437,8.823737"
       id="path3878"
       inkscape:connector-curvature="0"
       sodipodi:nodetypes="ccccccccc" />
    <path
       style="opacity:0.23853209;fill:#786721;fill-opacity:1;stroke:none"
       d="M 37.254349,6.304669 37.254349,7.718882 C 39.245335,7.980856 38.644351,9.149713 38.603373,10.898182 L 39.596632,8.602766 40.082767,8.779543 C 40.50285,6.945545 38.710284,6.92234 37.254349,6.304669"
       id="path3880"
       inkscape:connector-curvature="0"
       sodipodi:nodetypes="cccccc" />
  </g>
</svg>
