<?xml version="1.0" encoding="UTF-8" standalone="no"?>
<svg
   xmlns:dc="http://purl.org/dc/elements/1.1/"
   xmlns:cc="http://creativecommons.org/ns#"
   xmlns:rdf="http://www.w3.org/1999/02/22-rdf-syntax-ns#"
   xmlns:svg="http://www.w3.org/2000/svg"
   xmlns="http://www.w3.org/2000/svg"
   xmlns:sodipodi="http://sodipodi.sourceforge.net/DTD/sodipodi-0.dtd"
   xmlns:inkscape="http://www.inkscape.org/namespaces/inkscape"
   id="svg2985"
   version="1.1"
   inkscape:version="0.48.4 r9943 custom"
   width="100%"
   height="100%"
   sodipodi:docname="floor3.svg">
  <sodipodi:namedview
     pagecolor="#ffffff"
     bordercolor="#666666"
     borderopacity="1"
     objecttolerance="10"
     gridtolerance="10"
     guidetolerance="10"
     inkscape:pageopacity="0"
     inkscape:pageshadow="2"
     inkscape:window-width="1858"
     inkscape:window-height="1036"
     id="namedview3036"
     showgrid="false"
     inkscape:zoom="2.0000001"
     inkscape:cx="348.65746"
     inkscape:cy="930.4168"
     inkscape:window-x="62"
     inkscape:window-y="22"
     inkscape:window-maximized="0"
     inkscape:current-layer="svg2985"
     showguides="true"
     inkscape:guide-bbox="true" />
  <metadata
     id="metadata3040">
    <rdf:RDF>
      <cc:Work
         rdf:about="">
        <dc:format>image/svg+xml</dc:format>
        <dc:type
           rdf:resource="http://purl.org/dc/dcmitype/StillImage" />
      </cc:Work>
    </rdf:RDF>
  </metadata>
  <defs
     id="defs3038">
    <linearGradient
       id="linearGradient4219">
      <stop
         style="stop-color:#000000;stop-opacity:1;"
         offset="0"
         id="stop4221" />
      <stop
         style="stop-color:#000000;stop-opacity:1;"
         offset="1"
         id="stop4223" />
    </linearGradient>
  </defs>
  <path
     inkscape:connector-curvature="0"
     style="fill:#800080;stroke:none"
     d="M 341.50994,429.48922 384.30998,429.48922 384.30998,371.62721 341.50994,371.62721 341.50994,429.48922"
     id="lab 2-entry" />
  <path
     inkscape:connector-curvature="0"
     id="lab 2-walls"
     d="M 320.25341,423.38381 629.78273,423.38381 629.78273,728.11084 320.25341,728.11084 320.25341,423.38381"
     style="fill:#a05a2c;fill-opacity:1;fill-rule:nonzero;stroke:none" />
  <path
     id="lab 1-entry"
     d="M 264.21501,196.76786 325.50203,196.76786 325.50203,148.20333 264.21501,148.20333 264.21501,196.76786"
     style="fill:#800080;stroke:none"
     inkscape:connector-curvature="0" />
  <path
     inkscape:connector-curvature="0"
     style="fill:#800080;stroke:none"
     d="M 504.21736,194.74502 541.26094,194.74502 541.26094,150.6909 504.21736,150.6909 504.21736,194.74502"
     id="lab 3-entry" />
  <path
     inkscape:connector-curvature="0"
     style="fill:#008080;stroke:none"
     d="M 333.64022,717.82143 L 616.13664,717.82143 L 616.13664,434.69446 L 333.64022,434.69446 L 333.64022,717.82143"
     id="lab 2 - floor blue" />
  <path
     inkscape:connector-curvature="0"
     style="fill:#008000;stroke:none"
     d="M 358.93357,111.07011 411.19978,111.07011 411.19978,63.633191 358.93357,63.633191 358.93357,111.07011"
     id="elevator-level-3" />
  <path
     inkscape:connector-curvature="0"
     style="fill:#806600;stroke:none"
     d="M 323.24704,382.55656 517.50895,382.55656 517.50895,109.37441 323.24704,109.37441 323.24704,382.55656"
     id="main hall 3-walls" />
  <path
     inkscape:connector-curvature="0"
     id="lab 3-walls"
     d="M 282.22124,115.37921 -28.426726,115.37921 -28.426726,379.53033 282.22124,379.53033 282.22124,115.37921"
     style="fill:#483737;fill-opacity:1;fill-rule:nonzero;stroke:none" />
  <path
     inkscape:connector-curvature="0"
     id="lab 3"
     d="M 271.60243,124.5722 L -16.851136,124.5722 L -16.851136,371.7421 L 271.60243,371.7421 L 271.60243,124.5722"
     style="fill:#008080;fill-opacity:1;fill-rule:nonzero;stroke:none" />
  <path
     sodipodi:nodetypes="cccccc"
     inkscape:connector-curvature="0"
     id="lab 3-lightning"
     d="M 74.492071,124.56147 C 57.139982,185.24213 149.95538,357.45839 271.58493,348.00545 L 271.57953,124.57996 236.21363,124.61889 145.70972,124.57635 z"
     style="opacity:0.31651378;fill:#d7eef4;fill-opacity:1;stroke:none" />
  <path
     sodipodi:nodetypes="ccccc"
     inkscape:connector-curvature="0"
     id="main hall 3 floor"
     d="M 334.81147,122.59899 L 506.12476,122.00778 L 506.12476,370.64401 L 334.81147,371.23522 L 334.81147,122.59899"
     style="fill:#2b2200;fill-opacity:1;fill-rule:nonzero;stroke:none" />
  <path
     inkscape:connector-curvature="0"
     style="fill:#917c6f;fill-opacity:1;fill-rule:nonzero;stroke:none"
     d="M 343.63867,670.32086 508.5161,670.32086 508.5161,706.16266 343.63867,706.16266 z"
     id="lab 2-table2" />
  <path
     inkscape:connector-curvature="0"
     style="opacity:1;fill:#28220b;fill-opacity:1;fill-rule:nonzero;stroke:none"
     d="M 436.9223,440.8172 612.09404,440.8172 612.09404,479.3896 436.9223,479.3896 z"
     id="lab 2-table1" />
  <path
     inkscape:connector-curvature="0"
     style="opacity:1;fill:#504416;fill-opacity:1;fill-rule:nonzero;stroke:none"
     d="M 572.33237,496.30688 610.13502,496.30688 610.13502,544.60297 572.33237,544.60297 z"
     id="lab 2-table3" />
  <path
     inkscape:connector-curvature="0"
     style="fill:#916f6f;fill-opacity:1;fill-rule:nonzero;stroke:none"
     d="M 256.16302,320.13824 114.0778,320.13824 114.0778,362.78719 256.16302,362.78719 z"
     id="lab 3-table2" />
  <path
     style="fill:#4d4d4d;stroke:none"
     d="M -11.076636,133.20878 49.547174,159.52409 47.072744,206.71016 3.7700138,230.3032 1.2955738,265.69275 43.361074,272.04472 43.361074,292.91549 -11.076636,313.78625 -11.076636,133.20878"
     id="lab 3-prop1"
     inkscape:connector-curvature="0" />
  <path
     style="fill:#00ffff;stroke:none"
     d="M 41.624264,224.06132 C 61.678384,229.71035 63.602714,229.96919 76.766034,243.91457 53.085764,275.06045 26.081574,265.10927 3.7700138,248.45169 15.080264,229.39032 26.877824,227.1299 41.624264,224.06132 z"
     id="lab 3-tank"
     inkscape:connector-curvature="0"
     sodipodi:nodetypes="cccc" />
  <path
     style="fill:#1a1a1a;stroke:none"
     d="M 44.168824,201.19225 44.168824,224.93316 38.919744,227.17892 38.044894,200.87144 44.168824,201.19225"
     id="lab 3-prop2"
     inkscape:connector-curvature="0" />
  <path
     inkscape:connector-curvature="0"
     style="fill:#0b2822;fill-opacity:1;fill-rule:nonzero;stroke:none"
     d="M 271.62997,197.13426 229.56447,197.13426 229.56447,277.44132 271.62997,277.44132 z"
     id="lab 3-table1" />
  <path
     style="fill:#2b1100;fill-opacity:1;fill-rule:nonzero;stroke:none"
     d="M 451.30482,628.48489 478.1445,628.48489 478.1445,656.81946 451.30482,656.81946 451.30482,628.48489"
     id="lab 2-chair cushion 2"
     inkscape:connector-curvature="0" />
  <path
     style="fill:#803300;fill-opacity:1;fill-rule:nonzero;stroke:none"
     d="M 443.99445,631.76557 452.62151,631.76557 452.62151,653.80356 443.99445,653.80356 443.99445,631.76557"
     id="lab 2-right arm 2"
     inkscape:connector-curvature="0" />
  <path
     style="fill:#803300;fill-opacity:1;fill-rule:nonzero;stroke:none"
     d="M 477.35542,631.81335 485.98247,631.81335 485.98247,653.85135 477.35542,653.85135 477.35542,631.81335"
     id="lab 2-left arm 2"
     inkscape:connector-curvature="0" />
  <path
     style="fill:#ff6600;fill-opacity:1;fill-rule:nonzero;stroke:none"
     d="M 444.04997,625.70021 485.93427,625.70021 485.93427,632.78385 444.04997,632.78385 444.04997,625.70021"
     id="lab 2-back support 2"
     inkscape:connector-curvature="0" />
  <path
     style="fill:#2b1100;fill-opacity:1;fill-rule:nonzero;stroke:none"
     d="M 189.81595,286.39314 164.64073,286.39314 164.64073,312.93548 189.81595,312.93548 189.81595,286.39314"
     id="lab 3-chair cushion 2-5"
     inkscape:connector-curvature="0" />
  <path
     style="fill:#803300;fill-opacity:1;fill-rule:nonzero;stroke:none"
     d="M 196.67297,289.46631 188.58092,289.46631 188.58092,310.11034 196.67297,310.11034 196.67297,289.46631"
     id="lab 3-right arm 2-7"
     inkscape:connector-curvature="0" />
  <path
     style="fill:#803300;fill-opacity:1;fill-rule:nonzero;stroke:none"
     d="M 165.38088,289.51107 157.28883,289.51107 157.28883,310.1551 165.38088,310.1551 165.38088,289.51107"
     id="lab 3-left arm 2-7"
     inkscape:connector-curvature="0" />
  <path
     style="fill:#ff6600;fill-opacity:1;fill-rule:nonzero;stroke:none"
     d="M 196.62089,283.7846 157.33405,283.7846 157.33405,290.42018 196.62089,290.42018 196.62089,283.7846"
     id="lab 3-back support 2-2"
     inkscape:connector-curvature="0" />
  <path
     inkscape:connector-curvature="0"
     style="opacity:0.40366971;fill:#00ffff;fill-opacity:1;fill-rule:nonzero;stroke:none"
     d="M 366.54828,74.900093 402.80897,74.900093 402.80897,101.70147 366.54828,101.70147 z"
     id="elevator-level-3-hatch" />
  <path
     inkscape:connector-curvature="0"
     id="lab 1-walls"
     d="M 800.60416,114.49698 536.99173,114.49698 536.99173,383.64921 800.60416,383.64921 800.60416,114.49698"
     style="fill:#241c1c;fill-opacity:1;fill-rule:nonzero;stroke:none" />
  <path
     style="fill:#008080;fill-opacity:1;fill-rule:nonzero;stroke:none"
     d="M 793.34136,119.28496 L 544.32443,119.28496 L 544.32443,379.20323 L 793.34136,379.20323 L 793.34136,119.28496"
     id="lab 1 - floor"
     inkscape:connector-curvature="0" />
  <path
     inkscape:connector-curvature="0"
     style="opacity:0.40366971;fill:#ffffff;fill-opacity:1;fill-rule:nonzero;stroke:none"
     d="M 784.91058,132.44504 730.23255,132.44504 730.23255,363.87576 784.91058,363.87576 z"
     id="lab 1-table1" />
  <path
     inkscape:connector-curvature="0"
     style="fill:#a05a2c;fill-opacity:1;fill-rule:nonzero;stroke:none"
     d="M 707.44995,327.53543 562.78098,327.53543 562.78098,363.87579 707.44995,363.87579 z"
     id="lab 1-table2" />
  <path
     style="fill:#2b1100;fill-opacity:1;fill-rule:nonzero;stroke:none"
     d="M 668.00673,293.88447 644.82756,293.88447 644.82756,321.85717 668.00673,321.85717 668.00673,293.88447"
     id="lab 1-chair cushion 2-7"
     inkscape:connector-curvature="0" />
  <path
     style="fill:#803300;fill-opacity:1;fill-rule:nonzero;stroke:none"
     d="M 674.32007,297.12325 666.86962,297.12325 666.86962,318.87978 674.32007,318.87978 674.32007,297.12325"
     id="lab 1-right arm 2-0"
     inkscape:connector-curvature="0" />
  <path
     style="fill:#803300;fill-opacity:1;fill-rule:nonzero;stroke:none"
     d="M 645.50902,297.17042 638.05857,297.17042 638.05857,318.92696 645.50902,318.92696 645.50902,297.17042"
     id="lab 1-left arm 2-8"
     inkscape:connector-curvature="0" />
  <path
     style="fill:#ff6600;fill-opacity:1;fill-rule:nonzero;stroke:none"
     d="M 674.27212,291.13535 638.1002,291.13535 638.1002,298.12852 674.27212,298.12852 674.27212,291.13535"
     id="lab 1-back support 2-5"
     inkscape:connector-curvature="0" />
  <path
     sodipodi:nodetypes="ccccccccccccc"
     inkscape:connector-curvature="0"
     id="lab 1 crack"
     d="M 551.00484,129.29113 591.20691,166.3401 598.30139,186.04699 646.38622,209.69527 667.66967,253.05044 697.62415,284.58148 695.25932,308.22975 699.98898,283.7932 667.66967,249.10906 647.96277,207.33045 600.66622,184.47044 591.99518,160.82216 z"
     style="fill:#000000;stroke:none" />
  <path
     style="fill:#483e37;fill-opacity:1;fill-rule:nonzero;stroke:none"
     d="M 565.19379,146.23906 614.06689,146.23906 614.06689,201.02423 565.19379,201.02423 z"
     id="lab 1 plate 1"
     inkscape:connector-curvature="0" />
  <path
     style="fill:#917c6f;fill-opacity:1;fill-rule:nonzero;stroke:none"
     d="M 625.49689,197.87112 668.85206,197.87112 668.85206,245.56181 625.49689,245.56181 z"
     id="lab 1 plate 2"
     inkscape:connector-curvature="0" />
  <path
     style="fill:#b3b3b3;fill-opacity:1;fill-rule:nonzero;stroke:none"
     d="M 679.88794,252.26216 714.96622,252.26216 714.96622,303.10596 679.88794,303.10596 z"
     id="lab 1 plate 3"
     inkscape:connector-curvature="0" />
  <path
     inkscape:connector-curvature="0"
     id="lab 1 bolts 1"
     d="M 601.84863,134.80906 600.27208,153.33354 604.6076,162.79285 621.16139,165.15768 622.34381,148.60389 z"
     style="fill:#c8beb7;stroke:none" />
  <path
     inkscape:connector-curvature="0"
     id="lab 1 bolts 2"
     d="M 558.09932,188.01768 573.86484,188.80596 580.17105,200.23596 581.7476,211.27182 569.52932,209.69527 560.85829,200.6301 z"
     style="fill:#ac9d93;stroke:none" />
  <path
     inkscape:connector-curvature="0"
     id="lab 1 bolts 3"
     d="M 654.26898,186.83527 655.45139,203.7832 671.61105,213.63665 686.58829,210.08941 672.00519,194.32389 z"
     style="fill:#6c5d53;stroke:none" />
  <path
     inkscape:connector-curvature="0"
     id="lab 1 bolts 4"
     d="M 619.97898,234.9201 642.44484,235.31423 644.41553,243.19699 644.41553,253.05044 632.19725,253.44458 619.97898,245.56182 z"
     style="fill:#ac9393;stroke:none" />
  <path
     inkscape:connector-curvature="0"
     id="lab 1 bolts 6"
     d="M 674.76415,280.6401 692.50036,284.97561 689.74139,300.34699 683.04105,309.8063 677.12898,301.13527 z"
     style="fill:#916f6f;stroke:none" />
  <path
     inkscape:connector-curvature="0"
     id="lab 1 bolts 5"
     d="M 706.68933,242.40872 705.50691,262.50975 720.09002,263.29803 723.24312,253.05044 z"
     style="fill:#ac9393;stroke:none" />
  <path
     sodipodi:nodetypes="ccccc"
     inkscape:connector-curvature="0"
     id="lab 3 cpu"
     d="M 156.47276,322.02458 161.99069,349.5227 190.36862,349.61423 199.179,321.7896 z"
     style="fill:#241c1c;stroke:none" />
  <path
     sodipodi:nodetypes="ccccc"
     inkscape:connector-curvature="0"
     id="lab 3 screen"
     d="M 167.50862,340.9581 167.41298,345.89271 187.86444,345.95155 188.0038,340.95811 z"
     style="fill:#00ff00;stroke:none" />
  <path
     sodipodi:nodetypes="ccccc"
     inkscape:connector-curvature="0"
     id="lab 3 kbd"
     d="M 163.56724,322.60178 166.32621,334.24285 190.32491,334.17113 193.40629,322.43853 z"
     style="fill:#c8b7b7;stroke:none" />
  <path
     sodipodi:nodetypes="ccccc"
     inkscape:connector-curvature="0"
     id="lab 2 cpu"
     d="M 442.9571,672.47619 448.47503,699.97431 476.85296,700.06584 485.66334,672.24121 z"
     style="fill:#241c1c;stroke:none" />
  <path
     sodipodi:nodetypes="ccccc"
     inkscape:connector-curvature="0"
     id="lab 2 screen"
     d="M 453.99296,691.40971 453.89732,696.34432 474.34878,696.40316 474.48814,691.40972 z"
     style="fill:#00ff00;stroke:none" />
  <path
     sodipodi:nodetypes="ccccc"
     inkscape:connector-curvature="0"
     id="lab 2 kbd"
     d="M 450.05158,673.05339 452.81055,684.69446 476.80925,684.62274 479.89063,672.89014 z"
     style="fill:#c8b7b7;stroke:none" />
  <path
     sodipodi:nodetypes="ccccc"
     inkscape:connector-curvature="0"
     id="lab 1 cpu"
     d="M 635.25845,329.67813 640.77638,357.17625 669.15431,357.26778 677.96469,329.44315 z"
     style="fill:#241c1c;stroke:none" />
  <path
     sodipodi:nodetypes="ccccc"
     inkscape:connector-curvature="0"
     id="lab 1 screen"
     d="M 646.29431,348.61165 646.19867,353.54626 666.65013,353.6051 666.78949,348.61166 z"
     style="fill:#00ff00;stroke:none" />
  <path
     sodipodi:nodetypes="ccccc"
     inkscape:connector-curvature="0"
     id="lab 1 kbd"
     d="M 642.35293,330.25533 645.1119,341.8964 669.1106,341.82468 672.19198,330.09208 z"
     style="fill:#c8b7b7;stroke:none" />
  <path
     sodipodi:nodetypes="cccc"
     inkscape:connector-curvature="0"
     id="main hall 3 spotlight"
     d="M 336.24227,122.68349 506.07241,121.98117 506.39789,370.3439 C 434.08457,360.91157 330.95497,260.75943 336.24227,122.68349 z"
     style="opacity:0.44954128;fill:#ffeeaa;stroke:none" />
  <path
     sodipodi:nodetypes="ccccc"
     inkscape:connector-curvature="0"
     id="main hall 3 lamp"
     d="M 496.57152,122.10048 496.73478,129.44515 506.21049,129.44515 506.04724,122.10048 z"
     style="fill:#ffd42a;stroke:none" />
  <path
     sodipodi:nodetypes="ccccc"
     inkscape:connector-curvature="0"
     id="main hall 3 box1 shadow 2"
     d="M 419.96761,130.42532 370.17792,130.21201 C 360.78655,146.62072 367.3683,158.08842 379.42349,166.93525 L 434.00972,144.80746 z"
     style="opacity:0.6330275;fill:#2b2200;stroke:none" />
  <path
     style="opacity:0.68348622;fill:#241c1c;stroke:none"
     d="M 420.51213,130.72593 396.64328,138.11594 386.09716,146.95959 400.89308,148.91428 432.93338,143.92802 z"
     id="main hall 3 box1 shadow 1"
     inkscape:connector-curvature="0"
     sodipodi:nodetypes="cccccc" />
  <path
     style="fill:#cccccc;fill-opacity:1;fill-rule:nonzero;stroke:none"
     d="M 419.84113,130.71196 433.77601,130.71196 433.77601,144.08945 419.84113,144.08945 z"
     id="main hall 3 box1"
     inkscape:connector-curvature="0" />
  <path
     inkscape:connector-curvature="0"
     id="lab 3 lamp"
     d="M 145.87163,124.55786 236.08863,124.54936 236.08863,128.10871 145.83104,128.10871 z"
     style="fill:#aaeeff;stroke:none"
     sodipodi:nodetypes="ccccc" />
  <path
     style="opacity:0.47706424;fill:#b7c4c8;stroke:none"
     d="M 202.5,319.86219 C 216.75289,328.86104 229.40776,338.49909 256.5,342.36219 L 256.5,320.36219 z"
     id="lab 3 glare 3"
     inkscape:connector-curvature="0"
     sodipodi:nodetypes="cccc" />
  <path
     style="opacity:0.32568808;fill:#000000;stroke:none"
     d="M 229.27938,277.37315 271.58752,324.40067 271.529,277.37316 z"
     id="lab 3 shadow 3"
     inkscape:connector-curvature="0"
     sodipodi:nodetypes="cccc" />
  <path
     style="opacity:0.22935779;fill:#000000;stroke:#000000;stroke-width:1px;stroke-linecap:butt;stroke-linejoin:miter;stroke-opacity:1"
     d="M 230.16326,277.37315 230.16326,297.52569 271.529,310.25362 271.88256,278.08026 z"
     id="lab 3 shadow 2"
     inkscape:connector-curvature="0"
     sodipodi:nodetypes="ccccc" />
  <path
     style="opacity:0.44247808;fill:#000000;stroke:none"
     d="M 414.89085,225.38294 381.24353,267.14259 C 389.17285,282.69411 392.77265,284.38073 412.47456,299.09743 L 443.39854,248.56354 z"
     id="main hall 3 box2 shadow 1"
     inkscape:connector-curvature="0"
     sodipodi:nodetypes="ccccc" />
  <path
     style="opacity:0.72018349;fill:#000000;fill-opacity:1;fill-rule:nonzero;stroke:none"
     d="M 334.211,434.82171 617.76081,434.82171 617.76081,719.07864 334.211,719.07864 z"
     id="lab 2 shadow"
     inkscape:connector-curvature="0" />
  <path
     style="opacity:0.59174314;fill:#000000;fill-opacity:1;fill-rule:nonzero;stroke:none"
     d="M 544.35092,118.98124 793.2525,118.98124 793.2525,379.19654 544.35092,379.19654 z"
     id="lab 1 shadow"
     inkscape:connector-curvature="0" />
  <path
     style="opacity:0.3853211;fill:#000000;fill-opacity:1;stroke:none"
     d="M 196.59529,290.64029 157.28706,290.45463 160.51324,304.59676 165.46439,305.06617 165.46495,307.3003 188.62745,307.95773 188.72595,305.60976 191.27238,305.30387 z"
     id="lab 3 shadow 1"
     inkscape:connector-curvature="0"
     sodipodi:nodetypes="ccccccccc" />
  <path
     style="opacity:0.81651378;fill:#ffffff;stroke:none"
     d="M 50.558135,227.52213 C 48.397028,240.09139 59.17659,240.52008 74.953319,243.07847 69.220537,236.97914 63.154206,231.00687 50.558135,227.52213 z"
     id="lab 3 glare"
     inkscape:connector-curvature="0"
     sodipodi:nodetypes="ccc" />
  <path
     style="opacity:0.12844035;fill:#ffffff;stroke:none"
     d="M 29,152.86219 46.25,160.11219 44.75,191.86219 z"
     id="lab 3 glare 2"
     inkscape:connector-curvature="0" />
  <path
     style="opacity:0.5;fill:#000000;stroke:#000000;stroke-width:1px;stroke-linecap:butt;stroke-linejoin:miter;stroke-opacity:1"
     d="M 414.67677,225.47832 L 399.49999,257.3622 L 399.49999,267.1122 L 416.49999,267.3622 L 443.08578,248.56931 z"
     id="main hall 3 - smaller shadow"
     inkscape:connector-curvature="0"
     sodipodi:nodetypes="cccccc" />
  <path
     style="fill:#cccccc;fill-opacity:1;fill-rule:nonzero;stroke:none"
     d="M 414.57641,225.2928 L 443.36053,225.2928 L 443.36053,248.56978 L 414.57641,248.56978 z"
     id="main hall 3"
     inkscape:connector-curvature="0" />
  <rect
     style="opacity:0.62389377;fill:#000000;stroke:none"
     id="lab 1"
     width="63"
     height="25"
     x="641.17676"
     y="118.948" />
  <rect
     style="opacity:0.62389377;fill:#000000;stroke:none"
     id="lab 2"
     width="25.455845"
     height="29.698484"
     x="366.63483"
     y="650.72552" />
</svg>
