<?xml version="1.0" encoding="UTF-8" standalone="no"?>
<svg
   xmlns:dc="http://purl.org/dc/elements/1.1/"
   xmlns:cc="http://creativecommons.org/ns#"
   xmlns:rdf="http://www.w3.org/1999/02/22-rdf-syntax-ns#"
   xmlns:svg="http://www.w3.org/2000/svg"
   xmlns="http://www.w3.org/2000/svg"
   xmlns:sodipodi="http://sodipodi.sourceforge.net/DTD/sodipodi-0.dtd"
   xmlns:inkscape="http://www.inkscape.org/namespaces/inkscape"
   id="svg2985"
   version="1.1"
   inkscape:version="0.48.4 r9943 custom"
   width="100%"
   height="100%"
   sodipodi:docname="floor2.svg">
  <sodipodi:namedview
     pagecolor="#ffffff"
     bordercolor="#666666"
     borderopacity="1"
     objecttolerance="10"
     gridtolerance="10"
     guidetolerance="10"
     inkscape:pageopacity="0"
     inkscape:pageshadow="2"
     inkscape:window-width="1858"
     inkscape:window-height="1036"
     id="namedview3036"
     showgrid="false"
     inkscape:zoom="2.8284274"
     inkscape:cx="228.12373"
     inkscape:cy="881.05922"
     inkscape:window-x="62"
     inkscape:window-y="22"
     inkscape:window-maximized="0"
     inkscape:current-layer="svg2985" />
  <metadata
     id="metadata3040">
    <rdf:RDF>
      <cc:Work
         rdf:about="">
        <dc:format>image/svg+xml</dc:format>
        <dc:type
           rdf:resource="http://purl.org/dc/dcmitype/StillImage" />
      </cc:Work>
    </rdf:RDF>
  </metadata>
  <defs
     id="defs3038">
    <linearGradient
       id="linearGradient3061">
      <stop
         style="stop-color:#483737;stop-opacity:1;"
         offset="0"
         id="stop3063" />
      <stop
         style="stop-color:#ffffff;stop-opacity:1;"
         offset="1"
         id="stop3065" />
    </linearGradient>
  </defs>
  <path
     id="control room-entry"
     d="M 253.3383,450.61071 L 296.82585,450.61071 L 296.82585,384.87945 L 253.3383,384.87945 L 253.3383,450.61071"
     style="fill:#800000;stroke:none"
     inkscape:connector-curvature="0" />
  <path
     style="fill:#28170b;fill-opacity:1;fill-rule:nonzero;stroke:none"
     d="M 214.74823,435.55472 L 402.70136,435.55472 L 402.70136,522.5089 L 214.74823,522.5089 L 214.74823,435.55472"
     id="control room-walls"
     inkscape:connector-curvature="0" />
  <path
     inkscape:connector-curvature="0"
     style="fill:#668000;stroke:none"
     d="M 157.80968,178.11894 L 220.08117,178.11894 L 220.08117,122.94963 L 157.80968,122.94963 L 157.80968,178.11894"
     id="dinner room-entry" />
  <path
     style="fill:#241c1c;fill-opacity:1;fill-rule:nonzero;stroke:none"
     d="M -57.843642,98.986906 L 169.39013,98.986906 L 169.39013,406.75453 L -57.843642,406.75453 L -57.843642,98.986906"
     id="dinner room-walls"
     inkscape:connector-curvature="0" />
  <path
     id="hyggym-entry"
     d="M 408.14838,325.62598 L 445.78699,325.62598 L 445.78699,275.58048 L 408.14838,275.58048 L 408.14838,325.62598"
     style="fill:#668000;stroke:none"
     inkscape:connector-curvature="0" />
  <path
     id="control room floor"
     d="M 222.87701,515.71449 L 394.41516,515.71449 L 394.41516,446.01049 L 222.87701,446.01049 L 222.87701,515.71449"
     style="fill:#008080;stroke:none"
     inkscape:connector-curvature="0" />
  <path
     id="elevator-level-2"
     d="M 254.04972,80.766274 L 307.1555,80.766274 L 307.1555,26.877923 L 254.04972,26.877923 L 254.04972,80.766274"
     style="fill:#008000;stroke:none"
     inkscape:connector-curvature="0" />
  <path
     id="main hall 2-walls"
     d="M 217.78996,389.17495 L 415.17233,389.17495 L 415.17233,78.839955 L 217.78996,78.839955 L 217.78996,389.17495"
     style="fill:#784421;stroke:none"
     inkscape:connector-curvature="0" />
  <path
     inkscape:connector-curvature="0"
     id="dinner room-floor"
     d="M -51.250787,104.46182 L 161.47873,104.46182 L 161.47873,401.67068 L -51.250787,401.67068 L -51.250787,104.46182"
     style="fill:#6c5d53;fill-opacity:1;fill-rule:nonzero;stroke:none" />
  <path
     inkscape:connector-curvature="0"
     id="dinner room table shadow"
     d="M 15.622196,148.87546 L 74.518364,148.87546 L 74.518364,310.77609 L 15.622196,310.77609 L 15.622196,148.87546"
     style="opacity:0.33185838;fill:#000000;fill-opacity:1;fill-rule:nonzero;stroke:none" />
  <path
     style="fill:#483737;fill-opacity:1;fill-rule:nonzero;stroke:none"
     d="M 436.34169,82.974967 L 743.98691,82.974967 L 743.98691,406.07778 L 436.34169,406.07778 L 436.34169,82.974967"
     id="hyggym-walls"
     inkscape:connector-curvature="0" />
  <path
     sodipodi:nodetypes="ccccc"
     inkscape:connector-curvature="0"
     id="hyggym-floor-2"
     d="M 448.24986,207.67417 L 732.14413,207.67417 L 732.14413,396.61392 L 448.24986,396.61392 L 448.24986,207.67417"
     style="fill:#2b2200;fill-opacity:1;fill-rule:nonzero;stroke:none" />
  <path
     style="fill:#004455;fill-opacity:1;fill-rule:nonzero;stroke:none"
     d="M 448.17419,92.501321 L 732.15433,92.501321 L 732.15433,207.61167 L 448.17419,207.61167 L 448.17419,92.501321"
     id="hyggym-bathroom"
     inkscape:connector-curvature="0" />
  <path
     style="fill:#222b00;fill-opacity:1;fill-rule:nonzero;stroke:none"
     d="M 294.10235,490.56543 L 380.60672,490.56543 L 380.60672,502.73451 L 294.10235,502.73451 L 294.10235,490.56543"
     id="control room-table"
     inkscape:connector-curvature="0" />
  <path
     style="fill:#2b1100;fill-opacity:1;fill-rule:nonzero;stroke:none"
     d="M 303.95236,465.44894 L 319.99236,465.44894 L 319.99236,488.50615 L 303.95236,488.50615 L 303.95236,465.44894"
     id="control room-chair cushion 1"
     inkscape:connector-curvature="0" />
  <path
     style="fill:#803300;fill-opacity:1;fill-rule:nonzero;stroke:none"
     d="M 299.58352,468.1186 L 304.73924,468.1186 L 304.73924,486.05198 L 299.58352,486.05198 L 299.58352,468.1186"
     id="control room-right arm 1"
     inkscape:connector-curvature="0" />
  <path
     style="fill:#803300;fill-opacity:1;fill-rule:nonzero;stroke:none"
     d="M 319.52078,468.15747 L 324.67649,468.15747 L 324.67649,486.09085 L 319.52078,486.09085 L 319.52078,468.15747"
     id="control room-left arm 1"
     inkscape:connector-curvature="0" />
  <path
     style="fill:#ff6600;fill-opacity:1;fill-rule:nonzero;stroke:none"
     d="M 299.6167,463.18291 L 324.6477,463.18291 L 324.6477,468.94721 L 299.6167,468.94721 L 299.6167,463.18291"
     id="control room-back support 1"
     inkscape:connector-curvature="0" />
  <path
     style="fill:#2b1100;fill-opacity:1;fill-rule:nonzero;stroke:none"
     d="M 354.99134,465.90186 L 371.03134,465.90186 L 371.03134,488.95908 L 354.99134,488.95908 L 354.99134,465.90186"
     id="control room-chair cushion 2"
     inkscape:connector-curvature="0" />
  <path
     style="fill:#803300;fill-opacity:1;fill-rule:nonzero;stroke:none"
     d="M 350.6225,468.57151 L 355.77822,468.57151 L 355.77822,486.50489 L 350.6225,486.50489 L 350.6225,468.57151"
     id="control room-right arm 2"
     inkscape:connector-curvature="0" />
  <path
     style="fill:#803300;fill-opacity:1;fill-rule:nonzero;stroke:none"
     d="M 370.55977,468.61039 L 375.71549,468.61039 L 375.71549,486.54378 L 370.55977,486.54378 L 370.55977,468.61039"
     id="control room-left arm 2"
     inkscape:connector-curvature="0" />
  <path
     style="fill:#ff6600;fill-opacity:1;fill-rule:nonzero;stroke:none"
     d="M 350.65568,463.63583 L 375.68668,463.63583 L 375.68668,469.40013 L 350.65568,469.40013 L 350.65568,463.63583"
     id="control room-back support 2"
     inkscape:connector-curvature="0" />
  <path
     style="fill:#916f6f;fill-opacity:1;fill-rule:nonzero;stroke:none"
     d="M 229.33081,493.60399 L 278.74952,493.60399 L 278.74952,511.26656 L 229.33081,511.26656 L 229.33081,493.60399"
     id="control room"
     inkscape:connector-curvature="0" />
  <path
     style="fill:#483737;fill-opacity:1;fill-rule:nonzero;stroke:none"
     d="M 475.32508,92.10441 L 538.53153,92.10441 L 538.53153,125.04979 L 475.32508,125.04979 L 475.32508,92.10441"
     id="hyggym-crapper 1"
     inkscape:connector-curvature="0" />
  <path
     style="fill:#483737;fill-opacity:1;fill-rule:nonzero;stroke:none"
     d="M 544.44775,91.707465 L 615.28237,91.707465 L 615.28237,125.84364 L 544.44775,125.84364 L 544.44775,91.707465"
     id="hyggym-crapper 2"
     inkscape:connector-curvature="0" />
  <path
     style="fill:#008080;fill-opacity:1;fill-rule:nonzero;stroke:none"
     d="M 679.9837,103.61542 L 733.23,103.61542 L 733.23,192.1313 L 679.9837,192.1313 L 679.9837,103.61542"
     id="hyggym-showers"
     inkscape:connector-curvature="0" />
  <path
     style="fill:#000080;fill-opacity:1;fill-rule:nonzero;stroke:none"
     d="M 685.36216,110.7602 L 727.85162,110.7602 L 727.85162,135.37 L 685.36216,135.37 L 685.36216,110.7602"
     id="hyggym-private3"
     inkscape:connector-curvature="0" />
  <path
     style="fill:#000080;fill-opacity:1;fill-rule:nonzero;stroke:none"
     d="M 685.39995,137.98626 L 728.02587,137.98626 L 728.02587,162.23638 L 685.39995,162.23638 L 685.39995,137.98626"
     id="hyggym-private2"
     inkscape:connector-curvature="0" />
  <path
     style="fill:#000080;fill-opacity:1;fill-rule:nonzero;stroke:none"
     d="M 685.39995,165.16844 L 728.22656,165.16844 L 728.22656,189.49313 L 685.39995,189.49313 L 685.39995,165.16844"
     id="hyggym-private1"
     inkscape:connector-curvature="0" />
  <path
     style="fill:#483737;fill-opacity:1;fill-rule:nonzero;stroke:none"
     d="M -36.306981,328.93274 L 110.49395,328.93274 L 110.49395,351.61446 L -36.306981,351.61446 L -36.306981,328.93274"
     id="dinner room-stand 1"
     inkscape:connector-curvature="0" />
  <path
     style="fill:#483737;fill-opacity:1;fill-rule:nonzero;stroke:none"
     d="M 110.05442,328.93274 L 142.57917,328.93274 L 142.57917,401.67068 L 110.05442,401.67068 L 110.05442,328.93274"
     id="dinner room-stand 2"
     inkscape:connector-curvature="0" />
  <path
     style="fill:#ac9d93;fill-opacity:1;fill-rule:nonzero;stroke:none"
     d="M 78.590763,351.66193 L 110.23647,351.66193 L 110.23647,384.51132 L 78.590763,384.51132 L 78.590763,351.66193"
     id="dinner room-stove"
     inkscape:connector-curvature="0" />
  <path
     style="fill:#483e37;fill-opacity:1;fill-rule:nonzero;stroke:none"
     d="M -51.138115,384.39832 L 110.16709,384.39832 L 110.16709,401.60514 L -51.138115,401.60514 L -51.138115,384.39832"
     id="dinner room-working area"
     inkscape:connector-curvature="0" />
  <path
     style="fill:#aca793;fill-opacity:1;fill-rule:nonzero;stroke:none"
     d="M -26.297445,386.27633 L 3.3704023,386.27633 L 3.3704023,399.9636 L -26.297445,399.9636 L -26.297445,386.27633"
     id="dinner room-sink 1"
     inkscape:connector-curvature="0" />
  <path
     style="fill:#806600;fill-opacity:1;fill-rule:nonzero;stroke:none"
     d="M 15.622196,138.87546 L 74.518364,138.87546 L 74.518364,300.77609 L 15.622196,300.77609 L 15.622196,138.87546"
     id="dinner room-table"
     inkscape:connector-curvature="0" />
  <path
     style="fill:#445500;fill-opacity:1;fill-rule:nonzero;stroke:none"
     d="M 123.30552,195.57979 L 161.54407,195.57979 L 161.54407,310.55272 L 123.30552,310.55272 L 123.30552,195.57979"
     id="dinner room-cabinet"
     inkscape:connector-curvature="0" />
  <path
     style="fill:#502d16;fill-opacity:1;fill-rule:nonzero;stroke:none"
     d="M -50.43711,113.06522 L -24.065688,113.06522 L -24.065688,309.37951 L -50.43711,309.37951 L -50.43711,113.06522"
     id="dinner room-storage"
     inkscape:connector-curvature="0" />
  <path
     inkscape:connector-curvature="0"
     id="dinner room bench shadow 1"
     d="M -5.4749483,161.21401 L 11.226953,161.21401 L 11.226953,303.56144 L -5.4749483,303.56144 L -5.4749483,161.21401"
     style="opacity:0.33000004;fill:#000000;fill-opacity:1;fill-rule:nonzero;stroke:none" />
  <path
     style="fill:#d38d5f;fill-opacity:1;fill-rule:nonzero;stroke:none"
     d="M -5.4749483,150.60741 L 11.226953,150.60741 L 11.226953,292.95484 L -5.4749483,292.95484 L -5.4749483,150.60741"
     id="dinner room-bench1"
     inkscape:connector-curvature="0" />
  <path
     inkscape:connector-curvature="0"
     id="dinner room"
     d="M 79.044373,292.73586 L 95.746273,292.73586 L 95.746273,303.56144 L 79.044373,303.56144 L 79.044373,292.73586"
     style="opacity:0.33000004;fill:#000000;fill-opacity:1;fill-rule:nonzero;stroke:none" />
  <path
     style="fill:#d38d5f;fill-opacity:1;fill-rule:nonzero;stroke:none"
     d="M 79.276606,150.60741 L 95.978506,150.60741 L 95.978506,292.95484 L 79.276606,292.95484 L 79.276606,150.60741"
     id="dinner room bench shadow 2"
     inkscape:connector-curvature="0" />
  <path
     style="fill:#484537;fill-opacity:1;fill-rule:nonzero;stroke:none"
     d="M 229.54015,93.863089 L 405.40738,93.863089 L 405.40738,376.31391 L 229.54015,376.31391 L 229.54015,93.863089"
     id="main hall 2"
     inkscape:connector-curvature="0" />
  <path
     style="fill:#008080;fill-opacity:1;fill-rule:nonzero;stroke:none"
     d="M 524.2787,184.13395 L 629.69558,184.13395 L 629.69558,207.61164 L 524.2787,207.61164 L 524.2787,184.13395"
     id="hyggym-sauna"
     inkscape:connector-curvature="0" />
  <path
     style="fill:#445500;fill-opacity:1;fill-rule:nonzero;stroke:none"
     d="M -14.146651,396.7139 L -11.504935,396.7139 L -11.504935,401.69134 L -14.146651,401.69134 L -14.146651,396.7139"
     id="dinner room-tap 1"
     inkscape:connector-curvature="0" />
  <path
     style="fill:#aca793;fill-opacity:1;fill-rule:nonzero;stroke:none"
     d="M 29.407847,386.13809 L 59.075697,386.13809 L 59.075697,399.82533 L 29.407847,399.82533 L 29.407847,386.13809"
     id="dinner room-sink 2"
     inkscape:connector-curvature="0" />
  <path
     style="fill:#445500;fill-opacity:1;fill-rule:nonzero;stroke:none"
     d="M 41.558642,396.57565 L 44.200358,396.57565 L 44.200358,401.55309 L 41.558642,401.55309 L 41.558642,396.57565"
     id="dinner room-tap 2"
     inkscape:connector-curvature="0" />
  <path
     style="fill:#000080;fill-opacity:1;fill-rule:nonzero;stroke:none"
     d="M 297.58534,493.15113 L 375.76412,493.15113 L 375.76412,499.94442 L 297.58534,499.94442 L 297.58534,493.15113"
     id="control room-table computer"
     inkscape:connector-curvature="0" />
  <path
     inkscape:connector-curvature="0"
     style="opacity:0.40366971;fill:#00ffff;fill-opacity:1;fill-rule:nonzero;stroke:none"
     d="M 227.02345,512.78735 L 392.56139,512.78735 L 392.56139,524.21735 L 227.02345,524.21735 z"
     id="control room-window" />
  <path
     sodipodi:nodetypes="cccccc"
     inkscape:connector-curvature="0"
     id="hyggym-toilete1"
     d="M 727.89503,120.7577 L 722.32108,120.7577 C 710.8422,113.09915 714.33024,113.24672 704.58587,122.30043 C 714.525,131.06587 711.01372,132.25819 721.70186,126.00514 L 727.89503,126.88905 L 727.89503,120.7577"
     style="fill:#ffffff;stroke:none" />
  <path
     sodipodi:nodetypes="ccc"
     inkscape:connector-curvature="0"
     id="hyggym-toilete-water1"
     d="M 708.31858,122.4637 C 714.69435,127.99585 713.03412,128.28292 718.77964,122.66077 C 712.85416,116.59354 714.38916,117.13039 708.31858,122.4637 z"
     style="fill:#00ffff;stroke:none" />
  <path
     style="fill:#ffffff;stroke:none"
     d="M 728.03469,149.06356 L 722.46074,149.06356 C 710.98186,141.40501 714.4699,141.55258 704.72553,150.60629 C 714.66466,159.37173 711.15338,160.56405 721.84152,154.311 L 728.03469,155.19491 L 728.03469,149.06356"
     id="hyggym-toilete2"
     inkscape:connector-curvature="0"
     sodipodi:nodetypes="cccccc" />
  <path
     style="fill:#00ffff;stroke:none"
     d="M 709.20824,150.76956 C 715.58401,156.30171 713.92378,156.58878 719.6693,150.96663 C 713.74382,144.8994 715.27882,145.43625 709.20824,150.76956 z"
     id="hyggym-toilete-water2"
     inkscape:connector-curvature="0"
     sodipodi:nodetypes="ccc" />
  <path
     sodipodi:nodetypes="cccccc"
     inkscape:connector-curvature="0"
     id="hyggym-toilete3"
     d="M 728.19797,176.14873 L 722.62402,176.14873 C 711.14514,168.49018 714.63318,168.63775 704.88881,177.69146 C 714.82794,186.4569 711.31666,187.64922 722.0048,181.39617 L 728.19797,182.28008 L 728.19797,176.14873"
     style="fill:#ffffff;stroke:none" />
  <path
     sodipodi:nodetypes="ccc"
     inkscape:connector-curvature="0"
     id="hyggym-toilete-water3"
     d="M 708.37152,177.72973 C 714.74729,183.26188 713.08706,183.54895 718.83258,177.9268 C 712.9071,171.85957 714.4421,172.39642 708.37152,177.72973 z"
     style="fill:#00ffff;stroke:none" />
  <path
     inkscape:connector-curvature="0"
     style="opacity:0.40366971;fill:#ffffff;fill-opacity:1;fill-rule:nonzero;stroke:none"
     d="M 480.35587,93.363708 L 533.14855,93.363708 L 533.14855,118.72519 L 480.35587,118.72519 z"
     id="hyggym-box2" />
  <path
     inkscape:connector-curvature="0"
     style="opacity:0.40366971;fill:#ffffff;fill-opacity:1;fill-rule:nonzero;stroke:none"
     d="M 548.75562,93.363708 L 608.7022,93.363708 L 608.7022,119.83998 L 548.75562,119.83998 z"
     id="hyggym-box1" />
  <path
     sodipodi:nodetypes="ccccccccc"
     inkscape:connector-curvature="0"
     id="hyggym-shower1"
     d="M 517.88248,93.611492 L 518.01483,103.28138 L 513.14462,103.26448 L 512.99827,111.8732 L 526.34194,111.8563 L 526.37574,103.23357 L 520.80179,103.23357 L 520.62162,93.57769 L 517.88248,93.61149"
     style="fill:#cccccc;stroke:none" />
  <path
     style="fill:#cccccc;stroke:none"
     d="M 568.33213,93.315888 L 568.46448,102.98577 L 563.59427,102.96887 L 563.44792,111.57759 L 576.79159,111.56069 L 576.82539,102.93796 L 571.25144,102.93796 L 571.07127,93.282086 L 568.33213,93.315886"
     id="hyggym-shower2"
     inkscape:connector-curvature="0"
     sodipodi:nodetypes="ccccccccc" />
  <path
     inkscape:connector-curvature="0"
     style="opacity:0.40366971;fill:#cccccc;fill-opacity:1;fill-rule:nonzero;stroke:none"
     d="M 552.97552,189.20009 L 608.94311,189.20009 L 608.94311,207.33043 L 552.97552,207.33043 z"
     id="hyggym-sink" />
  <path
     sodipodi:nodetypes="ccccccccc"
     inkscape:connector-curvature="0"
     id="hyggym-tap2"
     d="M 563.53312,207.33169 L 563.48262,201.2032 L 565.33954,201.2139 L 565.39534,195.75794 L 560.30766,195.76864 L 560.29476,201.23347 L 562.42,201.23347 L 562.4887,207.35309 L 563.53312,207.33169"
     style="fill:#cccccc;stroke:none" />
  <path
     style="fill:#cccccc;stroke:none"
     d="M 597.03484,207.72583 L 596.98434,201.59734 L 598.84126,201.60804 L 598.89706,196.15208 L 593.80938,196.16278 L 593.79648,201.62761 L 595.92172,201.62761 L 595.99042,207.74723 L 597.03484,207.72583"
     id="hyggym-tap1"
     inkscape:connector-curvature="0"
     sodipodi:nodetypes="ccccccccc" />
  <path
     style="fill:#28170b;stroke:none"
     d="M 228.75215,133.06924 L 254.015,133.20445 L 254.0724,93.818715 L 355.60344,93.818714 L 353.43567,280.04889 L 405.88042,282.20264 L 405.86352,316.11251 L 294.22396,315.12717 L 292.9162,376.80905 L 258.40521,376.88075 L 259.90016,164.09576 L 228.45653,163.90762 L 228.75213,133.06921 L 228.75213,133.06921"
     id="main hall 2 pathways"
     inkscape:connector-curvature="0"
     sodipodi:nodetypes="cccccccccccccc" />
  <path
     sodipodi:nodetypes="ccccc"
     inkscape:connector-curvature="0"
     id="dinner room lamp 2"
     d="M -9.4757187,104.23291 L -10.033114,108.13468 L 134.33225,107.57729 L 134.4716,104.37226 z"
     style="fill:#ffeeaa;fill-opacity:1;stroke:none" />
  <path
     sodipodi:nodetypes="ccccc"
     inkscape:connector-curvature="0"
     id="dinner room lamp"
     d="M -51.419709,317.71528 L -46.821198,317.71528 L -46.68185,377.21723 L -51.559058,377.35657 z"
     style="fill:#ffeeaa;fill-opacity:1;stroke:none" />
  <path
     sodipodi:nodetypes="ccccccccccccccccccccc"
     inkscape:connector-curvature="0"
     id="dinner room glare"
     d="M -10.033114,107.9051 L -24.002832,121.17808 L -24.063632,244.95869 C -21.895837,252.58478 -15.164601,257.92914 -5.5739562,261.8438 L -5.6436302,244.07684 C 3.708327,247.32831 5.9527119,246.05094 11.147901,245.95804 L 11.287249,261.28641 L 15.746411,261.56511 L 15.622517,245.82714 L 74.413708,245.12194 L 74.413708,258.49943 L 79.233196,258.54873 L 79.150116,244.56458 L 95.871973,244.56458 L 96.102853,259.05686 C 111.95027,257.97946 119.34282,254.25992 123.3505,249.48261 L 123.4152,197.51342 L 161.54605,197.47962 L 161.47845,125.1844 L 133.77485,106.23296 z"
     style="opacity:0.39908256;fill:#ffeeaa;fill-opacity:1;stroke:none" />
  <path
     sodipodi:nodetypes="ccccc"
     inkscape:connector-curvature="0"
     id="dinner room 3"
     d="M 156.58029,317.71528 L 161.1788,317.71528 L 161.31815,377.21723 L 156.44094,377.35657 z"
     style="fill:#ffeeaa;fill-opacity:1;stroke:none" />
  <path
     sodipodi:nodetypes="ccccsssscccccc"
     inkscape:connector-curvature="0"
     id="dinner room glare 2"
     d="M -47.329477,317.15789 L -37.575061,309.35436 L -21.967994,309.07566 L 17.049671,302.94431 C 27.657988,308.19333 29.090678,329.02864 30.304312,329.00822 L 18.831847,329.20125 C 23.133296,329.12885 21.940974,351.61012 21.725829,351.61745 L 35.101009,351.16194 C 38.144384,351.05829 31.648818,373.8252 26.077707,384.24465 L 14.240792,384.10805 C 15.032794,390.68201 11.385366,395.98756 8.7051505,401.56945 L -37.575061,402.16066 L -48.16557,377.63527 L -47.329477,317.15789"
     style="opacity:0.20642204;fill:#ffeeaa;fill-opacity:1;stroke:none" />
  <path
     style="opacity:0.73853215;fill:#000000;stroke:none"
     d="M -17.834741,399.96535 L -12.637048,386.26906 L -26.308708,386.28176 L -26.296748,400.01042 z"
     id="dinner room shadow"
     inkscape:connector-curvature="0"
     sodipodi:nodetypes="ccccc" />
  <path
     style="opacity:0.19724773;fill:#fff6d5;stroke:none"
     d="M 156.34936,318.27268 L 150.49671,310.19045 L 123.46304,310.74784 L 123.18434,307.12477 L 77.199238,299.32125 C 72.41769,307.46714 68.255446,316.15493 69.330975,329.42577 L 77.583957,329.1377 C 74.150411,338.55955 76.637902,344.13397 78.000632,351.44361 L 68.68858,351.16889 C 64.526201,369.41088 67.698006,375.73482 69.12027,384.90177 L 77.067363,384.61979 C 76.844844,393.31423 77.520587,396.31842 80.264912,402.16066 L 145.75885,402.16066 L 156.62806,377.63527 z"
     id="dinner room glare 3"
     inkscape:connector-curvature="0"
     sodipodi:nodetypes="ccccccccccccccc" />
  <path
     style="opacity:0.44954128;fill:#000000;stroke:none"
     d="M 103.67551,351.7164 L 103.95421,384.32401 L 100.47049,384.46337 L 102.28202,402.43936 L 110.36425,402.16066 L 110.29455,351.64672 z"
     id="dinner room stove shadow"
     inkscape:connector-curvature="0"
     sodipodi:nodetypes="ccccccc" />
  <path
     style="fill:#550000;stroke:none"
     d="M 86.768067,353.48595 L 81.632319,357.05709 L 86.664581,360.6501 L 91.312607,357.09295 z"
     id="dinner room stove beak 1"
     inkscape:connector-curvature="0"
     sodipodi:nodetypes="ccccc" />
  <path
     sodipodi:nodetypes="ccccc"
     inkscape:connector-curvature="0"
     id="dinner room stove beak 2"
     d="M 94.453757,359.79215 L 89.318009,363.36329 L 94.350271,366.9563 L 98.998294,363.39915 z"
     style="fill:#550000;stroke:none" />
  <path
     style="fill:#550000;stroke:none"
     d="M 84.009101,367.67491 L 78.873353,371.24605 L 83.905615,374.83906 L 88.553638,371.28191 z"
     id="dinner room stove beak 3"
     inkscape:connector-curvature="0"
     sodipodi:nodetypes="ccccc" />
  <path
     sodipodi:nodetypes="ccccc"
     inkscape:connector-curvature="0"
     id="dinner room stove beak 4"
     d="M 93.172808,374.37525 L 88.03706,377.94639 L 93.069322,381.5394 L 97.717345,377.98225 z"
     style="fill:#550000;stroke:none" />
  <path
     style="fill:#fff6d5;fill-opacity:1;fill-rule:nonzero;stroke:none"
     d="M 346.5,224.36218 L 354.5,224.36218 L 354.5,255.86218 L 346.5,255.86218 z"
     id="main hall 2-lamp"
     inkscape:connector-curvature="0" />
  <path
     style="opacity:0.30275233;fill:#fff6d5;stroke:none"
     d="M 350.9064,255.65158 L 308.52267,315.23902 L 294.25953,315.11348 L 258.6875,329.98718 L 259.94194,164.09701 L 239.43371,133.12171 L 254.05806,133.21571 L 254,108.36218 L 350.81802,224.39942 z"
     id="main hall 2 - glare"
     inkscape:connector-curvature="0"
     sodipodi:nodetypes="cccccccccc" />
  <path
     style="opacity:0.35321105;fill:#000000;stroke:none"
     d="M 336.58282,230.95717 L 259.55689,206.56199 L 259.07252,265.1581 L 336.93637,246.15997 z"
     id="main hall 2 box soft shadow"
     inkscape:connector-curvature="0"
     sodipodi:nodetypes="ccccc" />
  <path
     style="fill:#222b00;fill-opacity:1;fill-rule:nonzero;stroke:none"
     d="M 322.08713,230.42685 L 336.75959,230.42685 L 336.75959,245.62964 L 322.08713,245.62964 z"
     id="main hall 2 box"
     inkscape:connector-curvature="0" />
  <path
     style="opacity:0.25688076;fill:#000000;stroke:none"
     d="M 322.12818,230.42592 L 259.42608,216.17043 L 259.09933,256.08536 L 322.13132,245.62964 z"
     id="main hall 2 box hard shadow"
     inkscape:connector-curvature="0"
     sodipodi:nodetypes="ccccc" />
  <path
     inkscape:connector-curvature="0"
     style="opacity:0.57339448;fill:#000000;fill-opacity:1;fill-rule:nonzero;stroke:none"
     d="M 220.26376,441.77548 L 398.45467,441.77548 L 398.45467,518.85012 L 220.26376,518.85012 z"
     id="control room shadow" />
  <path
     inkscape:connector-curvature="0"
     style="fill:#fff6d5;fill-opacity:1;fill-rule:nonzero;stroke:none"
     d="M 533.125,92.737175 L 549.25,92.737175 L 549.25,99.237175 L 533.125,99.237175 z"
     id="hyggym-lamp" />
  <path
     inkscape:connector-curvature="0"
     style="fill:#550000;stroke:none"
     d="M 546.00418,238.91122 L 723.55652,238.91122 L 723.55652,322.75542 L 546.00418,322.75542 z"
     id="hyggym-mat" />
  <path
     style="opacity:0.37037036;fill:#f4eed7;stroke:none"
     d="M 551.5004,96.000253 L 531.85522,96.000253 L 526.29993,103.18492 L 523.57479,103.22982 L 520.72043,111.92898 L 525.27264,111.88728 L 522.76704,118.82142 L 499.90533,118.69591 L 497.5296,125.1735 L 521.9688,125.01221 L 448.16596,197.48014 L 448.59141,395.59253 C 463.03487,396.56296 448.7518,396.32674 464.44603,395.70994 L 459.06589,336.88143 L 478.68381,360.62504 L 484.53328,360.87194 L 488.2348,346.73507 L 499.90936,349.96561 L 523.48944,207.14099 L 629.67861,207.7231 L 613.0616,184.18146 L 599.27302,184.18146 L 564.62479,126.05226 L 583.36312,125.69871 L 576.35834,119.82089 L 567.78467,119.90929 z"
     id="hyggym-glare"
     inkscape:connector-curvature="0"
     sodipodi:nodetypes="ccccccccccccccccccccccccccc" />
  <path
     inkscape:connector-curvature="0"
     style="fill:#483737;stroke:none"
     d="M 523.46613,207.22313 L 629.82504,207.22313 L 629.82504,219.48354 L 523.46613,219.48354 z"
     id="hyggym" />
  <path
     style="opacity:0.16666667;fill:#ffeeaa;stroke:none"
     d="M 721.83939,397.08866 L 668.92689,322.63117 L 669.4152,321.04572 C 653.62083,280.63139 632.50156,252.1981 613.28719,219.47878 L 629.85537,219.49486 L 629.53215,183.49215 L 598.80423,126.36117 L 615.31293,125.6079 L 615.34073,92.570453 L 643.15834,92.818273 L 664.13321,92.563229 L 679.81267,192.06322 L 732.56267,191.96882 L 731.76495,387.83867 L 722.25005,387.83867 z"
     id="hyggym-glare2"
     inkscape:connector-curvature="0"
     sodipodi:nodetypes="cccccccccccccccc" />
  <path
     inkscape:connector-curvature="0"
     style="fill:#ffe680;stroke:none"
     d="M 722.15222,387.9747 L 731.65096,387.9747 L 731.65096,396.45998 L 722.15222,396.45998 z"
     id="hyggym-lamp2" />
  <path
     inkscape:connector-curvature="0"
     style="opacity:0.37037036;fill:#004455;stroke:none"
     d="M 490.73212,98.475128 L 497.09608,98.475128 L 497.09608,104.13198 L 490.73212,104.13198 z"
     id="hyggym-box2-drain" />
  <path
     inkscape:connector-curvature="0"
     style="opacity:0.37037036;fill:#004455;stroke:none"
     d="M 593.96973,99.182236 L 600.33369,99.182236 L 600.33369,105.5462 L 593.96973,105.5462 z"
     id="hyggym-box-drain" />
  <path
     style="fill:#6c5353;stroke:none"
     d="M 458.87846,336.66744 L 475.99999,362.8622 L 478.99999,360.3622 L 462.07733,334.62737 z"
     id="hyggym-door5"
     inkscape:connector-curvature="0"
     sodipodi:nodetypes="ccccc" />
  <path
     style="fill:#6c5353;stroke:none"
     d="M 546.73814,337.38804 L 563.75548,363.62681 L 566.75382,361.12482 L 549.73665,335.13606 z"
     id="hyggym-door3"
     inkscape:connector-curvature="0"
     sodipodi:nodetypes="ccccc" />
  <path
     style="opacity:0.03097343;fill:#ffffff;stroke:none"
     d="M 462.09426,334.64884 L 475.52929,286.91913 C 492.98405,291.23896 519.02517,311.80522 536.19683,324.56151 L 499.74843,349.67583 L 489.77406,343.44756 L 488.12209,346.62847 L 501.15086,355.34276 L 478.95434,360.39194 z"
     id="hyggym-reflection1"
     inkscape:connector-curvature="0"
     sodipodi:nodetypes="ccccccccc" />
  <path
     sodipodi:nodetypes="ccccc"
     inkscape:connector-curvature="0"
     id="hyggym-door4"
     d="M 487.98273,346.57902 L 514.03192,363.97054 L 515.80974,360.49357 L 489.96806,343.25386 z"
     style="fill:#6c5353;stroke:none" />
  <path
     sodipodi:nodetypes="ccccc"
     inkscape:connector-curvature="0"
     id="hyggym-door2"
     d="M 570.90911,358.34434 L 601.64384,364.12704 L 601.90113,360.2304 L 571.3475,354.62006 z"
     style="fill:#6c5353;stroke:none" />
  <path
     style="fill:#6c5353;stroke:none"
     d="M 641.1022,353.0532 L 670.2801,364.30989 L 671.23928,360.5244 L 642.20824,349.47003 z"
     id="hyggym-door1"
     inkscape:connector-curvature="0"
     sodipodi:nodetypes="ccccc" />
  <path
     inkscape:connector-curvature="0"
     style="fill:#483737;stroke:none"
     d="M 446.30569,360.69046 L 678.02225,360.69046 L 678.02225,398.16712 L 446.30569,398.16712 z"
     id="hyggym-locker" />
  <rect
     style="fill:#000000;stroke:none"
     id="hyggym-sink-drain"
     width="4.5961938"
     height="3.8890872"
     x="577.3526"
     y="197.11656" />
  <path
     style="opacity:0.02212387;fill:#ffffff;stroke:none"
     d="M 611.24997,219.67472 L 591.49997,233.36222 C 662.50867,279.12397 672.85756,214.26063 659.74997,187.86222 L 629.99997,207.86222 L 630.06247,219.67472 z"
     id="hyggym-radiosity"
     inkscape:connector-curvature="0"
     sodipodi:nodetypes="cccccc" />
  <path
     style="opacity:0.05309735;fill:#ffffff;stroke:none"
     d="M 525.02676,208.07673 L 511.23818,133.83052 L 673.87273,137.71961 L 629.67856,207.01607 z"
     id="hyggym-reflection2"
     inkscape:connector-curvature="0"
     sodipodi:nodetypes="ccccc" />
  <rect
     style="opacity:0.77876108;fill:#000000;stroke:none"
     id="hyggym-stall1-shadow"
     width="42.779957"
     height="24.57288"
     x="685.36322"
     y="110.80758" />
  <rect
     style="opacity:0.77876108;fill:#000000;stroke:none"
     id="hyggym-stall3-shadow"
     width="42.779957"
     height="24.57288"
     x="685.35999"
     y="165.20079" />
  <rect
     style="opacity:0.77876108;fill:#000000;stroke:none"
     id="hyggym-stall2-shadow"
     width="42.779957"
     height="24.57288"
     x="685.60999"
     y="137.95079" />
  <rect
     style="fill:#88aa00;fill-opacity:1;fill-rule:nonzero;stroke:none"
     id="elevator-level-2-entrance"
     width="36.062447"
     height="36.062443"
     x="262.33658"
     y="35.189175" />
</svg>
