<?xml version="1.0" encoding="UTF-8" standalone="no"?>
<!-- Created with Inkscape (http://www.inkscape.org/) -->

<svg
   width="486.6004"
   height="778.61981"
   id="svg4042"
   version="1.1"
   inkscape:version="1.1 (c4e8f9e, 2021-05-24)"
   sodipodi:docname="sms_art.svg"
   inkscape:export-filename="/Users/monty/Desktop/derelict.png"
   inkscape:export-xdpi="90"
   inkscape:export-ydpi="90"
   xmlns:inkscape="http://www.inkscape.org/namespaces/inkscape"
   xmlns:sodipodi="http://sodipodi.sourceforge.net/DTD/sodipodi-0.dtd"
   xmlns:xlink="http://www.w3.org/1999/xlink"
   xmlns="http://www.w3.org/2000/svg"
   xmlns:svg="http://www.w3.org/2000/svg"
   xmlns:rdf="http://www.w3.org/1999/02/22-rdf-syntax-ns#"
   xmlns:cc="http://creativecommons.org/ns#"
   xmlns:dc="http://purl.org/dc/elements/1.1/">
  <sodipodi:namedview
     id="base"
     pagecolor="#ffffff"
     bordercolor="#666666"
     borderopacity="1.0"
     inkscape:pageopacity="0.0"
     inkscape:pageshadow="2"
     inkscape:zoom="0.24748737"
     inkscape:cx="-703.06617"
     inkscape:cy="593.9697"
     inkscape:document-units="px"
     inkscape:current-layer="layer1"
     showgrid="false"
     inkscape:window-width="1920"
     inkscape:window-height="1080"
     inkscape:window-x="1440"
     inkscape:window-y="0"
     inkscape:window-maximized="0"
     showguides="true"
     inkscape:guide-bbox="true"
     inkscape:pagecheckerboard="0"
     fit-margin-top="0"
     fit-margin-left="0"
     fit-margin-right="0"
     fit-margin-bottom="0" />
  <defs
     id="defs4044">
    <linearGradient
       id="linearGradient4249">
      <stop
         id="stop4251"
         offset="0"
         style="stop-color:#803300;stop-opacity:1;" />
      <stop
         id="stop4253"
         offset="1"
         style="stop-color:#00ff00;stop-opacity:1;" />
    </linearGradient>
    <linearGradient
       id="linearGradient4161">
      <stop
         style="stop-color:#008080;stop-opacity:1;"
         offset="0"
         id="stop4163" />
      <stop
         style="stop-color:#000000;stop-opacity:1;"
         offset="1"
         id="stop4165" />
    </linearGradient>
    <inkscape:perspective
       sodipodi:type="inkscape:persp3d"
       inkscape:vp_x="0 : 252.43872 : 1"
       inkscape:vp_y="0 : 1000 : 0"
       inkscape:vp_z="744.09448 : 252.43872 : 1"
       inkscape:persp3d-origin="372.04724 : 77.045019 : 1"
       id="perspective4070" />
    <linearGradient
       inkscape:collect="always"
       xlink:href="#linearGradient4161"
       id="linearGradient4167"
       x1="44.446712"
       y1="712.95093"
       x2="234.35539"
       y2="712.95093"
       gradientUnits="userSpaceOnUse" />
    <linearGradient
       spreadMethod="pad"
       gradientTransform="translate(0,2)"
       gradientUnits="userSpaceOnUse"
       y2="373.15585"
       x2="272.74118"
       y1="334.77005"
       x1="156.02834"
       id="linearGradient4255"
       xlink:href="#linearGradient4249"
       inkscape:collect="always" />
  </defs>
  <metadata
     id="metadata4047">
    <rdf:RDF>
      <cc:Work
         rdf:about="">
        <dc:format>image/svg+xml</dc:format>
        <dc:type
           rdf:resource="http://purl.org/dc/dcmitype/StillImage" />
      </cc:Work>
    </rdf:RDF>
  </metadata>
  <g
     inkscape:label="Layer 1"
     inkscape:groupmode="layer"
     id="layer1"
     transform="translate(-209.77939,-283.35075)">
    <g
       id="g1836"
       transform="translate(-52.282821,6.5195751)"
       style="stroke:#000000;stroke-width:4;stroke-miterlimit:4;stroke-dasharray:none;stroke-opacity:1">
      <path
         style="fill:#6c6753;stroke:#000000;stroke-width:4;stroke-miterlimit:4;stroke-dasharray:none;stroke-opacity:1"
         d="m 506.14467,480.12194 27.16681,-172.05647 148.77064,-9.05561 -1.29366,194.04866 -150.06428,7.76193 -24.57951,-20.69851"
         id="path1792"
         inkscape:connector-curvature="0" />
      <path
         style="fill:#550000;stroke:#000000;stroke-width:4;stroke-miterlimit:4;stroke-dasharray:none;stroke-opacity:1"
         d="M 406.37827,776.36954 C 312.42818,850.73001 297.22008,942.47499 264.73578,1052.8001 l 479.95648,0.1288 -0.45384,-319.65984 -219.96955,-15.40152 z"
         id="path1794"
         inkscape:connector-curvature="0"
         sodipodi:nodetypes="cccccc" />
      <path
         style="fill:#2b0000;stroke:#000000;stroke-width:4;stroke-miterlimit:4;stroke-dasharray:none;stroke-opacity:1"
         d="m 441.30646,870.4335 c 88.35209,12.26814 214.56975,19.76919 302.92725,11.74823 l 0.19172,170.49457 -337.44924,0.3763 c 34.35847,-53.60752 11.4757,-122.59243 34.33027,-182.6191 z"
         id="path1796"
         inkscape:connector-curvature="0"
         sodipodi:nodetypes="ccccc" />
      <path
         style="fill:#aa0000;stroke:#000000;stroke-width:4;stroke-miterlimit:4;stroke-dasharray:none;stroke-opacity:1"
         d="m 456.20948,484.00292 -7.89291,206.63003 86.80604,106.43512 194.6776,-48.71586 14.30765,-23.17504 0.34962,79.15706 -209.33487,32.83722 -90.55604,-106.07994 2.58731,-37.51607 9.0556,-209.57252"
         id="path1798"
         inkscape:connector-curvature="0"
         sodipodi:nodetypes="cccccccccc" />
      <path
         style="fill:#554400;stroke:#000000;stroke-width:4;stroke-miterlimit:4;stroke-dasharray:none;stroke-opacity:1"
         d="m 448.44756,690.98813 34.92874,-130.65943 261.12344,-3.97867 -0.3919,175.6873 -14.93659,17.16539 -197.92961,51.7463 -82.79408,-109.96089"
         id="path1800"
         inkscape:connector-curvature="0"
         sodipodi:nodetypes="ccccccc" />
      <path
         style="fill:#aa0000;stroke:#000000;stroke-width:4;stroke-miterlimit:4;stroke-dasharray:none;stroke-opacity:1"
         d="M 744.02803,290.36404 C 642.70257,262.99496 575.18368,288.55743 480.78899,322.2957 l -33.63511,170.76282 49.159,98.31798 135.83406,21.99217 112.22652,-53.54743 -0.34543,-269.4572"
         id="path1802"
         inkscape:connector-curvature="0"
         sodipodi:nodetypes="ccccccc" />
      <path
         style="opacity:0.256881;fill:#d4aa00;stroke:#000000;stroke-width:4;stroke-miterlimit:4;stroke-dasharray:none;stroke-opacity:1"
         d="m 453.73817,538.56429 -6.58428,151.13018 86.67508,108.66725 188.17353,-49.72599 23.10002,-23.78264 -2.118,-164.24089 -112.13124,48.8755 -133.24674,-21.99218 -42.59299,-79.00121"
         id="path1804"
         inkscape:connector-curvature="0"
         sodipodi:nodetypes="ccccccccc" />
      <path
         style="fill:#2b2200;stroke:#000000;stroke-width:4;stroke-miterlimit:4;stroke-dasharray:none;stroke-opacity:1"
         d="m 689.906,670.41348 c 9.1465,25.19802 7.69527,39.03492 18.98052,52.87638 -55.10662,69.86547 -81.17217,26.77367 -129.00336,30.42277 l -4.18054,-20.28996 59.80782,-42.43453 z"
         id="path1806"
         inkscape:connector-curvature="0"
         sodipodi:nodetypes="cccccc" />
      <path
         style="fill:#554400;stroke:#000000;stroke-width:4;stroke-miterlimit:4;stroke-dasharray:none;stroke-opacity:1"
         d="m 525.54954,595.25747 c -3.50065,51.99188 12.60034,96.47452 28.46047,144.88965 l 46.57168,7.76195 c 90.7802,-47.34341 100.30221,-83.86924 120.3721,-177.58134 l -87.96873,42.53586 -107.43552,-17.60612"
         id="path1808"
         inkscape:connector-curvature="0"
         sodipodi:nodetypes="cccccc" />
      <path
         style="opacity:0.224771;fill:#93ac93;stroke:#000000;stroke-width:4;stroke-miterlimit:4;stroke-dasharray:none;stroke-opacity:1"
         d="M 491.91445,326.17667 C 577.05,309.12944 675.90633,276.77521 741.39497,345.99851 l 1.10785,-49.07088 c -116.01856,-28.30803 -163.0772,0.18449 -250.58837,29.24904"
         id="path1810"
         inkscape:connector-curvature="0"
         sodipodi:nodetypes="cccc" />
      <path
         style="opacity:0.215596;fill:#aad400;stroke:#000000;stroke-width:4;stroke-miterlimit:4;stroke-dasharray:none;stroke-opacity:1"
         d="m 454.39836,485.29657 47.86534,85.3814 8.70057,-179.3395 c -17.45477,-16.72648 -17.50668,-39.629 -21.63714,-59.98717 l -34.92877,153.94527"
         id="path1812"
         inkscape:connector-curvature="0"
         sodipodi:nodetypes="ccccc" />
      <path
         style="opacity:0.110092;fill:#ffdd55;stroke:#000000;stroke-width:4;stroke-miterlimit:4;stroke-dasharray:none;stroke-opacity:1"
         d="m 637.93812,592.16508 36.66555,-188.51899 c 38.42392,-10.43553 48.27768,-31.28024 70.04573,-45.74972 l -0.19061,193.25046 -106.52067,41.01825"
         id="path1814"
         inkscape:connector-curvature="0"
         sodipodi:nodetypes="ccccc" />
      <path
         style="opacity:0.0688073;fill:#aad400;stroke:#000000;stroke-width:4;stroke-miterlimit:4;stroke-dasharray:none;stroke-opacity:1"
         d="M 495.7557,790.64343 467.77547,760.6592 c -69.91313,10.15164 -95.50816,63.06324 -137.41342,115.22907 44.85936,-50.77187 80.91567,-116.98353 165.39365,-85.24484 z"
         id="path1816"
         inkscape:connector-curvature="0"
         sodipodi:nodetypes="cccc" />
      <path
         style="opacity:0.623853;fill:#000000;stroke:#000000;stroke-width:4;stroke-linecap:butt;stroke-linejoin:miter;stroke-miterlimit:4;stroke-dasharray:none;stroke-opacity:1"
         d="m 469.99999,898.07647 c 2.41379,46.36836 -1.33698,104.90023 -15.71429,154.99993 h 290.71429 c -55.81657,-24.6352 -254.49614,-8.5359 -275,-154.99993 z"
         id="path1818"
         inkscape:connector-curvature="0"
         sodipodi:nodetypes="cccc" />
      <path
         style="fill:#808000;stroke:#000000;stroke-width:4;stroke-miterlimit:4;stroke-dasharray:none;stroke-opacity:1"
         d="m 519.93177,1053.2432 c 68.39481,-83.92092 144.94712,-40.9745 200.23342,-0.3143 l -189.37428,0.3143"
         id="path1820"
         inkscape:connector-curvature="0"
         sodipodi:nodetypes="ccc" />
      <path
         sodipodi:nodetypes="cccc"
         style="fill:#000080;stroke:#000000;stroke-width:4;stroke-miterlimit:4;stroke-dasharray:none;stroke-opacity:1"
         d="m 661.38359,1016.9898 40.1034,6.4683 c 15.18623,9.5543 18.06098,9.156 10.34925,24.5796 l -50.45265,-31.0479"
         id="path1822"
         inkscape:connector-curvature="0" />
      <path
         style="fill:#0000ff;stroke:#000000;stroke-width:4;stroke-miterlimit:4;stroke-dasharray:none;stroke-opacity:1"
         d="m 550.16001,1052.9907 c 23.90063,-17.256 31.23634,-11.5296 56.32296,0"
         id="path1824"
         inkscape:connector-curvature="0"
         sodipodi:nodetypes="cc" />
      <path
         sodipodi:nodetypes="cccc"
         inkscape:connector-curvature="0"
         id="path1826"
         d="M 536.391,838.20984 498.06648,588.76345 444.80446,731.40602 Z"
         style="opacity:0.169725;fill:#ffffff;stroke:#000000;stroke-width:4;stroke-miterlimit:4;stroke-dasharray:none;stroke-opacity:1" />
      <path
         sodipodi:nodetypes="cccc"
         inkscape:connector-curvature="0"
         id="path1828"
         d="M 444.63299,731.55395 498.0052,589.71232 456.58895,511.93057 Z"
         style="opacity:0.224771;fill:#ffffff;stroke:#000000;stroke-width:4;stroke-miterlimit:4;stroke-dasharray:none;stroke-opacity:1" />
      <path
         style="fill:#2b0000;stroke:#000000;stroke-width:4;stroke-miterlimit:4;stroke-dasharray:none;stroke-opacity:1"
         d="m 426.9479,839.90274 c 62.32948,35.53805 182.39437,34.92499 317.89166,14.16317 l 0.0613,-18.66244 c -105.6354,18.5963 -211.37867,31.90733 -317.95294,4.49927 z"
         id="path1830"
         inkscape:connector-curvature="0"
         sodipodi:nodetypes="cccc" />
      <path
         style="opacity:0.417431;fill:#000000;stroke:#000000;stroke-width:4;stroke-miterlimit:4;stroke-dasharray:none;stroke-opacity:1"
         d="m 572.85714,1053.0765 c 15.91041,0.8617 15.45004,-4.3079 13.57143,-10 l 16.42857,7.1428 c 64.61032,-8.2046 59.4649,-20.2315 56.42857,-32.1428 l 38.57143,20 c 13.63664,-0.7637 10.20511,-6.404 11.42857,-10.7143 9.75996,3.8442 6.86274,12.2089 3.57143,20.7143 l 8.92857,5.3571 z"
         id="path1832"
         inkscape:connector-curvature="0"
         sodipodi:nodetypes="ccccccccc" />
      <path
         style="opacity:0.12844;fill:#000000;stroke:#000000;stroke-width:4;stroke-miterlimit:4;stroke-dasharray:none;stroke-opacity:1"
         d="M 534.87577,837.45223 635.38595,610.92552 745.49257,803.86466 Z"
         id="path1834"
         inkscape:connector-curvature="0"
         sodipodi:nodetypes="cccc" />
    </g>
  </g>
</svg>
